<svg width="328" height="352" viewBox="0 0 328 352" fill="none" xmlns="http://www.w3.org/2000/svg">
<mask id="mask0_1655_759" style="mask-type:alpha" maskUnits="userSpaceOnUse" x="4" y="0" width="320" height="352">
<rect x="4" width="320" height="352" rx="25" fill="#D9D9D9"/>
</mask>
<g mask="url(#mask0_1655_759)">
<path fill-rule="evenodd" clip-rule="evenodd" d="M242.258 71.4186L241.787 72.7522L242.964 73.5366L244.299 72.7522L243.828 71.1049L242.258 71.4186Z" fill="#F7CA60" fill-opacity="0.07" stroke="#F7CA60" stroke-width="0.568"/>
<path fill-rule="evenodd" clip-rule="evenodd" d="M130.133 106.989L132.281 108.694L133.265 107.139L133.594 105.848L132.402 105.107L130.968 104.893L130.133 106.989Z" fill="#F7CA60" fill-opacity="0.07" stroke="#F7CA60" stroke-width="0.568"/>
<path fill-rule="evenodd" clip-rule="evenodd" d="M125.951 112.038L126.636 112.908L129.027 111.439L128.492 110.006L126.993 109.949L126.158 111.232L125.951 112.038Z" fill="#F7CA60" fill-opacity="0.07" stroke="#F7CA60" stroke-width="0.568"/>
<path fill-rule="evenodd" clip-rule="evenodd" d="M178.856 89.8243L182.46 90.295L182.617 92.0992L181.204 92.4914L179.563 91.4716L178.856 89.8243Z" fill="#F7CA60" fill-opacity="0.07" stroke="#F7CA60" stroke-width="0.568"/>
<path fill-rule="evenodd" clip-rule="evenodd" d="M188.34 83.8697L188.967 86.7721H190.452L190.766 84.1835L189.274 82.9355L188.34 83.8697Z" fill="#F7CA60" fill-opacity="0.07" stroke="#F7CA60" stroke-width="0.568"/>
<path fill-rule="evenodd" clip-rule="evenodd" d="M191.629 86.3015V89.5889L195.311 88.8045L198.758 87.0075L197.588 84.3404L195.311 84.0266L193.584 83.6344L192.336 85.517L191.629 86.3015Z" fill="#F7CA60" fill-opacity="0.07" stroke="#F7CA60" stroke-width="0.568"/>
<path fill-rule="evenodd" clip-rule="evenodd" d="M192.807 67.9744L193.906 70.3206L200.956 70.399L202.997 66.6409L201.663 63.7456L200.171 65.3858L197.274 65.1505L196.489 66.484H194.919L194.684 68.0528L192.807 67.9744Z" fill="#F7CA60" fill-opacity="0.07" stroke="#F7CA60" stroke-width="0.568"/>
<path fill-rule="evenodd" clip-rule="evenodd" d="M190.059 56.2222L189.588 57.9479L191.001 58.2617L191.551 56.7713L190.059 56.2222Z" fill="#F7CA60" fill-opacity="0.07" stroke="#F7CA60" stroke-width="0.568"/>
<path fill-rule="evenodd" clip-rule="evenodd" d="M186.299 71.4187L187.947 73.9217L191.001 74.5493L191.08 71.0265L190.059 69.3007L186.456 69.0725L184.572 70.3989L181.675 69.9283L181.439 71.8893L183.166 73.6935L182.224 74.7846L179.484 72.5169L176.187 72.8306L175.952 75.4906L176.266 78.2361L177.757 80.1116L178.306 82.2296L181.361 83.0924L184.179 82.8571L183.951 79.8763L185.985 80.1116L187.555 77.5301L189.431 77.9223L190.687 76.5103L189.431 75.2553L186.691 74.4708L184.5 71.8893L186.299 71.4187Z" fill="#F7CA60" fill-opacity="0.07" stroke="#F7CA60" stroke-width="0.568"/>
<path fill-rule="evenodd" clip-rule="evenodd" d="M172.505 78.0009L172.976 80.1117L174.853 82.3081L176.03 81.8374L174.617 79.2488L172.505 78.0009Z" fill="#F7CA60" fill-opacity="0.07" stroke="#F7CA60" stroke-width="0.568"/>
<path fill-rule="evenodd" clip-rule="evenodd" d="M253.833 73.337L252.884 75.1769L247.76 78.065L244.035 74.5279L240.31 74.1571L234.994 77.6015L231.369 82.0656L230.063 86.6296L227.637 87.3712L224.661 85.8879L221.771 86.1661L220.28 88.12L218.974 87.0004L217.768 88.3054L216.277 86.9077L218.417 84.7683L213.387 84.3975L210.504 86.9077L212.081 92.306L209.198 95.1015V90.9154H207.243L205.287 92.6768L204.817 90.5375L207.707 87.9346L204.631 88.12L195.504 92.7767L197.274 94.916L194.669 97.4262L195.69 99.2875L197.552 98.3604L197.738 101.056L199.978 103.666L196.525 104.5L195.504 105.898L196.439 108.13L193.642 108.601L189.917 107.481L188.797 111.667L182.46 110.555V119.861L177.993 119.119L171.1 112.88L173.611 111.111L169.423 104.871L166.725 103.573L162.622 104.964L158.062 103.195L157.406 110.277L149.121 113.814L145.953 111.667L146.417 109.991L137.939 109.899L135.706 112.88L135.149 114.833L134.585 111.952L133.001 110.555L131.139 112.509L128.556 113.799L128.413 115.568L129.619 117.18L129.647 117.208L129.655 117.251L130.204 120.118L134.193 125.758L134.229 125.808V125.858V129.531L136.262 131.977L136.377 132.112L136.241 132.219L131.588 135.913L131.317 138.053L131.31 138.095L131.289 138.131L130.197 139.764L129.376 143.743L129.341 143.9L129.191 143.879L126.907 143.608L123.225 146.61L123.211 146.617L123.197 146.624L121.955 147.266L124.881 151.723L124.902 151.766L124.909 151.809L125.901 164.274V164.353L125.851 164.402L123.289 167.241L124.981 168.546L125.066 168.61L125.045 168.717L124.353 172.033L125.851 173.666L125.901 173.716V173.787V176.105L127.671 177.324L127.778 177.403L127.735 177.531L126.879 179.792L126.872 179.827L126.85 179.849L124.188 183.065L123.932 185.368H128.277H128.334L128.384 185.411L130.275 186.887L132.295 185.539L132.423 185.454L132.523 185.582L133.658 186.994L133.751 187.108L133.743 187.122L135.228 189.369L135.328 189.511L135.178 189.611L133.494 190.681V192.67L135.356 192.813L136.912 191.729L137.069 191.615L137.161 191.786L139.088 195.48L139.11 195.516V195.566L138.953 199.951L141.429 201.342L141.543 201.406L141.514 201.535L140.401 206.127L141.793 209.208L144.925 210.149L145.111 210.206L145.032 210.384L142.635 215.968L142.164 222.921L144.568 225.481L147.173 223.492L147.216 223.456H147.273L151.191 223.299L152.582 220.817L152.696 220.618L152.86 220.775L154.973 222.893L157.727 219.683L162.051 210.399L162.087 210.32L162.18 210.306L165.07 209.821L165.113 209.814L165.163 209.835L170.778 212.082L170.85 212.11L170.878 212.181L172.099 215.854L175.46 214.328L175.545 214.285L175.624 214.342L177.715 215.783L177.75 215.811L177.772 215.861L181.554 224.426L186.463 233.525L189.553 231.5L189.567 231.493L189.589 231.486L192.8 230.202L192.893 230.166L192.971 230.231L195.426 232.22L196.753 231.036L196.874 230.929L196.988 231.036L198.958 232.848L200.763 231.043L200.813 230.986L200.892 230.994L205.387 231.15L205.444 231.158L205.487 231.186L208.299 233.375L213.822 231.322L213.922 231.286L213.993 231.35L215.841 232.89L223.441 229.403L223.498 229.382L223.548 229.389L225.746 229.86L228.136 228.968L227.837 227.185L227.815 227.057L227.93 227L233.809 223.941L232.339 219.798L232.304 219.698L232.375 219.619L234.352 217.508L233.538 215.462L229.771 213.002L229.642 212.916L229.713 212.78L231.697 208.958L228.008 206.412L227.851 206.298L227.979 206.156L229.692 204.152V195.73V195.609L229.806 195.566L237.028 192.82L237.313 189.561L237.327 189.412L237.477 189.404L241.759 189.119L242.729 186.473L242.587 183.728L242.579 183.614L242.686 183.564L244.749 182.601L243.193 177.096L240.317 175.078L240.217 175.007L240.253 174.892L242.137 168.21L239.525 161.236L239.49 161.143L239.547 161.065L241.01 159.161L241.088 159.068L241.202 159.104L246.29 160.844L249.53 160.145L250.664 158.156L250.707 158.084L250.793 158.07L254.639 157.507L255.324 155.039L248.923 141.775L248.902 141.725L248.909 141.668L249.558 138.423L249.573 138.359L249.63 138.317L253.918 135.293L252.306 132.184L252.241 132.07L252.341 131.977L256.494 128.09L256.537 128.048L256.594 128.04L260.291 127.662L262.41 125.288L262.788 121.152L260.391 119.005L260.333 118.955L260.326 118.884L260.205 116.21L258.671 113.914L258.592 113.792L258.699 113.692L260.526 111.988L258.557 109.649L258.442 109.521L258.571 109.414L263.366 105.007L263.395 104.985L263.423 104.971L265.578 104.08L267.184 101.741L264.158 95.4509H260.376H260.341L260.305 95.4366L257.322 94.1387L257.251 94.1102L257.229 94.0389L255.667 90.0169L255.631 89.9242L255.702 89.8458L261.754 82.7573V79.2773L253.833 73.337Z" fill="#F7CA60" fill-opacity="0.07" stroke="#F7CA60" stroke-width="0.568"/>
<path fill-rule="evenodd" clip-rule="evenodd" d="M263.231 26.9558L267.248 31.7194L268.126 30.8351L269.225 25.3512L270.538 22.7911L269.075 20.8158L265.421 21.1082L263.231 24.3957V26.9558Z" fill="#F7CA60" fill-opacity="0.07" stroke="#F7CA60" stroke-width="0.568"/>
<path fill-rule="evenodd" clip-rule="evenodd" d="M325.234 74.8346L324.32 64.7582L321.53 63.1751L328.145 58.6111L327.211 55.5376L314.915 54.5178L313.424 56.4718L310.07 56.7499L309.699 59.3528L307.002 59.1674V55.5376L310.07 54.5178L311.283 52.0005L310.634 45.397L309.421 44.9264L307.929 45.8606L307.837 43.4359L304.947 44.5556L302.991 42.3235L303.741 38.6937L306.16 40.8331L307.558 39.7135L309.606 41.9527L310.819 39.1572L310.541 35.8056L312.775 33.9443L316.685 34.3152L323.207 29.3804L321.623 27.5191L324.884 27.9898L324.791 24.8235L321.252 25.4725L320.225 23.2404L315.472 22.3062L317.342 19.9814L314.915 18.2129L317.149 16.6298L314.359 13L306.438 17.6567L305.974 21.4719L303.833 24.2602L309.143 26.4067L306.253 27.7045L297.682 25.3798L287.721 31.9904L272.814 40.0843L268.811 46.6022L269.182 48.5562L266.477 49.3049L262.66 52.7493L265.364 56.101L267.783 55.3522L271.415 57.3988L271.044 61.0286L267.69 61.4066L265.457 62.7044L260.704 59.7307V65.778L255.859 69.4078L253.99 73.0304L262.032 79.0563L262.103 79.1062V79.1918V82.8216V82.8857L262.06 82.9357L256.03 89.9884L257.522 93.8464L260.405 95.1015H264.265H264.372L264.422 95.2013L265.942 98.3604L268.447 98.7313L268.525 98.7455L268.568 98.824L270.174 101.662L273.535 100.043L273.599 100.015L273.663 100.036L276.81 101.042L279.208 98.9095L279.25 98.8668L279.308 98.8596L283.004 98.61L285.751 95.7362L285.252 92.9693L285.223 92.8195L285.366 92.7767L288.135 91.8924L288.884 89.261L288.92 89.1469L289.034 89.1398L291.389 88.8902L292.131 86.6581L292.166 86.5654L292.259 86.5441L296.598 85.5243L297.725 83.5204L297.775 83.4348L297.868 83.4277L304.354 83.0426L304.483 83.0355L304.526 83.1567L306.031 87.2786L310.541 85.9022L310.57 85.8951H310.598L315.536 86.0163L319.518 74.5993L319.582 74.4067L319.761 74.4995L322.165 75.7617L325.234 74.8346Z" fill="#F7CA60" fill-opacity="0.07" stroke="#F7CA60" stroke-width="0.568"/>
<path fill-rule="evenodd" clip-rule="evenodd" d="M321.373 116.317L320.281 119.576L324.413 124.211L324.991 117.55L322.75 116.538L321.373 116.317Z" fill="#F7CA60" fill-opacity="0.07" stroke="#F7CA60" stroke-width="0.568"/>
<path fill-rule="evenodd" clip-rule="evenodd" d="M273.584 165.158L276.075 163.518L277.752 162.12L280.078 161.564L279.336 156.815L283.432 155.51L286.6 152.722L289.49 152.629L287.342 155.695L289.397 157.471L292.373 154.119L293.122 148.814L295.82 147.787L297.96 144.991L295.727 143.316L293.772 145.74L291.724 143.786L291.167 134.195L289.397 128.518L289.954 124.325L293.401 119.397L295.356 119.305L296.291 116.509L300.294 122L303.084 121.537L303.277 119.49L302.62 115.297L301.914 112.352L299.223 110.833L299.152 110.797L299.138 110.712L298.624 108.03L296.89 106.419L294.093 106.675L293.964 106.683L293.914 106.561L292.252 102.211L289.861 101.705L289.79 101.691L289.747 101.634L285.915 96.0642L283.211 98.8953L283.161 98.9452H283.096L279.393 99.2019L276.967 101.37L276.895 101.434L276.803 101.405L273.62 100.386L270.181 102.047L270.038 102.111L269.952 101.976L268.311 99.0664L266.12 98.7384L267.533 101.684L267.583 101.776L267.526 101.855L265.835 104.322L265.806 104.365L265.756 104.379L263.58 105.278L258.927 109.556L260.897 111.895L261.004 112.017L260.882 112.131L259.041 113.849L260.519 116.06L260.547 116.096V116.146L260.676 118.798L263.08 120.952L263.152 121.009L263.145 121.095L262.752 125.381L262.745 125.438L262.709 125.48L260.504 127.941L260.454 127.991L260.39 127.998L256.687 128.383L252.669 132.141L254.296 135.264L254.367 135.4L254.246 135.493L249.886 138.559L249.265 141.682L255.573 154.768L258.485 152.829L258.556 152.786L258.635 152.807L265.228 155.004L265.328 155.039L265.35 155.139L266.077 158.797L266.092 158.854L266.063 158.911L264.493 161.764L265.678 164.131L268.297 162.206L268.347 162.17H268.397H271.772H271.872L271.922 162.256L273.584 165.158Z" fill="#F7CA60" fill-opacity="0.07" stroke="#F7CA60" stroke-width="0.568"/>
<path fill-rule="evenodd" clip-rule="evenodd" d="M278.665 278.038L278.308 288.899L280.264 292.25L272.628 292.906L270.116 298.398L277.195 305.657L277.381 308.36L281.291 304.637L287.999 304.73L292.837 300.815L295.727 295.046L297.126 279.222L299.081 270.935L297.782 261.244L295.87 260.702L295.763 260.673L295.741 260.566L295.277 258.249L292.095 255.974L288.527 258.648L290.646 260.937L294.014 261.223L294.2 261.237L294.178 261.415L293.408 266.664L293.386 266.813H293.244L290.853 266.906L291.217 270.251L291.224 270.358L291.139 270.415L287.699 272.704L287.663 272.732H287.613L281.962 273.11L280.549 274.964L281.648 277.161L281.748 277.36L281.527 277.403L278.665 278.038Z" fill="#F7CA60" fill-opacity="0.07" stroke="#F7CA60" stroke-width="0.568"/>
<path fill-rule="evenodd" clip-rule="evenodd" d="M275.547 266.329L278.03 270.379L277.102 273.36L278.615 277.696L281.234 277.118L280.192 275.022L280.142 274.929L280.206 274.843L281.734 272.839L281.784 272.775L281.862 272.768L287.542 272.39L290.86 270.187L290.489 266.757L290.468 266.571L290.653 266.564L293.087 266.471L293.807 261.551L290.546 261.28L290.482 261.273L290.439 261.223L288.142 258.741L288.013 258.598L288.17 258.484L291.988 255.625L292.088 255.546L292.195 255.618L295.534 258.007L295.591 258.049L295.606 258.114L296.062 260.396L297.768 260.88L298.617 249.898L297.404 246.454L292.002 235.472L290.232 233.333L288.648 225.602L287.571 223.035L287.192 222.622L283.154 220.953L281.755 219.277L282.968 216.852L279.985 215.647L273.749 214.528L268.903 217.038L267.226 224.397L265.178 221.787L262.845 224.768L260.89 219.092L256.794 221.602L253.347 221.046L253.533 217.787L258.007 206.619L259.12 195.445L260.426 190.046L259.313 185.582L260.797 181.574L260.148 177.296L269.553 168.082L272.535 168.638L272.814 167.519L271.979 166.214L273.292 165.351L271.672 162.52H268.454L265.721 164.531L265.557 164.652L265.464 164.474L264.144 161.835L264.101 161.757L264.144 161.678L265.728 158.804L265.021 155.303L258.606 153.164L255.659 155.132L254.946 157.706L254.91 157.813L254.803 157.835L250.928 158.405L249.801 160.38L249.758 160.452L249.686 160.466L246.311 161.193L246.268 161.208L246.218 161.193L241.209 159.475L239.882 161.201L242.486 168.139L242.501 168.196L242.486 168.246L240.617 174.864L243.443 176.846L243.5 176.882L243.514 176.939L245.127 182.651L245.162 182.794L245.034 182.851L242.936 183.828L243.079 186.495V186.531L243.071 186.559L242.044 189.347L242.008 189.447L241.894 189.461L237.648 189.74L237.363 192.963L237.356 193.07L237.256 193.106L230.041 195.844V204.216V204.28L229.999 204.33L228.365 206.234L232.018 208.759L232.139 208.851L232.075 208.987L230.091 212.802L233.773 215.205L233.816 215.234L233.838 215.284L234.715 217.48L234.758 217.58L234.68 217.665L232.703 219.783L234.123 223.784L239.967 220.746L240.082 220.682L240.174 220.782L242.101 222.864L242.18 222.95L242.13 223.057L239.261 229.268L239.575 232.27L239.589 232.384L239.489 232.441L237.334 233.668L237.477 236.121H242.294H242.386L242.436 236.199L244.627 239.487L247.039 239.337L250.964 235.729L251.592 233.047L251.62 232.919H251.763H254.703L255.616 231.086L255.673 230.972L255.802 230.994L257.886 231.314L257.993 231.329L258.021 231.436L259.948 237.369L259.983 237.469L259.905 237.54L258.628 238.824L258.585 238.866L258.528 238.874L253.782 239.637L254.967 242.154L255.017 242.261L254.938 242.346L253.047 244.393L252.576 247.074L252.562 247.117L252.534 247.153L249.736 250.419L250.935 251.909L251.014 252.009L250.935 252.116L249.044 254.641V257.686L254.089 260.203L254.125 260.217L254.146 260.253L258.207 265.865L260.74 263.462L260.797 263.412L260.861 263.419L266.306 263.512H266.37L266.413 263.548L268.825 265.494L276.089 263.041L276.389 262.941L276.31 263.248L275.547 266.329Z" fill="#F7CA60" fill-opacity="0.07" stroke="#F7CA60" stroke-width="0.568"/>
<path fill-rule="evenodd" clip-rule="evenodd" d="M254.939 271.377L257.729 275.777L260.704 278.38L267.041 275.314L267.876 272.704L272.628 267.398L275.219 266.215L275.897 263.469L268.846 265.851L268.754 265.886L268.682 265.822L266.242 263.854L260.926 263.761L258.314 266.243L254.939 271.377Z" fill="#F7CA60" fill-opacity="0.07" stroke="#F7CA60" stroke-width="0.568"/>
<path fill-rule="evenodd" clip-rule="evenodd" d="M204.245 254.833L210.589 251.574L215.434 253.25L221.307 252.323L229.877 260.788L240.496 271.777L244.684 270.101L247.296 271.306L249.159 270.379L252.698 271.499L254.61 271.249L257.971 266.136L253.897 260.488L248.795 257.942L248.702 257.893V257.786V254.584V254.527L248.73 254.477L250.579 252.016L249.38 250.519L249.287 250.405L249.38 250.298L252.241 246.968L252.712 244.286L252.726 244.236L252.755 244.201L254.603 242.197L253.369 239.58L253.269 239.373L253.497 239.337L258.421 238.538L259.591 237.369L257.729 231.643L255.873 231.357L254.967 233.169L254.917 233.261H254.81H251.899L251.285 235.857L251.278 235.907L251.235 235.943L247.225 239.637L247.182 239.672L247.118 239.679L244.549 239.836L244.449 239.843L244.392 239.758L242.201 236.47H237.32H237.156L237.142 236.306L236.985 233.582L236.978 233.475L237.07 233.418L239.218 232.192L238.911 229.261L238.904 229.211L238.926 229.168L241.766 223.021L240.01 221.117L228.201 227.25L228.5 229.054L228.522 229.189L228.393 229.239L225.824 230.202L225.774 230.223L225.724 230.209L223.534 229.746L215.884 233.247L215.784 233.29L215.699 233.219L213.85 231.678L208.327 233.732L208.234 233.768L208.163 233.704L205.316 231.493L200.956 231.343L199.079 233.211L198.965 233.333L198.844 233.219L196.874 231.4L195.547 232.577L195.433 232.677L195.319 232.584L192.828 230.566L189.731 231.799L186.72 233.775L190.53 236.314L190.673 236.413L190.573 236.556L189.439 238.146L191.194 239.901L194.377 238.132L194.526 238.054L194.612 238.203L196.132 240.892L198.572 240.314L198.765 240.264L198.787 240.471L199.143 245.256L201.627 246.675L201.791 246.768L201.684 246.925L200.285 248.907L204.245 254.833Z" fill="#F7CA60" fill-opacity="0.07" stroke="#F7CA60" stroke-width="0.568"/>
<path fill-rule="evenodd" clip-rule="evenodd" d="M287.571 223.035L287.443 222.721L292.937 225.702L294.707 230.352L297.404 233.796L300.665 239.009L302.992 242.824L305.696 244.871L306.531 247.295L307.28 249.435L310.634 251.018L311.098 254.37L314.545 258.741L314.823 254.926L314.359 252.038L317.056 251.852L318.084 251.389L320.596 252.694L318.548 248.408H315.565L312.404 247.017L308.772 244.407L306.438 238.453L305.132 234.63L307.93 233.054L313.146 232.776L301.407 224.861L293.123 217.416L289.298 210.249L284.082 206.619L281.663 203.546L279.986 204.287L279.615 206.056L282.69 208.195L284.367 210.712L283.432 211.925L281.941 211.547L281.477 213.693L284.46 215.925L287.443 222.721L287.193 222.621L287.571 223.035Z" fill="#F7CA60" fill-opacity="0.07" stroke="#F7CA60" stroke-width="0.568"/>
<path fill-rule="evenodd" clip-rule="evenodd" d="M44.4093 111.161L45.708 111.304L45.9506 110.441L45.0872 109.478L44.0311 109.813L44.4093 111.161Z" fill="#F7CA60" fill-opacity="0.07" stroke="#F7CA60" stroke-width="0.568"/>
<path fill-rule="evenodd" clip-rule="evenodd" d="M48.5485 117.836L50.0827 118.413L51.6668 118.121L50.9961 115.768L49.0694 116.83L48.5485 117.836Z" fill="#F7CA60" fill-opacity="0.07" stroke="#F7CA60" stroke-width="0.568"/>
<path fill-rule="evenodd" clip-rule="evenodd" d="M52.166 119.005L50.2892 119.119L49.3615 122.471L46.286 119.676L45.444 122.564L48.7051 126.101L48.8977 129.167L42.9322 123.862L42.7466 120.51L45.2584 117.444L45.6366 112.509L44.6091 112.972L43.396 116.324L41.5335 118L39.5783 118.556L37.7158 121.351L37.8086 128.704L33.2416 135.871L33.5271 140.249H38.1797L42.0045 144.806V149.185L39.3 152.443L40.0421 153.927L42.19 155.139L38.1797 156.073L37.0665 151.88L40.0421 146.667L38.7434 142.759L34.1764 142.11L31.6646 144.528L31.3792 150.019L27.1905 154.305L23.3728 155.695L20.761 158.491L12.0054 153.092V150.482L17.8782 153.185L20.9537 151.973L25.8846 148.814L29.2384 142.11L28.6818 138.481L34.362 124.981L35.0113 122.656L34.362 119.583L38.0869 116.046L38.8362 111.111L35.9461 107.296L38.9147 106.904L38.4794 103.317L35.5394 103.096L35.3182 105.713L35.9461 107.296L34.0837 106.547L31.2864 108.694L27.9326 112.972L25.328 115.482L21.4175 116.417L19.3695 118.371L21.4175 121.073L19.184 125.074L16.1085 126.008L16.0157 127.399L18.7131 130.194L17.7854 132.797L18.2492 134.473L19.2768 135.963L15.8302 139.13L14.7098 137.361L13.775 133.36L10.1429 127.527L8.05921 129.26L9.27946 131.435L9.32941 131.521L9.27946 131.606L6.73195 136.134L7.7167 139.372L7.73811 139.443L7.6953 139.515L6.11113 141.953L6.07544 142.003L6.01836 142.025L3.478 142.873L1.78681 144.849L1.73685 144.906H1.65837L-4.74964 145.191L-8.01073 147.887L-8.05354 147.922H-8.11776L-10.2157 147.958L-10.4084 153.406V153.456L-10.4369 153.499L-12.9487 157.029L-11.3218 160.459L-5.14212 160.922L-5.09217 160.93L-5.04936 160.958L-2.10224 163.24L-2.03802 163.29V163.376L-1.94525 166.342L-0.903424 167.298L6.16821 167.676H6.24672L6.29667 167.74L8.48736 170.493L8.52306 170.542V170.6L8.70857 175.106L9.91454 176.675L9.95023 176.725V176.789L9.85746 179.742H14.5314H14.6028L14.6456 179.792L18.9057 183.671L24.7785 186.224L24.8285 186.245L24.857 186.295L27.0263 189.868L30.8511 192.2L34.7402 192.571L37.9228 190.239L38.0369 190.146L38.144 190.246L41.0411 192.956L44.0168 192.863L44.1096 192.856L44.1595 192.942L46.393 196.193L47.5491 196.286L47.6133 196.293L47.6632 196.336L49.804 198.482L54.2425 192.849L54.5208 189.219V189.169L54.5493 189.126L57.4893 185.076L56.9398 181.817L53.5931 179.307L53.5075 179.243L53.5289 179.136L54.3638 174.393L52.1374 171.334L52.1017 171.284L52.1089 171.213L52.8082 164.624L50.0181 160.994L49.961 160.922L49.9895 160.837L51.1027 157.499L49.9966 154.861L49.9181 154.683L50.1108 154.626L53.7144 153.663L55.2344 149.791L54.4352 145.234L50.6745 144.293L50.6103 144.278L50.5746 144.228L47.1138 139.657L47.0638 139.593L47.0852 139.515L47.7774 136.748L47.7988 136.669L47.8773 136.634L53.0579 134.316L53.5788 132.241L51.3881 127.591L51.3596 127.541L51.3739 127.491L51.9233 124.446L51.9519 124.325L52.066 124.304L54.3352 123.926L52.2159 119.433L52.2016 119.405V119.376L52.166 119.005Z" fill="#F7CA60" fill-opacity="0.07" stroke="#F7CA60" stroke-width="0.568"/>
<path fill-rule="evenodd" clip-rule="evenodd" d="M-25.4434 229.838L-22.8246 229.795L-20.6838 233.425L-18.957 233.696L-18.8999 233.639L-18.3361 232.12L-18.3219 232.077L-18.2933 232.056L-15.232 229.189L-14.7539 227.014L-14.7468 226.964L-14.7183 226.936L-12.8701 224.896L-12.8059 224.825L-12.7131 224.846L-10.4082 225.31L-9.80879 224.369L-9.43773 222.707L-10.0728 220.988L-12.0352 220.24L-12.1137 220.204L-12.1351 220.126L-12.4277 219.056L-12.4491 218.97L-12.392 218.899L-11.4572 217.779L-11.1717 214.927L-11.1646 214.863L-11.1218 214.82L-7.82502 211.625L-7.70372 211.504L-7.5824 211.625L-5.74136 213.465L-5.64145 213.572L-5.72708 213.693L-6.73323 215.119L-5.44879 215.355L-5.4131 215.362L-5.37743 215.383L-2.04497 217.765L0.50251 217.387L0.559608 217.38L0.609566 217.409L3.00006 218.742L5.31921 218.835L8.46613 216.681L2.84307 212.474L2.81454 212.445L2.79314 212.41L0.0814972 207.083V207.075L-1.92368 202.604L-3.48643 202.233H-3.49355L-3.50784 202.226L-6.8046 200.871L-6.83315 200.857L-6.85455 200.836L-8.51006 199.274L-8.99531 200.579L-9.04525 200.693H-9.16656L-11.7997 200.6L-12.4205 201.313L-12.4419 201.335L-12.4705 201.349L-14.1189 202.219L-14.1759 202.248L-14.233 202.241L-15.5104 201.962L-16.3238 202.59L-16.3666 202.626H-16.4309H-18.0721H-18.1078L-18.1435 202.611L-20.2271 201.713L-21.1191 203.41L-21.1548 203.481L-21.2404 203.496L-24.1875 204.073L-26.0857 207.346L-26.1356 207.439L-26.2427 207.432L-31.4947 207.261L-32.929 210.292L-32.8362 213.237V213.372L-32.9646 213.415L-34.3633 213.8L-34.8414 216.139L-33.6497 218.899L-33.6425 218.913V218.928L-33.1502 220.753L-30.9381 221.423L-30.9024 221.438L-30.8738 221.466L-28.8258 223.32L-28.7759 223.37L-28.7688 223.442L-28.7117 225.353L-25.6932 227.984L-25.6433 228.027L-25.6361 228.098L-25.4434 229.824V229.838Z" fill="#F7CA60" fill-opacity="0.07" stroke="#F7CA60" stroke-width="0.568"/>
<path fill-rule="evenodd" clip-rule="evenodd" d="M-10.5649 147.965L-12.5844 147.994L-15.4887 150.568L-15.5315 150.611H-15.5957L-18.2217 150.746L-18.3216 150.753L-18.3787 150.668L-19.235 149.32L-23.4666 153.092L-24.1445 155.524L-24.1587 155.574L-24.1944 155.61L-28.6686 159.596L-33.5781 167.997L-32.5362 169.052L-32.5006 169.088L-32.4934 169.138L-31.9796 171.434L-28.6115 173.423L-28.5616 173.452L-28.5402 173.502L-26.5136 178.344L-26.4993 178.373V178.401L-26.4137 181.311V181.368L-26.4422 181.41L-28.162 183.814L-27.4698 187.522L-27.0345 189.725L-27.0131 189.804L-27.0702 189.868L-29.1182 192.343L-28.5616 193.776L-24.908 196.122L-24.8152 196.179L-24.8295 196.293L-25.3576 199.902L-25.5288 201.763L-24.2158 203.724L-21.3829 203.175L-20.4552 201.406L-20.3839 201.264L-20.234 201.328L-18.0433 202.283H-16.4877L-15.6599 201.642L-15.5957 201.592L-15.5172 201.606L-14.2256 201.884L-12.6629 201.057L-12.0064 200.308L-11.9493 200.244L-11.8708 200.251L-9.28049 200.344L-8.74529 198.91L-8.65252 198.668L-8.45987 198.846L-6.64021 200.565L-3.3934 201.898L-1.75929 202.283L-1.67366 202.305L-1.63799 202.383L0.388592 206.926L3.08596 212.217L8.77322 216.482L11.9059 214.692L12.2698 212.773L12.2841 212.702L12.3483 212.659L14.2464 211.426L14.3035 211.39L14.3606 211.397L16.6013 211.668L18.5494 205.435L18.5708 205.386L18.6136 205.35L21.368 203.26L21.4394 203.203L21.525 203.232L24.4721 204.088L24.5007 204.095L24.5221 204.109L28.4753 206.74L34.5051 206.833H34.5622L34.6122 206.869L38.8009 209.942L43.8388 207.047L43.9316 206.99L44.0244 207.054L46.6289 208.923L49.5832 208.552L52.8229 207.161L53.408 205.656L49.733 203.546L49.6474 203.496V203.396V198.811L47.4567 196.628L46.2864 196.536L46.2079 196.529L46.158 196.457L43.9316 193.213L40.9773 193.305H40.906L40.856 193.255L38.016 190.595L34.8905 192.892L34.8405 192.927L34.7763 192.92L30.7802 192.542H30.7445L30.7089 192.521L26.8055 190.139L26.7699 190.118L26.7484 190.082L24.5934 186.516L18.742 183.978L18.7135 183.963L18.6921 183.942L14.4676 180.091H9.67949H9.50109L9.50824 179.913L9.60098 176.839L8.40216 175.27L8.36649 175.228V175.171L8.18095 170.664L6.07587 168.018L-0.98148 167.64H-1.03858L-1.08852 167.597L-2.23026 166.549L-2.28021 166.499L-2.28736 166.428L-2.3801 163.468L-5.22018 161.265L-11.4498 160.794L-11.5497 160.787L-11.5925 160.694L-13.3051 157.086L-13.3479 156.993L-13.2837 156.908L-10.7505 153.342L-10.5649 147.965Z" fill="#F7CA60" fill-opacity="0.07" stroke="#F7CA60" stroke-width="0.568"/>
<path fill-rule="evenodd" clip-rule="evenodd" d="M-43.2688 122L-46.7011 126.429L-45.5023 128.283L-45.4452 128.369L-45.4952 128.461L-46.273 129.902L-45.7092 132.255L-45.6807 132.376L-45.7949 132.448L-47.9784 133.71L-48.0712 133.767L-48.1568 133.71L-50.9969 131.891L-53.7085 132.005L-53.8512 132.013L-53.8798 131.87L-54.3294 129.859L-61.1584 124.603L-61.9148 125.737L-60.0166 128.868L-59.981 128.925L-59.9952 128.989L-60.5661 131.642L-60.5804 131.692L-60.616 131.727L-62.2501 133.36L-61.508 134.623L-61.4937 134.658L-61.4866 134.701L-61.3724 136.077L-61.3582 136.256L-61.5366 136.263L-64.2196 136.377L-66.3319 139.151L-66.4318 140.82L-63.8985 141.868L-62.8282 140.584L-62.7996 140.549L-62.7497 140.534L-60.3306 139.729L-60.1879 139.679L-60.1237 139.814L-58.6251 142.809L-58.5609 142.93L-58.6751 143.023L-64.2553 147.459L-64.3695 149.919V149.997L-64.4337 150.047L-66.3961 151.545L-66.4746 151.602L-66.5673 151.566L-69.0007 150.568L-70.7561 151.994L-75.951 157.792L-75.4372 159.004L-75.4229 159.04V159.075V162.926L-74.5809 163.604L-72.4116 161.165L-72.3331 161.079L-72.2189 161.122L-65.654 163.654L-63.3633 162.605L-62.0718 159.425L-62.0289 159.304L-61.9005 159.318L-57.5405 159.732L-57.4763 159.739L-57.4263 159.789L-54.2009 163.425L-50.6687 165.258L-45.7092 165.8L-43.7469 164.723L-43.647 164.666L-43.5542 164.745L-38.2023 169.13L-34.9127 169.594L-28.9543 159.396L-28.94 159.375L-28.9186 159.361L-24.4658 155.389L-23.7879 152.95L-23.7736 152.9L-23.7379 152.864L-19.3137 148.928L-19.1639 148.792L-19.0497 148.963L-18.1363 150.397L-15.6744 150.268L-12.763 147.694L-12.713 147.651H-12.656L-8.18177 147.58L-4.92782 144.884L-4.87786 144.849H-4.82079L1.57294 144.563L3.24986 142.61L3.27841 142.574L3.32837 142.56L5.85445 141.718L7.36012 139.393L6.37537 136.163L6.35397 136.092L6.38964 136.027L7.56707 133.945L6.33256 133.717L5.53335 134.915L5.48339 134.993H5.39062H3.87782L1.91547 136.819L1.85124 136.876L1.75848 136.855L-0.582085 136.306L-2.38031 138.381L-2.43027 138.438L-2.50163 138.445L-7.81786 138.873L-7.88207 138.88L-7.93201 138.844L-31.0094 122.371L-33.2286 123.063L-33.2572 123.077L-33.2928 123.07L-43.2688 122Z" fill="#F7CA60" fill-opacity="0.07" stroke="#F7CA60" stroke-width="0.568"/>
<path fill-rule="evenodd" clip-rule="evenodd" d="M9.96474 127.22L8.18792 123.954L3.53533 118.927H-0.00405121L-0.475021 120.981L-0.567791 124.047L-3.0796 125.537L-4.47823 125.259L-5.4059 126.657L-7.17558 125.259L-5.12759 123.398V121.351L-11.7425 121.259L-15.0036 118.834L-20.0344 119.305L-21.8041 116.88L-18.8213 116.602L-17.2371 113.528L-21.2475 112.601L-23.11 114.833L-24.0376 113.158L-34.2847 110.647L-35.5906 111.952L-37.082 110.555L-42.4838 113.714L-45.2739 111.018L-44.439 108.601L-45.2739 106.176L-41.9201 105.064L-38.8445 107.203L-37.3603 104.778L-37.453 100.407L-41.549 95.9358L-42.7621 100.314L-48.3495 103.944L-48.8133 106.732L-51.4821 109.143L-50.4403 114.726L-47.5074 119.119L-44.8172 119.454L-44.7387 119.469L-44.6959 119.533L-43.2473 121.651L-33.2928 122.721L-31.0308 122.015L-30.9451 121.986L-30.8738 122.036L-7.78213 138.523L-2.60149 138.103L-0.774715 135.999L-0.710495 135.92L-0.603458 135.949L1.75136 136.498L3.69232 134.694L3.74228 134.651H3.81364H5.29789L6.11138 133.432L6.1756 133.339L6.28264 133.36L7.7455 133.624L8.93003 131.52L7.68126 129.303L7.61704 129.181L7.72409 129.089L9.96474 127.22Z" fill="#F7CA60" fill-opacity="0.07" stroke="#F7CA60" stroke-width="0.568"/>
<path fill-rule="evenodd" clip-rule="evenodd" d="M-2.14477 107.56L-1.26706 99.2875L-0.61769 96.1355L2.10819 93.1975L5.37642 92.1064L6.68228 90.2594L5.91873 87.9703L8.30925 89.4964L10.4928 89.2753L11.0352 87.6422L12.4481 87.7563L12.5622 86.1233L14.3034 86.7722L14.6316 85.1392L15.9375 86.5583L16.9151 85.2533L17.2434 83.2922L19.0915 84.5972L20.2904 83.5061L22.795 84.0553L24.8644 81.6592L40.7631 81.3311L44.5737 79.2631L45.009 76.432L43.382 74.4781L39.5643 75.455L38.9149 76.867L32.3785 76.325L29.5456 73.929L27.0409 75.3481L24.5362 74.257L21.3821 76.325H18.7704L17.4646 77.4161L15.7163 75.562L14.8457 79.3772L12.8833 79.4842L12.6693 81.0031L7.76694 82.5292L6.02579 81.7661L4.934 83.0711L6.35403 84.4903L4.39167 86.3372L1.23049 85.0322L0.795196 87.4283L-1.48827 87.3213L-1.59532 89.1683L-4.7565 90.8014L-6.71172 90.1453L-8.89529 91.7783L-9.00232 94.1744L-6.93293 96.2425L-6.82589 99.3945L-8.78111 101.356L-7.26117 104.729L-5.52004 104.95L-5.40586 106.469L-3.45062 106.904L-2.14477 107.56Z" fill="#F7CA60" fill-opacity="0.07" stroke="#F7CA60" stroke-width="0.568"/>
<path fill-rule="evenodd" clip-rule="evenodd" d="M41.3698 45.8892L42.5258 46.9732L44.1171 45.604L43.325 44.4487L42.1618 44.734L41.3698 45.8892Z" fill="#F7CA60" fill-opacity="0.07" stroke="#F7CA60" stroke-width="0.568"/>
<path fill-rule="evenodd" clip-rule="evenodd" d="M43.8958 46.8305L44.7663 47.5507L46.2863 46.7592L46.7216 44.9479L45.5584 44.6626L43.8958 46.8305Z" fill="#F7CA60" fill-opacity="0.07" stroke="#F7CA60" stroke-width="0.568"/>
<path fill-rule="evenodd" clip-rule="evenodd" d="M48.0201 46.6092L49.5329 47.9856L52.5728 46.4666L51.9948 44.7337L49.8968 43.8708L48.0914 45.3827L48.0201 46.6092Z" fill="#F7CA60" fill-opacity="0.07" stroke="#F7CA60" stroke-width="0.568"/>
<path fill-rule="evenodd" clip-rule="evenodd" d="M51.267 43.3646L52.5728 44.0135L53.4363 43.0009L52.3516 41.9883L51.267 43.3646Z" fill="#F7CA60" fill-opacity="0.07" stroke="#F7CA60" stroke-width="0.568"/>
<path fill-rule="evenodd" clip-rule="evenodd" d="M56.9827 39.7491L57.4109 41.1254L58.7167 40.6191L58.2101 38.9575L56.9827 39.7491Z" fill="#F7CA60" fill-opacity="0.07" stroke="#F7CA60" stroke-width="0.568"/>
<path fill-rule="evenodd" clip-rule="evenodd" d="M52.6443 36.3547L53.365 37.0036L54.3069 36.2834L52.9297 34.9855L52.209 35.5631L52.6443 36.3547Z" fill="#F7CA60" fill-opacity="0.07" stroke="#F7CA60" stroke-width="0.568"/>
<path fill-rule="evenodd" clip-rule="evenodd" d="M48.741 37.2246L48.9551 38.3086L50.4036 39.2428L51.2671 37.9449L50.475 36.3546L48.741 37.2246Z" fill="#F7CA60" fill-opacity="0.07" stroke="#F7CA60" stroke-width="0.568"/>
<path fill-rule="evenodd" clip-rule="evenodd" d="M45.9221 38.3799L48.6694 40.833L48.3055 42.9296L45.5582 41.9883L43.7528 39.8988L45.9221 38.3799Z" fill="#F7CA60" fill-opacity="0.07" stroke="#F7CA60" stroke-width="0.568"/>
<path fill-rule="evenodd" clip-rule="evenodd" d="M53.5864 46.2529L53.9432 47.8431L56.9831 47.7718L58.2105 45.7465L57.1972 44.085L55.8984 45.9605L53.9432 45.4613L53.5864 46.2529Z" fill="#F7CA60" fill-opacity="0.07" stroke="#F7CA60" stroke-width="0.568"/>
<path fill-rule="evenodd" clip-rule="evenodd" d="M45.2733 49.8609L46.0653 51.0161L46.7932 50.082L46.0653 48.8483L45.2733 49.8609Z" fill="#F7CA60" fill-opacity="0.07" stroke="#F7CA60" stroke-width="0.568"/>
<path fill-rule="evenodd" clip-rule="evenodd" d="M37.7587 41.9169L38.986 44.0135L40.4275 42.6372L39.7067 40.9043L37.7587 41.9169Z" fill="#F7CA60" fill-opacity="0.07" stroke="#F7CA60" stroke-width="0.568"/>
<path fill-rule="evenodd" clip-rule="evenodd" d="M41.2985 41.268L41.5839 42.4945L42.3831 41.9169L41.7337 40.5477L41.2985 41.268Z" fill="#F7CA60" fill-opacity="0.07" stroke="#F7CA60" stroke-width="0.568"/>
<path fill-rule="evenodd" clip-rule="evenodd" d="M39.9995 34.4077L40.9342 35.7056L41.8048 34.8427L40.3562 33.5377L39.9995 34.4077Z" fill="#F7CA60" fill-opacity="0.07" stroke="#F7CA60" stroke-width="0.568"/>
<path fill-rule="evenodd" clip-rule="evenodd" d="M31.4718 31.8049L31.8999 33.5378L33.2058 34.5504L35.0825 34.4078L36.2385 35.3491L36.9593 34.4791L35.5178 33.1813L34.212 33.5735L31.4718 31.8049Z" fill="#F7CA60" fill-opacity="0.07" stroke="#F7CA60" stroke-width="0.568"/>
<path fill-rule="evenodd" clip-rule="evenodd" d="M31.829 36.212L31.6863 37.7309L33.0564 39.1001L34.4336 40.833L34.8617 40.0414L34.505 38.3799L36.3817 37.9449L38.7651 38.7435L40.285 37.2246L38.9149 35.6343L37.7589 35.1993L36.5244 36.1407L34.8617 36.3546L33.8556 36.7896L31.829 36.212Z" fill="#F7CA60" fill-opacity="0.07" stroke="#F7CA60" stroke-width="0.568"/>
<path fill-rule="evenodd" clip-rule="evenodd" d="M34.7906 41.9169L34.5051 42.9295L35.5898 43.5784L35.6611 42.2093L34.7906 41.9169Z" fill="#F7CA60" fill-opacity="0.07" stroke="#F7CA60" stroke-width="0.568"/>
<path fill-rule="evenodd" clip-rule="evenodd" d="M101.076 282.274L108.975 285.455L116.239 287.137L117.731 292.907L123.04 295.695L126.765 295.602L132.074 292.436L136.17 293.741L140.451 293.463L141.572 295.417L144.041 295.524L144.847 292.536L144.868 292.464L144.933 292.429L147.295 291.188L144.761 288.428L144.64 288.293L144.783 288.179L147.252 286.182L146.317 283.365L146.238 283.137H146.481H151.176L154.059 280.734L154.116 280.684L154.195 280.698L156.778 281.047L161.602 274.665L161.645 274.601L161.723 274.594L164.813 274.358L165.741 272.847L165.776 272.797L165.826 272.775L168.474 271.698L170.486 269.21L170.714 266.557L168.602 265.152L168.524 265.102V265.009V262.442V262.357L168.595 262.307L173.198 258.798L174.768 255.175L174.796 255.104L174.867 255.083L178.892 253.664L178.664 250.447L176.188 248.208L173.433 247.73L173.333 247.709L173.298 247.609L170.993 240.699L169.558 239.387L169.444 239.287L169.537 239.159L170.964 237.141L170.764 235.158L169.073 237.062L169.009 237.126L168.916 237.112L167.482 236.898L166.668 240.036L166.647 240.136L166.547 240.164L158.855 242.232L158.74 242.268L158.669 242.168L157.377 240.414H155.636H155.594L155.551 240.392L153.888 239.501L152.989 241.648L152.953 241.719L152.882 241.747L149.221 242.967L149.164 242.981L149.107 242.967L147.216 242.297L146.766 244.422L146.745 244.543L146.624 244.557L142.899 245.028L143.22 246.853L145.489 248.765L145.625 248.879L145.511 249.014L143.591 251.289L143.234 254.733L144.476 257.636L144.669 257.058L145.432 252.323V252.294L145.446 252.266L146.688 250.077L146.745 249.977L146.859 249.991L148.472 250.184L148.6 250.198L148.622 250.326L148.907 252.13L148.914 252.166L148.907 252.187L148.151 256.445L148.436 260.588L149.093 262.849L149.114 262.906L149.093 262.963L148.236 265.152L148.222 265.188L148.194 265.216L146.881 266.428L146.452 267.199L146.909 268.646L146.923 268.703L146.902 268.76L146.331 270.187L146.296 270.272L146.21 270.294L144.818 270.643L144.726 272.226V272.269L144.704 272.305L142.892 275.25L142.856 275.307L142.799 275.328L140.094 276.163L138.318 278.587L138.261 278.673L138.168 278.659L136.134 278.48L135.592 281.561L135.585 281.611L135.556 281.646L134.029 283.358L134.008 283.386L133.972 283.401L129.098 285.554L128.456 287.758L128.427 287.843L128.342 287.872L125.202 288.92L125.024 288.977L124.981 288.799L124.531 287.002L121.22 286.36L121.092 286.332L121.077 286.203L120.799 283.786L118.501 280.848H115.447H115.39L115.34 280.812L108.968 275.77L108.946 275.756L108.939 275.735L106.948 273.025L103.752 275.3L103.709 275.335H103.652L101.832 275.293L101.918 275.692L101.946 275.785L101.875 275.856L100.897 276.833L101.254 278.252L101.275 278.345L101.218 278.409L99.8696 279.942L101.076 282.274Z" fill="#F7CA60" fill-opacity="0.07" stroke="#F7CA60" stroke-width="0.568"/>
<path fill-rule="evenodd" clip-rule="evenodd" d="M56.0053 295.731L67.9864 291.231L72.2751 290.953L73.0172 292.065L79.4466 293.463L79.9104 296.351L82.3366 297.556L89.13 298.305L91.8345 298.676L93.2331 299.981L95.3738 299.232L97.3291 297.556L98.7277 294.119L96.4014 291.323L96.6797 287.045L98.1711 286.574L98.2639 284.62L100.219 284.527L100.761 282.431L99.5055 279.992L99.4484 279.885L99.5269 279.799L100.897 278.252L100.54 276.819L100.512 276.726L100.583 276.655L101.561 275.678L101.332 274.679L98.5279 274.858L98.4708 274.865L98.4208 274.829L91.4063 269.937L90.9853 271.87L90.9567 271.998L90.8283 272.005L82.2938 272.761L81.7586 275.007L81.7301 275.114L81.6302 275.143L79.9675 275.578L80.1459 277.14L80.1531 277.246L80.0674 277.304L77.7626 278.773L77.6698 280.306L77.6626 280.434L77.5342 280.463L75.9572 280.833L73.1385 283.18L73.0814 283.23L73.0029 283.222L66.4451 282.367L66.4023 282.36L66.3666 282.338L62.3348 279.5L60.4795 279.357L59.2807 282.516L59.2379 282.616L59.1237 282.631L54.464 282.93L54.7565 286.146L57.5467 291.11L57.6252 291.245L57.4967 291.338L55.5558 292.678L56.0053 295.731Z" fill="#F7CA60" fill-opacity="0.07" stroke="#F7CA60" stroke-width="0.568"/>
<path fill-rule="evenodd" clip-rule="evenodd" d="M30.1237 286.26L30.4519 289.462L33.4347 291.138L33.5275 294.304L36.5103 294.953L37.7233 296.444L41.0772 294.675L41.7266 297L43.8673 300.166L47.2212 300.537L48.2416 298.305L52.7158 298.119L55.6772 295.916L55.1919 292.621L55.1777 292.514L55.2704 292.45L57.1685 291.138L54.4355 286.282L54.4141 286.253V286.217L54.1287 283.094L51.7239 284.934L51.5883 285.041L51.4813 284.905L49.2977 282.096L49.2477 282.031L49.2691 281.953L50.0327 278.601L48.8053 277.204L45.0804 277.097V277.147L44.9448 277.175L42.6043 277.646L42.5258 277.66L42.4616 277.61L40.5277 276.091L40.3993 277.646L40.3922 277.689L40.3708 277.724L38.494 280.534L38.4369 280.62L38.337 280.612L34.9404 280.306L32.2145 281.211L31.1156 282.723L32.8067 283.572L32.8781 283.607L32.8995 283.686L33.3705 285.711L33.4133 285.897L33.2206 285.918L30.1237 286.26ZM50.2682 278.352L52.3304 277.61L53.8504 276.854L56.4121 274.294L55.827 272.682L55.8056 272.633L55.8199 272.583L56.2766 270.75L55.6629 268.297L55.6415 268.211L55.6914 268.147L57.3898 265.986L58.2603 263.369L55.7628 262.485L55.6772 262.456L55.6486 262.371L55.1777 260.809L55.1491 260.723L55.1991 260.652L57.1685 258.078L56.1125 255.518L56.091 255.468L56.1053 255.418L56.5763 253.393L56.5977 253.307L56.6762 253.271L59.3022 252.038L60.6009 250.747L57.8465 245.399L57.8179 245.341L57.8322 245.284L58.2318 243.43L55.2633 244.7L55.1919 244.728L55.1206 244.7L51.2601 243.002L46.843 243.609L45.166 245.584L45.1161 245.648H45.0376L40.4992 245.627L40.4064 257.842L42.0548 257.629L42.2261 257.607L42.2475 257.778L42.5543 260.217L44.8592 262.67L44.8877 262.699L44.902 262.727L45.6656 264.86L47.8063 266.386L47.9562 266.493L47.8349 266.635L46.215 268.546L47.5209 269.994L47.5851 270.065L47.5637 270.158L46.9429 272.654L46.9286 272.718L46.8715 272.754L45.2303 273.802L45.0947 276.726L48.8838 276.84H48.9623L49.0123 276.897L50.2682 278.352Z" fill="#F7CA60" fill-opacity="0.07" stroke="#F7CA60" stroke-width="0.568"/>
<path fill-rule="evenodd" clip-rule="evenodd" d="M6.5752 258.57L11.0779 280.149L13.497 279.778L15.1739 277.36L16.7581 278.009L17.229 280.527L22.3454 283.315L26.3558 281.825L28.4965 282.759L30.0308 285.925L32.9779 285.583L32.5711 283.821L30.7729 282.923L30.5873 282.83L30.7087 282.666L31.9574 280.947L31.9931 280.905L32.0431 280.883L34.8546 279.949L34.8903 279.935L34.926 279.942L38.2584 280.241L40.0495 277.553L40.2065 275.727L40.2279 275.406L40.4848 275.606L42.6041 277.275L44.7378 276.847L44.8876 273.709L44.8948 273.617L44.9661 273.567L46.6288 272.511L47.2139 270.172L45.8724 268.682L45.7653 268.568L45.8652 268.454L47.4636 266.564L45.4299 265.116L45.3871 265.088L45.3657 265.031L44.595 262.884L42.283 260.41L42.2402 260.367L42.2331 260.317L41.9405 257.992L40.3278 258.199L38.237 260.096L38.1799 260.146L38.1014 260.139L34.1053 259.761L32.8994 260.688L32.7923 260.766L32.6853 260.688L31.4437 259.718L27.9685 263.091L27.8472 263.212L27.733 263.091L25.0214 260.481L24.9786 260.445L24.9714 260.395L24.4933 258.399L22.2669 255.432L13.0831 258.584L13.0189 258.605L12.9618 258.577L11.0137 257.743L10.1217 258.37L10.0289 258.434L9.92906 258.37L8.46619 257.457L6.5752 258.57Z" fill="#F7CA60" fill-opacity="0.07" stroke="#F7CA60" stroke-width="0.568"/>
<path fill-rule="evenodd" clip-rule="evenodd" d="M-0.446716 249.421L4.36999 249.528L2.41477 251.574L6.45364 258.242L8.38748 257.108L8.4731 257.058L8.56587 257.108L10.0145 258.021L10.8921 257.408L10.9707 257.351L11.0563 257.386L13.0329 258.235L22.2738 255.061L22.388 255.019L22.4665 255.118L24.7928 258.221L24.8142 258.249L24.8214 258.285L25.2923 260.267L27.847 262.727L31.315 259.362L31.422 259.255L31.5433 259.347L32.7921 260.331L33.941 259.447L33.9981 259.404L34.0694 259.411L38.0584 259.789L40.0778 257.957L40.1706 245.62H38.5721L36.2958 247.517L36.1531 247.631L36.046 247.488L35.0756 246.226L35.0328 246.176L35.0399 246.112L35.3182 241.448L28.6176 241.263L28.5177 241.255L28.4749 241.17L27.2618 238.938L23.7866 239.038H23.6511L23.6154 238.909L22.9446 236.42L20.7611 233.575L9.0297 227.999V231.792V231.892L8.94407 231.942L6.73195 233.233L7.38132 235.722L7.4384 235.95L7.20292 235.936L4.33432 235.743L2.10079 236.677L0.802059 239.002L1.08749 245.727V245.762L1.07322 245.805L-0.446716 249.421Z" fill="#F7CA60" fill-opacity="0.07" stroke="#F7CA60" stroke-width="0.568"/>
<path fill-rule="evenodd" clip-rule="evenodd" d="M-18.5858 233.782L-17.2371 234.167L-17.1443 236.592L-17.9864 237.519L-17.4226 239.194L-19.2851 241.334L-18.914 242.917L-14.9108 243.851L-14.7253 245.99L-12.7701 246.083L-11.2787 246.454L-9.78727 248.13L-11.928 249.898V251.389L-9.78727 250.74L-7.92483 251.76L-6.2479 251.389L-4.84927 250.184L-0.838903 249.449L0.738113 245.705L0.452684 238.966V238.916L0.474091 238.874L1.8299 236.456L1.85845 236.399L1.91553 236.378L4.24182 235.408L4.27749 235.394H4.3203L6.98199 235.572L6.36829 233.19L6.33262 233.069L6.4468 232.997L8.68744 231.692V222.279L7.08902 220.582L6.98199 220.475L7.08188 220.354L8.77307 218.279L8.62323 216.995L5.46919 219.156L5.42638 219.191L5.36928 219.184L2.94309 219.085H2.90028L2.86458 219.063L0.495497 217.737L-2.06627 218.122L-2.13051 218.129L-2.18759 218.086L-5.54857 215.69L-7.06137 215.405L-7.32542 215.355L-7.16843 215.134L-6.09091 213.608L-7.71074 211.996L-10.8362 215.027L-11.1217 217.865L-11.1288 217.922L-11.1574 217.958L-12.0708 219.056L-11.8281 219.947L-9.8729 220.689L-9.80156 220.718L-9.77301 220.796L-9.09509 222.636L-9.08083 222.679L-9.08797 222.729L-9.47329 224.469L-9.48044 224.504L-9.50184 224.526L-10.1798 225.595L-10.244 225.695L-10.3582 225.667L-12.6844 225.203L-14.4256 227.128L-14.9037 229.311L-14.9108 229.368L-14.9536 229.403L-18.0221 232.277L-18.5858 233.782Z" fill="#F7CA60" fill-opacity="0.07" stroke="#F7CA60" stroke-width="0.568"/>
<path fill-rule="evenodd" clip-rule="evenodd" d="M46.436 209.208L43.9099 207.403L38.872 210.299L38.7721 210.349L38.6865 210.284L34.4478 207.182L28.418 207.09L28.3609 207.082L28.3252 207.061L24.3505 204.408L21.5104 203.588L18.863 205.592L16.8864 211.91L16.8436 212.046L16.7009 212.031L14.3817 211.746L12.5978 212.909L12.2338 214.834L12.2124 214.912L12.1482 214.955L8.95133 216.781L9.12973 218.314L9.13687 218.385L9.08692 218.442L7.44568 220.453L8.98703 222.086L9.02984 222.136V222.208V227.613L20.9467 233.282L20.9824 233.297L21.0109 233.332L23.2373 236.235L23.2587 236.263L23.273 236.299L23.9152 238.681L27.3619 238.588H27.4689L27.5188 238.681L28.7319 240.92L35.511 241.105L35.6894 241.112L35.6751 241.291L35.3897 246.069L36.2103 247.131L38.3939 245.313L38.4438 245.27H38.5081H40.3491H40.5204L44.9803 245.291L46.6501 243.33L46.6929 243.273L46.7571 243.266L51.2812 242.646L51.3312 242.639L51.374 242.66L55.2131 244.343L58.3243 243.009L58.4742 239.843L58.4813 239.758L58.5384 239.715L61.7781 237.247L62.1848 235.75L59.3733 234.866L59.3376 234.851L59.302 234.823L57.2754 232.79L57.2325 232.748L57.2254 232.691L56.9114 230.038L56.9043 229.945L56.9757 229.888L60.5079 226.814L60.6506 225.017L58.3172 224.725L58.2173 224.718L58.1816 224.632L55.5628 219.248L46.6001 217.858L46.4503 217.836V217.687V215.191V215.134L46.4859 215.084L47.6776 213.593L46.436 209.208Z" fill="#F7CA60" fill-opacity="0.07" stroke="#F7CA60" stroke-width="0.568"/>
<path fill-rule="evenodd" clip-rule="evenodd" d="M57.9963 253.043L56.9259 253.55L56.4835 255.439L57.561 258.042L57.5967 258.135L57.5325 258.213L55.5559 260.795L55.9769 262.186L58.5458 263.098L58.7099 263.155L58.6528 263.312L57.718 266.122L57.7109 266.15L57.6895 266.172L56.0268 268.297L56.6263 270.707L56.6405 270.75L56.6263 270.793L56.1767 272.611L56.7761 274.28L56.8189 274.387L56.7404 274.458L54.0859 277.111L54.0645 277.133L54.0431 277.147L52.4803 277.924L52.466 277.931L52.4589 277.938L50.361 278.687L49.6188 281.946L51.6526 284.549L54.1715 282.631L54.4213 282.438L54.4355 282.581L58.9953 282.288L60.2013 279.115L60.2513 278.994L60.3797 279.008L62.2921 279.151L63.6408 276.298L63.6765 276.234L63.7407 276.205L66.174 275.293L66.909 273.674V271.841V271.741L67.0018 271.691L69.2424 270.493L69.0926 268.596L68.1649 265.808L68.1578 265.794V265.787L67.6939 263.17L65.6888 260.075L65.6317 259.996L65.6745 259.911L66.5451 258.014L65.0109 257.037L62.4134 257.343H62.4063H62.392H59.5876H59.4592L59.4235 257.229L57.9963 253.043Z" fill="#F7CA60" fill-opacity="0.07" stroke="#F7CA60" stroke-width="0.568"/>
<path fill-rule="evenodd" clip-rule="evenodd" d="M53.7361 114.905L55.3202 116.973L56.4263 116.488L56.0909 113.607L54.9849 113.036L53.7361 114.905Z" fill="#F7CA60" fill-opacity="0.07" stroke="#F7CA60" stroke-width="0.568"/>
<path fill-rule="evenodd" clip-rule="evenodd" d="M58.153 101.798L58.9736 102.853L59.837 101.94L59.4517 100.5L58.3456 100.835L58.153 101.798Z" fill="#F7CA60" fill-opacity="0.07" stroke="#F7CA60" stroke-width="0.568"/>
<path fill-rule="evenodd" clip-rule="evenodd" d="M88.5231 50.9094L92.0126 51.5441L91.1991 48.9341L88.7586 48.9911L88.5231 50.9094Z" fill="#F7CA60" fill-opacity="0.07" stroke="#F7CA60" stroke-width="0.568"/>
<path fill-rule="evenodd" clip-rule="evenodd" d="M91.4352 57.4702L93.3476 54.9101L92.8838 52.6495L94.7391 51.4301L96.6016 49.5688L98.6924 51.4301L99.8555 54.739L100.555 56.1937L98.6353 57.2349V59.032L93.8685 61.1856L91.4352 58.9749V57.4702Z" fill="#F7CA60" fill-opacity="0.07" stroke="#F7CA60" stroke-width="0.568"/>
<path fill-rule="evenodd" clip-rule="evenodd" d="M89.6865 60.3154L93.3472 61.706L92.8263 63.446L91.1423 64.3731L88.7018 62.6901L88.295 61.0642L89.6865 60.3154Z" fill="#F7CA60" fill-opacity="0.07" stroke="#F7CA60" stroke-width="0.568"/>
<path fill-rule="evenodd" clip-rule="evenodd" d="M92.9403 66.1204L94.5673 62.1126L99.0415 59.902L99.855 62.9826L101.018 62.6332L101.189 61.2997L103.223 63.275L103.052 65.8851L101.539 68.3239L102.816 69.8357L102.467 72.0963L100.84 72.9663L97.5287 70.7057L94.5673 68.1528L92.8832 67.3969L92.9403 66.1204Z" fill="#F7CA60" fill-opacity="0.07" stroke="#F7CA60" stroke-width="0.568"/>
<path fill-rule="evenodd" clip-rule="evenodd" d="M104.615 68.3807L104.215 73.6079L102.238 77.2091L102.995 79.9333L106.242 77.3232L109.674 77.0879L111.472 75.2909L111.708 71.112L109.788 68.6731L108.161 70.299L107.29 69.372L107.405 66.8689L104.615 68.3807Z" fill="#F7CA60" fill-opacity="0.07" stroke="#F7CA60" stroke-width="0.568"/>
<path fill-rule="evenodd" clip-rule="evenodd" d="M114.205 75.9328L114.491 77.3234L117.052 77.901L116.931 76.9169L114.376 75.348L114.205 75.9328Z" fill="#F7CA60" fill-opacity="0.07" stroke="#F7CA60" stroke-width="0.568"/>
<path fill-rule="evenodd" clip-rule="evenodd" d="M94.8026 86.3801L96.137 87.3642L97.1218 86.7866L96.4296 85.3318L94.8026 86.3801Z" fill="#F7CA60" fill-opacity="0.07" stroke="#F7CA60" stroke-width="0.568"/>
<path fill-rule="evenodd" clip-rule="evenodd" d="M83.0071 84.4616L84.6912 85.3887L84.8053 84.0552L83.7064 82.7787L82.8929 83.4775L83.0071 84.4616Z" fill="#F7CA60" fill-opacity="0.07" stroke="#F7CA60" stroke-width="0.568"/>
<path fill-rule="evenodd" clip-rule="evenodd" d="M93.4045 90.0382L94.0467 90.7299L94.8602 89.974L93.9325 88.9899L93.4045 90.0382Z" fill="#F7CA60" fill-opacity="0.07" stroke="#F7CA60" stroke-width="0.568"/>
<path fill-rule="evenodd" clip-rule="evenodd" d="M65.0249 107.56L66.3236 108.758L67.1871 107.895L66.8517 106.547L65.7456 106.262L65.0249 107.56Z" fill="#F7CA60" fill-opacity="0.07" stroke="#F7CA60" stroke-width="0.568"/>
<path fill-rule="evenodd" clip-rule="evenodd" d="M68.1505 109.093L68.8712 109.628L69.3493 108.715L68.5358 107.802L68.1505 109.093Z" fill="#F7CA60" fill-opacity="0.07" stroke="#F7CA60" stroke-width="0.568"/>
<path fill-rule="evenodd" clip-rule="evenodd" d="M70.0203 105.591L70.741 106.069L71.1763 105.256L70.0702 104.536L70.0203 105.591Z" fill="#F7CA60" fill-opacity="0.07" stroke="#F7CA60" stroke-width="0.568"/>
<path fill-rule="evenodd" clip-rule="evenodd" d="M71.319 103.673L72.1396 104.294L72.9032 103.188L71.6544 102.276L70.9836 102.76L71.319 103.673Z" fill="#F7CA60" fill-opacity="0.07" stroke="#F7CA60" stroke-width="0.568"/>
<path fill-rule="evenodd" clip-rule="evenodd" d="M65.5029 97.0411L66.4163 97.6686L67.765 96.8486L66.9943 95.5079L65.8454 95.1727L64.7394 96.1283L65.5029 97.0411Z" fill="#F7CA60" fill-opacity="0.07" stroke="#F7CA60" stroke-width="0.568"/>
<path fill-rule="evenodd" clip-rule="evenodd" d="M68.3859 92.3347L68.0505 93.1548L68.7713 94.1603L69.5419 93.3473L69.5919 92.4346L68.3859 92.3347Z" fill="#F7CA60" fill-opacity="0.07" stroke="#F7CA60" stroke-width="0.568"/>
<path fill-rule="evenodd" clip-rule="evenodd" d="M66.2169 59.2886L66.01 60.3797L67.1303 61.5135L68.7145 61.5492L68.6431 60.1372L67.5514 58.6896L66.2169 59.2886Z" fill="#F7CA60" fill-opacity="0.07" stroke="#F7CA60" stroke-width="0.568"/>
<path fill-rule="evenodd" clip-rule="evenodd" d="M73.2528 50.8024L74.7299 51.2588L76.3497 50.838L75.4007 48.7272L74.2018 47.7716L73.3598 48.5846L73.1814 49.9181L73.2528 50.8024Z" fill="#F7CA60" fill-opacity="0.07" stroke="#F7CA60" stroke-width="0.568"/>
<path fill-rule="evenodd" clip-rule="evenodd" d="M133.501 187.386L132.373 188.634L132.338 188.677L132.281 188.691L129.605 189.255L127.178 190.331L127.314 193.02L128.013 194.831L128.042 194.903L128.013 194.967L126.636 197.997L128.006 200.187L128.028 200.222V200.265L128.313 203.524L128.32 203.574L128.299 203.617L126.172 207.724L126.151 207.767L126.108 207.789L122.569 209.971L123.896 212.231L123.953 212.331L123.882 212.424L122.376 214.478L123.175 217.145L126.208 218.107L126.301 218.136L126.322 218.236L126.75 220.218L126.772 220.304L126.707 220.368L124.481 222.728L124.353 224.369L125.773 224.754L125.858 224.775L125.887 224.861L126.593 226.986L126.629 227.086L126.55 227.164L124.881 228.833L124.181 231.336L124.124 231.557L123.932 231.443L120.813 229.603L120.77 229.574L120.749 229.524L119.265 226.28L116.389 227.585L115.975 230.323L115.968 230.38L115.932 230.416L109.603 237.305L109.881 240.485L109.888 240.613L109.767 240.663L108.069 241.369L107.919 241.434L107.847 241.284L105.414 236.021L103.744 238.203L103.694 238.267H103.616L97.0509 238.545L94.4534 243.33L97.3791 247.923L97.4148 247.98L97.4005 248.051L96.8368 250.604L96.8082 250.726L96.6869 250.74L93.7969 251.153L92.1557 254.298L91.5919 262.763L91.5777 262.941L91.3993 262.92L88.6091 262.642L86.6254 263.562V265.216L91.3993 269.488L98.5708 274.487L101.461 274.301L101.611 274.294L101.639 274.458L101.753 274.943L103.602 274.986L106.884 272.64L107.027 272.54L107.127 272.675L109.203 275.506L115.504 280.491H118.587H118.672L118.722 280.555L121.099 283.6L121.127 283.636L121.134 283.686L121.406 286.032L124.702 286.674L124.809 286.695L124.838 286.802L125.266 288.521L128.142 287.565L128.72 285.59H125.716H125.609L125.559 285.49L124.895 284.064L124.831 283.921L124.966 283.843L126.393 282.987L126.422 282.966L126.458 282.959L128.413 282.68L132.345 279.963L133.751 277.803L133.765 277.781L133.786 277.767L136.698 275.136L137.347 273.182L137.354 273.16L137.361 273.146L139.074 270.201L139.081 270.194L141.165 266.978L142.963 262.057L144.305 258.106L142.899 254.805L142.884 254.762L142.892 254.719L143.256 251.182L143.263 251.132L143.298 251.089L145.139 248.907L142.949 247.067L142.899 247.024L142.892 246.967L142.528 244.892L142.492 244.714L142.678 244.693L146.46 244.222L146.923 242.025L146.966 241.833L147.152 241.897L149.171 242.61L152.703 241.434L153.652 239.187L153.724 239.016L153.888 239.109L155.679 240.064H157.47H157.556L157.606 240.136L158.876 241.869L166.354 239.85L167.182 236.656L167.225 236.506L167.382 236.527L168.88 236.756L170.771 234.63L171.035 234.338L171.078 234.73L171.307 237.041L175.866 237.74L178.549 235.878L178.664 232.398L175.809 230.38L175.738 230.33V230.245L175.495 225.852L175.488 225.759L175.56 225.702L177.144 224.483L177.187 224.447H177.244L181.14 224.333L177.479 216.039L175.517 214.677L172.07 216.239L171.899 216.318L171.842 216.132L170.586 212.36L165.084 210.163L162.337 210.62L158.041 219.84L158.034 219.862L158.02 219.883L155.13 223.249L155.008 223.392L154.873 223.263L152.789 221.181L151.462 223.549L151.412 223.634L151.312 223.641L147.359 223.798L144.676 225.852L144.554 225.945L144.447 225.831L141.878 223.106L141.828 223.049L141.835 222.978L142.314 215.918V215.89L142.328 215.861L144.661 210.427L141.636 209.521L141.557 209.5L141.529 209.429L140.087 206.22L140.066 206.163L140.08 206.106L141.172 201.584L138.717 200.208L138.624 200.158L138.631 200.051L138.788 195.609L136.976 192.136L135.535 193.141L135.485 193.177L135.392 193.163L133.308 193.006L133.144 192.991V192.827V190.581V190.488L133.23 190.438L134.849 189.411L133.501 187.386ZM116.66 273.132L116.332 271.42L116.303 271.271L116.453 271.221L118.116 270.693L117.402 268.183L117.36 268.033L117.509 267.976L119.493 267.234L119.643 267.177L119.714 267.32L121.263 270.415L125.123 268.119L125.259 268.04L125.352 268.168L126.686 270.03L127.828 271.078L129.319 270.522L129.348 270.507H129.376H131.439H131.531L131.581 270.593L132.602 272.212L132.666 272.312L132.587 272.404L128.577 277.503L128.477 277.632L128.342 277.539L125.908 275.827L122.925 276.105L122.868 276.113L122.818 276.077L121.07 274.972L121.063 274.964L118.972 273.446L116.817 273.267L116.689 273.26L116.66 273.132Z" fill="#F7CA60" fill-opacity="0.07" stroke="#F7CA60" stroke-width="0.568"/>
<path d="M116.703 271.499L116.974 272.939L118.994 273.103L119.044 273.11H119.094L119.129 273.139L119.172 273.167L121.263 274.686L122.954 275.756L125.88 275.478H125.944L126.008 275.471L126.058 275.506L126.108 275.542L128.413 277.161L132.238 272.29L131.332 270.85H129.398L127.935 271.399L127.835 271.435L127.735 271.47L127.657 271.399L127.578 271.328L126.436 270.286L126.422 270.272L126.408 270.258L126.401 270.244L126.386 270.229L125.152 268.489L121.427 270.707L121.27 270.8L121.106 270.893L121.027 270.729L120.942 270.565L119.465 267.612L117.773 268.247L118.444 270.6L118.494 270.764L118.537 270.921L118.38 270.971L118.216 271.028L116.703 271.499Z" fill="#F7CA60" fill-opacity="0.07" stroke="#F7CA60" stroke-width="0.568"/>
<path fill-rule="evenodd" clip-rule="evenodd" d="M144.39 295.538L145.953 295.602L147.537 298.583L159.739 299.696L167.938 294.761L170.55 294.668L171.385 291.965L175.388 288.243L180.976 287.965L182.652 289.548L184.979 287.408L194.855 288.992L196.253 285.176L199.607 282.852L198.209 279.407L199.7 270.101L202.212 267.584L200.535 263.112L196.996 262.742L199.514 258.085L203.953 255.011L199.936 248.993L199.871 248.893L199.943 248.8L201.298 246.882L198.901 245.513L198.822 245.463L198.815 245.37L198.466 240.692L196.096 241.255L195.968 241.284L195.904 241.17L194.405 238.51L191.258 240.257L191.144 240.321L191.051 240.228L189.096 238.275L188.989 238.168L189.075 238.046L190.195 236.485L186.313 233.896L186.277 233.875L186.256 233.832L181.297 224.654L177.308 224.775L175.838 225.902L176.073 230.124L178.935 232.149L179.013 232.206V232.299L178.892 235.957V236.042L178.82 236.092L176.016 238.046L175.959 238.082L175.895 238.075L171.235 237.362L169.922 239.223L171.278 240.464L171.306 240.492L171.321 240.535L173.611 247.388L176.316 247.859L176.366 247.866L176.401 247.902L178.963 250.219L179.013 250.269L179.02 250.34L179.263 253.756L179.27 253.892L179.149 253.935L175.067 255.375L173.511 258.969L173.49 259.012L173.454 259.041L168.88 262.528V264.91L171 266.322L171.085 266.379L171.078 266.478L170.835 269.288L170.828 269.338L170.793 269.381L168.716 271.941L168.688 271.977L168.645 271.991L166.012 273.068L165.063 274.608L165.02 274.686L164.934 274.694L161.837 274.929L156.999 281.333L156.935 281.411L156.835 281.397L154.223 281.04L151.355 283.429L151.305 283.472H151.24H146.723L147.623 286.175L147.658 286.289L147.565 286.36L145.139 288.321L147.701 291.117L147.851 291.281L147.651 291.388L145.154 292.693L144.39 295.538ZM165.448 284.649L166.304 282.452L166.34 282.36L166.376 282.26L166.483 282.245L166.583 282.231L171.399 281.639L172.784 278.758L172.884 278.552L172.983 278.345L173.155 278.502L173.326 278.658L174.432 279.671L175.581 276.954L175.617 276.869L175.652 276.783L175.745 276.762L175.838 276.74L178.278 276.248L178.342 276.234L178.414 276.22L178.471 276.255L178.528 276.291L181.461 278.124L181.561 278.188L181.661 278.252L181.639 278.366L181.618 278.48L181.254 280.434L181.232 280.541L181.211 280.655L181.097 280.684L180.99 280.712L179.548 281.047L181.996 283.294L182.182 283.465L182.367 283.636L182.139 283.743L181.91 283.857L171.777 288.735L171.692 288.778L171.606 288.82L171.528 288.771L171.449 288.721L165.591 285.062L165.469 284.984L165.348 284.905L165.398 284.77L165.448 284.649Z" fill="#F7CA60" fill-opacity="0.07" stroke="#F7CA60" stroke-width="0.568"/>
<path d="M166.625 282.581L165.769 284.77L171.628 288.435L181.761 283.551L179.077 281.09L178.835 280.869L179.156 280.791L180.911 280.377L181.275 278.43L178.342 276.598L175.902 277.083L174.653 280.035L174.56 280.256L174.375 280.092L173.09 278.915L171.67 281.882L171.628 281.967L171.535 281.982L166.625 282.581Z" fill="#F7CA60" fill-opacity="0.07" stroke="#F7CA60" stroke-width="0.568"/>
<path d="M130.361 187.251L130.254 187.315L130.154 187.236L128.22 185.717H123.546L123.568 185.525L123.853 182.972L123.86 182.922L123.889 182.879L126.565 179.649L127.357 177.531L125.63 176.333L125.552 176.283V173.851L124.039 172.197L123.982 172.133L123.996 172.047L124.681 168.752L122.926 167.405L122.776 167.29L122.904 167.148L125.544 164.231L124.567 151.88L121.47 147.123L123.018 146.325L126.743 143.294L126.8 143.251L126.872 143.258L129.07 143.515L129.869 139.657L129.876 139.621L129.89 139.6L130.982 137.974L131.253 135.799L131.26 135.728L131.31 135.685L135.884 132.062L133.922 129.709L133.879 129.659V125.915L129.897 120.289L129.876 120.26L129.869 120.217L129.319 117.351L128.099 115.725L128.056 115.675L128.063 115.611L128.192 113.978L125.737 115.204L122.947 117.351L119.122 118.463L117.638 121.073L117.731 117.351L125.459 109.342L129.747 101.619L131.703 94.7305L125.737 87.9345L120.15 87.749L118.195 90.5373L115.961 90.9153L117.638 86.1659L113.071 85.6026L114.562 83.4632L111.765 81.1384L109.253 82.0655L105.25 88.0272L106.178 91.5642L101.896 91.8424L101.989 92.962L103.573 95.2867L100.498 94.6378L98.9134 96.1211L95.374 95.4721L94.9102 93.889L89.8794 93.9817L89.9722 96.8698L83.9139 97.7042L79.8179 100.963L76.6496 101.056L74.3233 103.103L73.2957 107.296L75.2509 110.833L72.2753 111.574L64.3545 110.277L59.7947 110.177L58.396 112.694L58.2105 119.212L61.0934 122L62.492 125.259H58.4888L55.0422 118.834L52.5161 118.984L52.5446 119.312L54.7496 123.99L54.8424 124.197L54.6212 124.232L52.2449 124.624L51.724 127.498L53.9147 132.148L53.9433 132.205L53.929 132.269L53.3724 134.48L53.351 134.558L53.2725 134.594L48.0919 136.912L47.4425 139.514L50.8178 143.971L54.6355 144.92L54.7425 144.948L54.7639 145.062L55.5988 149.833L55.349 150.454V150.447L54.0003 153.87L53.9718 153.948L53.8862 153.969L50.3896 154.911L51.4457 157.421L51.4743 157.478L51.4529 157.542L50.3468 160.858L53.1298 164.466L53.1726 164.524L53.1655 164.595L52.459 171.184L54.6925 174.25L54.7353 174.308L54.7211 174.379L53.8862 179.093L57.2044 181.581L57.2614 181.624L57.2757 181.688L57.8394 185.09L57.8537 185.161L57.8109 185.225L54.8638 189.29L54.5784 192.927V192.977L54.5427 193.02L49.9971 198.796V203.296L53.7078 205.435L53.8434 205.507L53.7863 205.642L53.1227 207.353L53.0941 207.425L53.0299 207.453L49.6974 208.88L49.676 208.887L49.6546 208.894L46.8074 209.243L48.0419 213.586L48.0633 213.672L48.0062 213.743L46.7932 215.255V217.544L55.7058 218.927L55.7986 218.935L55.8343 219.02L58.446 224.397L60.8579 224.697L61.022 224.718L61.0078 224.882L60.8508 226.907L60.8436 226.979L60.7937 227.028L57.2686 230.088L57.5612 232.591L59.5235 234.545L62.4492 235.472L62.6062 235.522L62.5634 235.679L62.0924 237.397L62.0781 237.454L62.0353 237.49L58.8171 239.936L58.6672 243.138L58.6601 243.245L58.6387 243.252L58.2034 245.291L60.9864 250.697L61.0434 250.804L60.9578 250.897L59.552 252.301L59.5306 252.323L59.5021 252.337L58.3176 252.893L59.709 257.001H62.385L65.0324 256.687L65.0895 256.68L65.1466 256.716L66.8592 257.807L66.9876 257.885L66.9234 258.028L66.0314 259.967L68.008 263.005L68.0294 263.041V263.07L68.5004 265.715L69.4281 268.511L69.4352 268.532L69.4424 268.553L69.5922 270.579L69.6065 270.693L69.5066 270.75L67.2516 271.941V273.752L67.2374 273.788L66.4596 275.499L66.431 275.571L66.3597 275.592L63.9263 276.505L62.6133 279.272L66.5309 282.031L72.9746 282.873L75.7719 280.541L75.8004 280.512L75.8432 280.505L77.3346 280.156L77.4202 278.665L77.4274 278.58L77.4987 278.53L79.7893 277.068L79.6109 275.464L79.5895 275.321L79.7394 275.278L81.4449 274.829L81.9872 272.554L82.0229 272.433L82.1442 272.419L90.6715 271.67L91.0997 269.709L86.34 265.444L86.2758 265.394V263.369L86.3757 263.319L88.5022 262.328L88.5522 262.306L88.595 262.314L91.2567 262.577L91.8061 254.255L91.8133 254.22L91.8275 254.184L93.533 250.925L93.5687 250.847L93.6614 250.832L96.5158 250.426L97.0438 248.065L94.1039 243.452L94.0468 243.359L94.0967 243.273L96.7941 238.31L96.8369 238.224H96.9368L103.516 237.939L105.314 235.6L105.486 235.372L105.607 235.629L108.09 241.006L109.517 240.407L109.246 237.276L109.239 237.198L109.296 237.148L115.64 230.245L116.054 227.492L116.032 227.399L119.429 225.838L119.5 225.994L121.042 229.346L123.917 231.05L124.567 228.719L124.581 228.669L124.61 228.64L126.237 227.014L125.594 225.075L124.117 224.675L123.982 224.64L123.996 224.497L124.132 222.657L124.139 222.593L124.181 222.55L126.386 220.204L126.001 218.407L122.983 217.444L122.89 217.423L122.868 217.33L122.012 214.499L121.991 214.421L122.041 214.349L123.532 212.317L122.176 210.006L122.091 209.857L122.233 209.764L125.88 207.525L127.956 203.503L127.685 200.336L126.287 198.104L126.237 198.026L126.279 197.94L127.664 194.888L126.986 193.112L126.972 193.091V193.063L126.829 190.231L126.822 190.11L126.936 190.06L129.483 188.926L129.505 188.919H129.519L132.159 188.363L133.301 187.094L132.352 185.917L130.361 187.251Z" fill="#F7CA60" fill-opacity="0.07" stroke="#F7CA60" stroke-width="0.568"/>
<path d="M348.632 182.972L347.89 173.666L346.863 169.38L343.794 166.314L344.073 161.75L345.657 160.445L340.348 154.305L340.441 150.019L342.674 147.601L342.117 145.177L337.643 143.879L333.076 135.778L334.197 135.036L335.595 136.99L337.829 135.593L334.382 132.334L332.52 133.36L329.544 131.428L329.494 131.485L327.96 127.869H324.884L324.513 130.009L322.551 129.823L316.221 117.158L316.592 113.158L319.111 112.602L317.242 105.157L321.252 108.316L321.345 99.3803L324.513 96.1214L329.259 96.0287L326.561 89.4252L325.27 75.1842L322.194 76.1184L322.13 76.1397L322.066 76.1041L319.775 74.8989L315.822 86.2518L315.779 86.373L315.651 86.3659L310.62 86.2375L305.974 87.6566L305.817 87.7066L305.76 87.5497L304.247 83.3922L297.982 83.7701L296.862 85.7597L296.826 85.8311L296.748 85.8453L292.43 86.8651L291.681 89.1043L291.646 89.2112L291.538 89.2184L289.184 89.468L288.442 92.078L288.413 92.1707L288.327 92.1992L285.616 93.0621L286.101 95.722L289.997 101.384L292.416 101.891L292.509 101.912L292.538 101.997L294.193 106.319L296.94 106.069L297.012 106.062L297.069 106.112L298.903 107.809L298.945 107.852L298.953 107.909L299.466 110.569L301.993 111.995L303.741 110.369L298.988 104.686L300.109 100.963L304.668 99.3803L302.249 103.01L302.806 105.806L306.438 108.316L308.115 108.408L308.022 111.018L309.606 111.389L308.115 118.834L309.792 121.63L310.356 130.287L311.654 135.871L313.424 141.454L311.376 143.694L312.026 145.833L310.912 147.323L313.795 150.675L314.266 155.981L318.227 160.452L322.929 165.75L348.632 182.972Z" fill="#F7CA60" fill-opacity="0.07" stroke="#F7CA60" stroke-width="0.568"/>
<g filter="url(#filter0_d_1655_759)">
<circle cx="126.367" cy="279.1" r="4.76667" fill="#F7CA60"/>
</g>
<path d="M82 252.333C82 248.283 85.2832 245 89.3333 245H162.667C166.717 245 170 248.283 170 252.333V262.6C170 266.65 166.717 269.933 162.667 269.933H138.45C136.361 269.933 134.371 270.824 132.98 272.383L127.14 278.923C126.541 279.594 125.484 279.572 124.913 278.877L119.767 272.612C118.374 270.916 116.295 269.933 114.1 269.933H89.3333C85.2832 269.933 82 266.65 82 262.6L82 252.333Z" fill="white"/>
<path d="M108.4 261.867H107.42V253.887L101.96 261.867H101.12V252.067H102.1V260.047L107.56 252.067H108.4V261.867ZM114.248 254.699C115.246 254.699 116.096 255.053 116.796 255.763C117.505 256.472 117.86 257.34 117.86 258.367C117.86 259.393 117.505 260.261 116.796 260.971C116.096 261.68 115.246 262.035 114.248 262.035C113.006 262.035 112.064 261.521 111.42 260.495V264.667H110.496V254.867H111.42V256.239C112.064 255.212 113.006 254.699 114.248 254.699ZM112.218 260.341C112.75 260.873 113.403 261.139 114.178 261.139C114.952 261.139 115.606 260.873 116.138 260.341C116.67 259.79 116.936 259.132 116.936 258.367C116.936 257.592 116.67 256.939 116.138 256.407C115.606 255.865 114.952 255.595 114.178 255.595C113.403 255.595 112.75 255.865 112.218 256.407C111.686 256.939 111.42 257.592 111.42 258.367C111.42 259.132 111.686 259.79 112.218 260.341ZM121.3 258.227L125.052 261.867H123.82L120.32 258.493V261.867H119.396V254.867H120.32V257.961L123.652 254.867H124.912L121.3 258.227ZM128.813 260.733L131.081 254.867H132.061L129.065 262.511C128.785 263.22 128.393 263.766 127.889 264.149C127.394 264.541 126.843 264.713 126.237 264.667V263.799C127.077 263.901 127.716 263.416 128.155 262.343L128.337 261.909L125.201 254.867H126.181L128.813 260.733ZM132.337 254.867H138.217V255.763H135.739V261.867H134.815V255.763H132.337V254.867ZM142.332 262.035C141.277 262.035 140.4 261.685 139.7 260.985C139 260.266 138.65 259.393 138.65 258.367C138.65 257.331 139 256.463 139.7 255.763C140.4 255.053 141.277 254.699 142.332 254.699C143.023 254.699 143.643 254.867 144.194 255.203C144.745 255.529 145.146 255.973 145.398 256.533L144.642 256.967C144.455 256.547 144.152 256.215 143.732 255.973C143.321 255.721 142.855 255.595 142.332 255.595C141.557 255.595 140.904 255.865 140.372 256.407C139.84 256.939 139.574 257.592 139.574 258.367C139.574 259.132 139.84 259.79 140.372 260.341C140.904 260.873 141.557 261.139 142.332 261.139C142.845 261.139 143.307 261.017 143.718 260.775C144.138 260.532 144.465 260.196 144.698 259.767L145.468 260.215C145.179 260.775 144.754 261.218 144.194 261.545C143.634 261.871 143.013 262.035 142.332 262.035ZM148.698 258.227L152.45 261.867H151.218L147.718 258.493V261.867H146.794V254.867H147.718V257.961L151.05 254.867H152.31L148.698 258.227Z" fill="#1E1E20"/>
<g filter="url(#filter1_d_1655_759)">
<circle cx="286.367" cy="292.1" r="4.76667" fill="#F7CA60"/>
</g>
<path d="M230.5 265.333C230.5 261.283 233.783 258 237.833 258L329.667 258C333.717 258 337 261.283 337 265.333V275.6C337 279.65 333.717 282.933 329.667 282.933H298.45C296.361 282.933 294.371 283.824 292.98 285.383L287.14 291.923C286.541 292.594 285.484 292.572 284.913 291.877L279.767 285.612C278.374 283.916 276.295 282.933 274.1 282.933H237.833C233.783 282.933 230.5 279.65 230.5 275.6L230.5 265.333Z" fill="white"/>
<path d="M248.552 269.785C249.037 269.99 249.42 270.303 249.7 270.723C249.98 271.143 250.12 271.614 250.12 272.137C250.12 272.893 249.854 273.537 249.322 274.069C248.79 274.601 248.146 274.867 247.39 274.867H243.12V265.067H247.068C247.787 265.067 248.407 265.328 248.93 265.851C249.443 266.364 249.7 266.98 249.7 267.699C249.7 268.613 249.317 269.309 248.552 269.785ZM247.068 265.991H244.1V269.407H247.068C247.516 269.407 247.903 269.243 248.23 268.917C248.557 268.571 248.72 268.165 248.72 267.699C248.72 267.241 248.557 266.84 248.23 266.495C247.903 266.159 247.516 265.991 247.068 265.991ZM244.1 273.943H247.39C247.875 273.943 248.286 273.77 248.622 273.425C248.967 273.079 249.14 272.65 249.14 272.137C249.14 271.633 248.967 271.208 248.622 270.863C248.286 270.508 247.875 270.331 247.39 270.331H244.1V273.943ZM252.116 267.867H257.128V274.867H256.204V268.763H253.04V271.885C253.04 273.051 252.816 273.854 252.368 274.293C251.93 274.731 251.323 274.923 250.548 274.867V273.999C251.09 274.055 251.486 273.924 251.738 273.607C251.99 273.289 252.116 272.715 252.116 271.885V267.867ZM265.105 269.239V267.867H266.029V274.867H265.105V273.495C264.461 274.521 263.519 275.035 262.277 275.035C261.279 275.035 260.425 274.68 259.715 273.971C259.015 273.261 258.665 272.393 258.665 271.367C258.665 270.34 259.015 269.472 259.715 268.763C260.425 268.053 261.279 267.699 262.277 267.699C263.519 267.699 264.461 268.212 265.105 269.239ZM260.387 273.341C260.919 273.873 261.573 274.139 262.347 274.139C263.122 274.139 263.775 273.873 264.307 273.341C264.839 272.79 265.105 272.132 265.105 271.367C265.105 270.592 264.839 269.939 264.307 269.407C263.775 268.865 263.122 268.595 262.347 268.595C261.573 268.595 260.919 268.865 260.387 269.407C259.855 269.939 259.589 270.592 259.589 271.367C259.589 272.132 259.855 272.79 260.387 273.341ZM273.866 267.867V273.971H274.846V276.743H273.922V274.867H268.21V276.743H267.286V273.971H268.14C268.616 273.336 268.854 272.454 268.854 271.325V267.867H273.866ZM269.26 273.971H272.942V268.763H269.778V271.325C269.778 272.407 269.605 273.289 269.26 273.971ZM277.168 273.257L281.34 267.867H282.124V274.867H281.2V269.477L277.028 274.867H276.244V267.867H277.168V273.257ZM288.53 271.269C289.295 271.549 289.678 272.095 289.678 272.907C289.678 273.485 289.482 273.957 289.09 274.321C288.707 274.685 288.17 274.867 287.48 274.867H284.078V267.867H287.2C287.872 267.867 288.394 268.039 288.768 268.385C289.15 268.73 289.342 269.183 289.342 269.743C289.342 270.443 289.071 270.951 288.53 271.269ZM287.2 268.763H285.002V270.891H287.2C288.012 270.891 288.418 270.527 288.418 269.799C288.418 269.472 288.31 269.22 288.096 269.043C287.89 268.856 287.592 268.763 287.2 268.763ZM285.002 273.971H287.48C287.89 273.971 288.203 273.873 288.418 273.677C288.642 273.481 288.754 273.205 288.754 272.851C288.754 272.515 288.642 272.253 288.418 272.067C288.203 271.88 287.89 271.787 287.48 271.787H285.002V273.971ZM296.944 273.985C296.225 274.685 295.357 275.035 294.34 275.035C293.304 275.035 292.431 274.685 291.722 273.985C291.012 273.275 290.658 272.403 290.658 271.367C290.658 270.331 291.012 269.463 291.722 268.763C292.431 268.053 293.304 267.699 294.34 267.699C295.366 267.699 296.234 268.053 296.944 268.763C297.662 269.463 298.022 270.331 298.022 271.367C298.022 272.393 297.662 273.266 296.944 273.985ZM292.38 273.341C292.912 273.873 293.565 274.139 294.34 274.139C295.114 274.139 295.768 273.873 296.3 273.341C296.832 272.79 297.098 272.132 297.098 271.367C297.098 270.592 296.832 269.939 296.3 269.407C295.768 268.865 295.114 268.595 294.34 268.595C293.565 268.595 292.912 268.865 292.38 269.407C291.848 269.939 291.582 270.592 291.582 271.367C291.582 272.132 291.848 272.79 292.38 273.341ZM302.83 275.035C301.775 275.035 300.898 274.685 300.198 273.985C299.498 273.266 299.148 272.393 299.148 271.367C299.148 270.331 299.498 269.463 300.198 268.763C300.898 268.053 301.775 267.699 302.83 267.699C303.521 267.699 304.141 267.867 304.692 268.203C305.243 268.529 305.644 268.973 305.896 269.533L305.14 269.967C304.953 269.547 304.65 269.215 304.23 268.973C303.819 268.721 303.353 268.595 302.83 268.595C302.055 268.595 301.402 268.865 300.87 269.407C300.338 269.939 300.072 270.592 300.072 271.367C300.072 272.132 300.338 272.79 300.87 273.341C301.402 273.873 302.055 274.139 302.83 274.139C303.343 274.139 303.805 274.017 304.216 273.775C304.636 273.532 304.963 273.196 305.196 272.767L305.966 273.215C305.677 273.775 305.252 274.218 304.692 274.545C304.132 274.871 303.511 275.035 302.83 275.035ZM306.316 267.867H312.196V268.763H309.718V274.867H308.794V268.763H306.316V267.867ZM318.914 273.985C318.196 274.685 317.328 275.035 316.31 275.035C315.274 275.035 314.402 274.685 313.692 273.985C312.983 273.275 312.628 272.403 312.628 271.367C312.628 270.331 312.983 269.463 313.692 268.763C314.402 268.053 315.274 267.699 316.31 267.699C317.337 267.699 318.205 268.053 318.914 268.763C319.633 269.463 319.992 270.331 319.992 271.367C319.992 272.393 319.633 273.266 318.914 273.985ZM314.35 273.341C314.882 273.873 315.536 274.139 316.31 274.139C317.085 274.139 317.738 273.873 318.27 273.341C318.802 272.79 319.068 272.132 319.068 271.367C319.068 270.592 318.802 269.939 318.27 269.407C317.738 268.865 317.085 268.595 316.31 268.595C315.536 268.595 314.882 268.865 314.35 269.407C313.818 269.939 313.552 270.592 313.552 271.367C313.552 272.132 313.818 272.79 314.35 273.341ZM323.443 271.227L327.195 274.867H325.963L322.463 271.493V274.867H321.539V267.867H322.463V270.961L325.795 267.867H327.055L323.443 271.227Z" fill="#1E1E20"/>
<g filter="url(#filter2_d_1655_759)">
<circle cx="83.8666" cy="227.1" r="4.76667" fill="#F7CA60"/>
</g>
<path d="M33 200.333C33 196.283 36.2832 193 40.3333 193H130.167C134.217 193 137.5 196.283 137.5 200.333V210.6C137.5 214.65 134.217 217.933 130.167 217.933H95.9501C93.8611 217.933 91.8712 218.824 90.4799 220.383L84.6405 226.923C84.0411 227.594 82.9843 227.572 82.4131 226.877L77.2669 220.612C75.874 218.916 73.7948 217.933 71.6003 217.933H40.3333C36.2832 217.933 33 214.65 33 210.6L33 200.333Z" fill="white"/>
<path d="M47.636 204.827L52.48 209.867H51.192L46.6 205.121V209.867H45.62V200.067H46.6V204.547L51.052 200.067H52.34L47.636 204.827ZM57.3531 202.699C58.3518 202.699 59.2011 203.053 59.9011 203.763C60.6104 204.472 60.9651 205.34 60.9651 206.367C60.9651 207.393 60.6104 208.261 59.9011 208.971C59.2011 209.68 58.3518 210.035 57.3531 210.035C56.1118 210.035 55.1691 209.521 54.5251 208.495V212.667H53.6011V202.867H54.5251V204.239C55.1691 203.212 56.1118 202.699 57.3531 202.699ZM55.3231 208.341C55.8551 208.873 56.5084 209.139 57.2831 209.139C58.0578 209.139 58.7111 208.873 59.2431 208.341C59.7751 207.79 60.0411 207.132 60.0411 206.367C60.0411 205.592 59.7751 204.939 59.2431 204.407C58.7111 203.865 58.0578 203.595 57.2831 203.595C56.5084 203.595 55.8551 203.865 55.3231 204.407C54.7911 204.939 54.5251 205.592 54.5251 206.367C54.5251 207.132 54.7911 207.79 55.3231 208.341ZM68.5215 204.239V202.867H69.4455V209.867H68.5215V208.495C67.8775 209.521 66.9348 210.035 65.6935 210.035C64.6948 210.035 63.8408 209.68 63.1315 208.971C62.4315 208.261 62.0815 207.393 62.0815 206.367C62.0815 205.34 62.4315 204.472 63.1315 203.763C63.8408 203.053 64.6948 202.699 65.6935 202.699C66.9348 202.699 67.8775 203.212 68.5215 204.239ZM63.8035 208.341C64.3355 208.873 64.9888 209.139 65.7635 209.139C66.5382 209.139 67.1915 208.873 67.7235 208.341C68.2555 207.79 68.5215 207.132 68.5215 206.367C68.5215 205.592 68.2555 204.939 67.7235 204.407C67.1915 203.865 66.5382 203.595 65.7635 203.595C64.9888 203.595 64.3355 203.865 63.8035 204.407C63.2715 204.939 63.0055 205.592 63.0055 206.367C63.0055 207.132 63.2715 207.79 63.8035 208.341ZM74.6639 210.035C73.6092 210.035 72.7319 209.685 72.0319 208.985C71.3319 208.266 70.9819 207.393 70.9819 206.367C70.9819 205.331 71.3319 204.463 72.0319 203.763C72.7319 203.053 73.6092 202.699 74.6639 202.699C75.3545 202.699 75.9752 202.867 76.5259 203.203C77.0765 203.529 77.4779 203.973 77.7299 204.533L76.9739 204.967C76.7872 204.547 76.4839 204.215 76.0639 203.973C75.6532 203.721 75.1865 203.595 74.6639 203.595C73.8892 203.595 73.2359 203.865 72.7039 204.407C72.1719 204.939 71.9059 205.592 71.9059 206.367C71.9059 207.132 72.1719 207.79 72.7039 208.341C73.2359 208.873 73.8892 209.139 74.6639 209.139C75.1772 209.139 75.6392 209.017 76.0499 208.775C76.4699 208.532 76.7965 208.196 77.0299 207.767L77.7999 208.215C77.5105 208.775 77.0859 209.218 76.5259 209.545C75.9659 209.871 75.3452 210.035 74.6639 210.035ZM84.0825 205.919V202.867H85.0065V209.867H84.0825V206.815H80.0505V209.867H79.1265V202.867H80.0505V205.919H84.0825ZM92.8265 208.985C92.1078 209.685 91.2398 210.035 90.2225 210.035C89.1865 210.035 88.3138 209.685 87.6045 208.985C86.8951 208.275 86.5405 207.403 86.5405 206.367C86.5405 205.331 86.8951 204.463 87.6045 203.763C88.3138 203.053 89.1865 202.699 90.2225 202.699C91.2491 202.699 92.1171 203.053 92.8265 203.763C93.5451 204.463 93.9045 205.331 93.9045 206.367C93.9045 207.393 93.5451 208.266 92.8265 208.985ZM88.2625 208.341C88.7945 208.873 89.4478 209.139 90.2225 209.139C90.9971 209.139 91.6505 208.873 92.1825 208.341C92.7145 207.79 92.9805 207.132 92.9805 206.367C92.9805 205.592 92.7145 204.939 92.1825 204.407C91.6505 203.865 90.9971 203.595 90.2225 203.595C89.4478 203.595 88.7945 203.865 88.2625 204.407C87.7305 204.939 87.4645 205.592 87.4645 206.367C87.4645 207.132 87.7305 207.79 88.2625 208.341ZM97.3753 202.867H100.217V209.867H99.2933V207.179H98.0893L95.9333 209.867H94.7573L96.9693 207.151C96.3999 207.067 95.9333 206.833 95.5693 206.451C95.2146 206.059 95.0373 205.587 95.0373 205.037C95.0373 204.411 95.2613 203.893 95.7093 203.483C96.1759 203.072 96.7313 202.867 97.3753 202.867ZM97.3753 206.311H99.2933V203.763H97.3753C96.9739 203.763 96.6379 203.884 96.3673 204.127C96.0966 204.36 95.9613 204.663 95.9613 205.037C95.9613 205.41 96.0966 205.718 96.3673 205.961C96.6379 206.194 96.9739 206.311 97.3753 206.311ZM105.929 202.699C106.928 202.699 107.777 203.053 108.477 203.763C109.187 204.472 109.541 205.34 109.541 206.367C109.541 207.393 109.187 208.261 108.477 208.971C107.777 209.68 106.928 210.035 105.929 210.035C104.688 210.035 103.745 209.521 103.101 208.495V212.667H102.177V202.867H103.101V204.239C103.745 203.212 104.688 202.699 105.929 202.699ZM103.899 208.341C104.431 208.873 105.085 209.139 105.859 209.139C106.634 209.139 107.287 208.873 107.819 208.341C108.351 207.79 108.617 207.132 108.617 206.367C108.617 205.592 108.351 204.939 107.819 204.407C107.287 203.865 106.634 203.595 105.859 203.595C105.085 203.595 104.431 203.865 103.899 204.407C103.367 204.939 103.101 205.592 103.101 206.367C103.101 207.132 103.367 207.79 103.899 208.341ZM114.34 210.035C113.285 210.035 112.408 209.685 111.708 208.985C111.008 208.266 110.658 207.393 110.658 206.367C110.658 205.331 111.008 204.463 111.708 203.763C112.408 203.053 113.285 202.699 114.34 202.699C115.03 202.699 115.651 202.867 116.202 203.203C116.752 203.529 117.154 203.973 117.406 204.533L116.65 204.967C116.463 204.547 116.16 204.215 115.74 203.973C115.329 203.721 114.862 203.595 114.34 203.595C113.565 203.595 112.912 203.865 112.38 204.407C111.848 204.939 111.582 205.592 111.582 206.367C111.582 207.132 111.848 207.79 112.38 208.341C112.912 208.873 113.565 209.139 114.34 209.139C114.853 209.139 115.315 209.017 115.726 208.775C116.146 208.532 116.472 208.196 116.706 207.767L117.476 208.215C117.186 208.775 116.762 209.218 116.202 209.545C115.642 209.871 115.021 210.035 114.34 210.035ZM120.706 206.227L124.458 209.867H123.226L119.726 206.493V209.867H118.802V202.867H119.726V205.961L123.058 202.867H124.318L120.706 206.227Z" fill="#1E1E20"/>
<g filter="url(#filter3_d_1655_759)">
<circle cx="186.367" cy="162.233" r="4.76667" fill="#F7CA60"/>
</g>
<path d="M142 135.467C142 131.417 145.283 128.133 149.333 128.133H222.667C226.717 128.133 230 131.417 230 135.467V145.733C230 149.783 226.717 153.067 222.667 153.067H198.45C196.361 153.067 194.371 153.958 192.98 155.516L187.14 162.056C186.541 162.727 185.484 162.705 184.913 162.01L179.767 155.745C178.374 154.049 176.295 153.067 174.1 153.067H149.333C145.283 153.067 142 149.783 142 145.733L142 135.467Z" fill="white"/>
<path d="M168.64 135.2H172.56V145H171.58V141.08H169.228L166.54 145H165.42L168.15 141.038C167.431 140.907 166.848 140.576 166.4 140.044C165.933 139.493 165.7 138.859 165.7 138.14C165.7 137.328 165.985 136.637 166.554 136.068C167.133 135.489 167.828 135.2 168.64 135.2ZM168.64 140.156H171.58V136.124H168.64C168.099 136.124 167.637 136.32 167.254 136.712C166.871 137.113 166.68 137.589 166.68 138.14C166.68 138.681 166.871 139.157 167.254 139.568C167.637 139.96 168.099 140.156 168.64 140.156ZM176.566 141.36L180.318 145H179.086L175.586 141.626V145H174.662V138H175.586V141.094L178.918 138H180.178L176.566 141.36ZM184.078 143.866L186.346 138H187.326L184.33 145.644C184.05 146.353 183.658 146.899 183.154 147.282C182.66 147.674 182.109 147.847 181.502 147.8V146.932C182.342 147.035 182.982 146.549 183.42 145.476L183.602 145.042L180.466 138H181.446L184.078 143.866ZM187.603 138H193.483V138.896H191.005V145H190.081V138.896H187.603V138ZM197.597 145.168C196.543 145.168 195.665 144.818 194.965 144.118C194.265 143.399 193.915 142.527 193.915 141.5C193.915 140.464 194.265 139.596 194.965 138.896C195.665 138.187 196.543 137.832 197.597 137.832C198.288 137.832 198.909 138 199.459 138.336C200.01 138.663 200.411 139.106 200.663 139.666L199.907 140.1C199.721 139.68 199.417 139.349 198.997 139.106C198.587 138.854 198.12 138.728 197.597 138.728C196.823 138.728 196.169 138.999 195.637 139.54C195.105 140.072 194.839 140.725 194.839 141.5C194.839 142.265 195.105 142.923 195.637 143.474C196.169 144.006 196.823 144.272 197.597 144.272C198.111 144.272 198.573 144.151 198.983 143.908C199.403 143.665 199.73 143.329 199.963 142.9L200.733 143.348C200.444 143.908 200.019 144.351 199.459 144.678C198.899 145.005 198.279 145.168 197.597 145.168ZM203.964 141.36L207.716 145H206.484L202.984 141.626V145H202.06V138H202.984V141.094L206.316 138H207.576L203.964 141.36Z" fill="#1E1E20"/>
<g filter="url(#filter4_d_1655_759)">
<circle cx="21.3666" cy="143.1" r="4.76667" fill="#F7CA60"/>
</g>
<path d="M-23 116.333C-23 112.283 -19.7168 109 -15.6667 109H57.6667C61.7168 109 65 112.283 65 116.333V126.6C65 130.65 61.7168 133.933 57.6667 133.933H33.4501C31.3611 133.933 29.3712 134.824 27.9799 136.383L22.1405 142.923C21.5411 143.594 20.4843 143.572 19.9131 142.877L14.7669 136.612C13.374 134.916 11.2948 133.933 9.10027 133.933H-15.6667C-19.7168 133.933 -23 130.65 -23 126.6L-23 116.333Z" fill="white"/>
<path d="M-5.302 126.035C-6.79533 126.035 -8.02267 125.545 -8.984 124.565C-9.95467 123.575 -10.44 122.376 -10.44 120.967C-10.44 119.557 -9.95467 118.358 -8.984 117.369C-8.02267 116.389 -6.79533 115.899 -5.302 115.899C-4.406 115.899 -3.58 116.118 -2.824 116.557C-2.068 116.986 -1.48 117.569 -1.06 118.307L-1.928 118.811C-2.236 118.213 -2.69333 117.737 -3.3 117.383C-3.90667 117.028 -4.574 116.851 -5.302 116.851C-6.534 116.851 -7.53267 117.247 -8.298 118.041C-9.07267 118.843 -9.46 119.819 -9.46 120.967C-9.46 122.115 -9.07267 123.09 -8.298 123.893C-7.53267 124.686 -6.534 125.083 -5.302 125.083C-4.574 125.083 -3.90667 124.905 -3.3 124.551C-2.69333 124.196 -2.236 123.72 -1.928 123.123L-1.06 123.613C-1.46133 124.35 -2.04467 124.938 -2.81 125.377C-3.57533 125.815 -4.406 126.035 -5.302 126.035ZM6.36328 120.239V118.867H7.28728V125.867H6.36328V124.495C5.71928 125.521 4.77661 126.035 3.53528 126.035C2.53661 126.035 1.68261 125.68 0.973281 124.971C0.273281 124.261 -0.0767187 123.393 -0.0767187 122.367C-0.0767187 121.34 0.273281 120.472 0.973281 119.763C1.68261 119.053 2.53661 118.699 3.53528 118.699C4.77661 118.699 5.71928 119.212 6.36328 120.239ZM1.64528 124.341C2.17728 124.873 2.83061 125.139 3.60528 125.139C4.37995 125.139 5.03328 124.873 5.56528 124.341C6.09728 123.79 6.36328 123.132 6.36328 122.367C6.36328 121.592 6.09728 120.939 5.56528 120.407C5.03328 119.865 4.37995 119.595 3.60528 119.595C2.83061 119.595 2.17728 119.865 1.64528 120.407C1.11328 120.939 0.847281 121.592 0.847281 122.367C0.847281 123.132 1.11328 123.79 1.64528 124.341ZM9.97167 118.867H14.9837V125.867H14.0597V119.763H10.8957V122.885C10.8957 124.051 10.6717 124.854 10.2237 125.293C9.78501 125.731 9.17834 125.923 8.40367 125.867V124.999C8.94501 125.055 9.34167 124.924 9.59367 124.607C9.84567 124.289 9.97167 123.715 9.97167 122.885V118.867ZM20.1749 118.699C21.2203 118.699 22.0556 119.067 22.6809 119.805C23.3249 120.533 23.6469 121.396 23.6469 122.395C23.6469 122.441 23.6376 122.586 23.6189 122.829H17.4729C17.5663 123.529 17.8649 124.089 18.3689 124.509C18.8729 124.929 19.5029 125.139 20.2589 125.139C21.3229 125.139 22.0743 124.742 22.5129 123.949L23.3249 124.425C23.0169 124.929 22.5923 125.325 22.0509 125.615C21.5189 125.895 20.9169 126.035 20.2449 126.035C19.1436 126.035 18.2476 125.689 17.5569 124.999C16.8663 124.308 16.5209 123.431 16.5209 122.367C16.5209 121.312 16.8616 120.439 17.5429 119.749C18.2243 119.049 19.1016 118.699 20.1749 118.699ZM20.1749 119.595C19.4469 119.595 18.8356 119.809 18.3409 120.239C17.8556 120.668 17.5663 121.233 17.4729 121.933H22.6949C22.5923 121.186 22.3076 120.612 21.8409 120.211C21.3556 119.8 20.8003 119.595 20.1749 119.595ZM27.9933 122.241L30.7233 125.867H29.6173L27.4333 122.983L25.2493 125.867H24.1433L26.8873 122.241L24.3253 118.867H25.4313L27.4333 121.513L29.4353 118.867H30.5413L27.9933 122.241ZM37.5078 120.239V118.867H38.4318V125.867H37.5078V124.495C36.8638 125.521 35.9211 126.035 34.6798 126.035C33.6811 126.035 32.8271 125.68 32.1178 124.971C31.4178 124.261 31.0678 123.393 31.0678 122.367C31.0678 121.34 31.4178 120.472 32.1178 119.763C32.8271 119.053 33.6811 118.699 34.6798 118.699C35.9211 118.699 36.8638 119.212 37.5078 120.239ZM32.7898 124.341C33.3218 124.873 33.9751 125.139 34.7498 125.139C35.5245 125.139 36.1778 124.873 36.7098 124.341C37.2418 123.79 37.5078 123.132 37.5078 122.367C37.5078 121.592 37.2418 120.939 36.7098 120.407C36.1778 119.865 35.5245 119.595 34.7498 119.595C33.9751 119.595 33.3218 119.865 32.7898 120.407C32.2578 120.939 31.9918 121.592 31.9918 122.367C31.9918 123.132 32.2578 123.79 32.7898 124.341ZM44.1402 118.699C45.1389 118.699 45.9882 119.053 46.6882 119.763C47.3975 120.472 47.7522 121.34 47.7522 122.367C47.7522 123.393 47.3975 124.261 46.6882 124.971C45.9882 125.68 45.1389 126.035 44.1402 126.035C42.8989 126.035 41.9562 125.521 41.3122 124.495V128.667H40.3882V118.867H41.3122V120.239C41.9562 119.212 42.8989 118.699 44.1402 118.699ZM42.1102 124.341C42.6422 124.873 43.2955 125.139 44.0702 125.139C44.8449 125.139 45.4982 124.873 46.0302 124.341C46.5622 123.79 46.8282 123.132 46.8282 122.367C46.8282 121.592 46.5622 120.939 46.0302 120.407C45.4982 119.865 44.8449 119.595 44.0702 119.595C43.2955 119.595 42.6422 119.865 42.1102 120.407C41.5782 120.939 41.3122 121.592 41.3122 122.367C41.3122 123.132 41.5782 123.79 42.1102 124.341ZM54.8952 118.867V124.971H55.8752V127.743H54.9512V125.867H49.2392V127.743H48.3152V124.971H49.1692C49.6452 124.336 49.8832 123.454 49.8832 122.325V118.867H54.8952ZM50.2892 124.971H53.9712V119.763H50.8072V122.325C50.8072 123.407 50.6345 124.289 50.2892 124.971Z" fill="#1E1E20"/>
</g>
<defs>
<filter id="filter0_d_1655_759" x="112.067" y="264.8" width="28.6" height="28.6" filterUnits="userSpaceOnUse" color-interpolation-filters="sRGB">
<feFlood flood-opacity="0" result="BackgroundImageFix"/>
<feColorMatrix in="SourceAlpha" type="matrix" values="0 0 0 0 0 0 0 0 0 0 0 0 0 0 0 0 0 0 127 0" result="hardAlpha"/>
<feOffset/>
<feGaussianBlur stdDeviation="4.76667"/>
<feComposite in2="hardAlpha" operator="out"/>
<feColorMatrix type="matrix" values="0 0 0 0 0.968627 0 0 0 0 0.792157 0 0 0 0 0.376471 0 0 0 1 0"/>
<feBlend mode="normal" in2="BackgroundImageFix" result="effect1_dropShadow_1655_759"/>
<feBlend mode="normal" in="SourceGraphic" in2="effect1_dropShadow_1655_759" result="shape"/>
</filter>
<filter id="filter1_d_1655_759" x="272.067" y="277.8" width="28.6" height="28.6" filterUnits="userSpaceOnUse" color-interpolation-filters="sRGB">
<feFlood flood-opacity="0" result="BackgroundImageFix"/>
<feColorMatrix in="SourceAlpha" type="matrix" values="0 0 0 0 0 0 0 0 0 0 0 0 0 0 0 0 0 0 127 0" result="hardAlpha"/>
<feOffset/>
<feGaussianBlur stdDeviation="4.76667"/>
<feComposite in2="hardAlpha" operator="out"/>
<feColorMatrix type="matrix" values="0 0 0 0 0.968627 0 0 0 0 0.792157 0 0 0 0 0.376471 0 0 0 1 0"/>
<feBlend mode="normal" in2="BackgroundImageFix" result="effect1_dropShadow_1655_759"/>
<feBlend mode="normal" in="SourceGraphic" in2="effect1_dropShadow_1655_759" result="shape"/>
</filter>
<filter id="filter2_d_1655_759" x="69.5666" y="212.8" width="28.6" height="28.6" filterUnits="userSpaceOnUse" color-interpolation-filters="sRGB">
<feFlood flood-opacity="0" result="BackgroundImageFix"/>
<feColorMatrix in="SourceAlpha" type="matrix" values="0 0 0 0 0 0 0 0 0 0 0 0 0 0 0 0 0 0 127 0" result="hardAlpha"/>
<feOffset/>
<feGaussianBlur stdDeviation="4.76667"/>
<feComposite in2="hardAlpha" operator="out"/>
<feColorMatrix type="matrix" values="0 0 0 0 0.968627 0 0 0 0 0.792157 0 0 0 0 0.376471 0 0 0 1 0"/>
<feBlend mode="normal" in2="BackgroundImageFix" result="effect1_dropShadow_1655_759"/>
<feBlend mode="normal" in="SourceGraphic" in2="effect1_dropShadow_1655_759" result="shape"/>
</filter>
<filter id="filter3_d_1655_759" x="172.067" y="147.933" width="28.6" height="28.6" filterUnits="userSpaceOnUse" color-interpolation-filters="sRGB">
<feFlood flood-opacity="0" result="BackgroundImageFix"/>
<feColorMatrix in="SourceAlpha" type="matrix" values="0 0 0 0 0 0 0 0 0 0 0 0 0 0 0 0 0 0 127 0" result="hardAlpha"/>
<feOffset/>
<feGaussianBlur stdDeviation="4.76667"/>
<feComposite in2="hardAlpha" operator="out"/>
<feColorMatrix type="matrix" values="0 0 0 0 0.968627 0 0 0 0 0.792157 0 0 0 0 0.376471 0 0 0 1 0"/>
<feBlend mode="normal" in2="BackgroundImageFix" result="effect1_dropShadow_1655_759"/>
<feBlend mode="normal" in="SourceGraphic" in2="effect1_dropShadow_1655_759" result="shape"/>
</filter>
<filter id="filter4_d_1655_759" x="7.06664" y="128.8" width="28.6" height="28.6" filterUnits="userSpaceOnUse" color-interpolation-filters="sRGB">
<feFlood flood-opacity="0" result="BackgroundImageFix"/>
<feColorMatrix in="SourceAlpha" type="matrix" values="0 0 0 0 0 0 0 0 0 0 0 0 0 0 0 0 0 0 127 0" result="hardAlpha"/>
<feOffset/>
<feGaussianBlur stdDeviation="4.76667"/>
<feComposite in2="hardAlpha" operator="out"/>
<feColorMatrix type="matrix" values="0 0 0 0 0.968627 0 0 0 0 0.792157 0 0 0 0 0.376471 0 0 0 1 0"/>
<feBlend mode="normal" in2="BackgroundImageFix" result="effect1_dropShadow_1655_759"/>
<feBlend mode="normal" in="SourceGraphic" in2="effect1_dropShadow_1655_759" result="shape"/>
</filter>
</defs>
</svg>
