<svg width="25" height="26" viewBox="0 0 25 26" fill="none" xmlns="http://www.w3.org/2000/svg">
<path d="M0.78125 4.82715C0.78125 4.16411 1.02818 3.52822 1.46772 3.05938C1.90726 2.59054 2.5034 2.32715 3.125 2.32715H21.875C22.4966 2.32715 23.0927 2.59054 23.5323 3.05938C23.9718 3.52822 24.2188 4.16411 24.2188 4.82715V6.84048L12.5 13.8705L0.78125 6.84048V4.82715Z" fill="#F7CA60"/>
<path d="M0.78125 8.75215V21.4938C0.78125 22.1569 1.02818 22.7927 1.46772 23.2616C1.90726 23.7304 2.5034 23.9938 3.125 23.9938H21.875C22.4966 23.9938 23.0927 23.7304 23.5323 23.2616C23.9718 22.7927 24.2188 22.1569 24.2188 21.4938V8.75215L12.5 15.7838L0.78125 8.75049V8.75215Z" fill="#F7CA60"/>
</svg>
