<svg width="25" height="25" viewBox="0 0 25 25" fill="none" xmlns="http://www.w3.org/2000/svg">
<g clip-path="url(#clip0_1754_456)">
<path d="M7.86732 0.833313H4.16732C3.28326 0.833313 2.43542 1.1845 1.8103 1.80962C1.18517 2.43475 0.833984 3.28259 0.833984 4.16665V7.49998C0.833984 16.705 8.29565 24.1666 17.5007 24.1666H20.834C21.718 24.1666 22.5659 23.8155 23.191 23.1903C23.8161 22.5652 24.1673 21.7174 24.1673 20.8333V18.53C24.1672 18.2205 24.0808 17.9173 23.9181 17.6541C23.7553 17.3909 23.5225 17.1783 23.2457 17.04L19.219 15.0266C19.0054 14.9198 18.7714 14.8601 18.5328 14.8516C18.2941 14.8431 18.0564 14.886 17.8358 14.9773C17.6152 15.0687 17.4168 15.2064 17.254 15.3811C17.0912 15.5558 16.9679 15.7635 16.8923 15.99L16.3973 17.4783C16.2419 17.9446 15.9216 18.3381 15.4965 18.5848C15.0715 18.8316 14.5709 18.9146 14.089 18.8183C12.138 18.4279 10.3463 17.4687 8.93956 16.0617C7.53282 14.6546 6.57402 12.8627 6.18398 10.9116C6.08769 10.4297 6.17072 9.92914 6.41747 9.50408C6.66422 9.07902 7.0577 8.7587 7.52398 8.60331L9.37065 7.98665C9.76859 7.85391 10.1018 7.57598 10.3039 7.20835C10.5059 6.84071 10.5619 6.41041 10.4607 6.00331L9.48398 2.09498C9.3937 1.73457 9.18557 1.41466 8.89266 1.18607C8.59976 0.957483 8.23887 0.833323 7.86732 0.833313V0.833313Z" stroke="white" stroke-width="1.7"/>
</g>
<defs>
<clipPath id="clip0_1754_456">
<rect width="25" height="25" fill="white"/>
</clipPath>
</defs>
</svg>
