<svg width="25" height="25" viewBox="0 0 25 25" fill="none" xmlns="http://www.w3.org/2000/svg">
<g clip-path="url(#clip0_1318_22)">
<path d="M5 21.6667V22.5H6.66667V21.6667H5ZM18.3333 21.6667V22.5H20V21.6667H18.3333ZM6.66667 21.6667V20.8333H5V21.6667H6.66667ZM10.8333 16.6667H14.1667V15H10.8333V16.6667ZM18.3333 20.8333V21.6667H20V20.8333H18.3333ZM14.1667 16.6667C15.2717 16.6667 16.3315 17.1057 17.1129 17.8871C17.8943 18.6685 18.3333 19.7283 18.3333 20.8333H20C20 19.2862 19.3854 17.8025 18.2915 16.7085C17.1975 15.6146 15.7138 15 14.1667 15V16.6667ZM6.66667 20.8333C6.66667 19.7283 7.10565 18.6685 7.88705 17.8871C8.66846 17.1057 9.72826 16.6667 10.8333 16.6667V15C9.28624 15 7.80251 15.6146 6.70854 16.7085C5.61458 17.8025 5 19.2862 5 20.8333H6.66667ZM12.5 5C11.3949 5 10.3351 5.43899 9.55372 6.22039C8.77232 7.00179 8.33333 8.0616 8.33333 9.16667H10C10 8.50362 10.2634 7.86774 10.7322 7.3989C11.2011 6.93006 11.837 6.66667 12.5 6.66667V5ZM16.6667 9.16667C16.6667 8.0616 16.2277 7.00179 15.4463 6.22039C14.6649 5.43899 13.6051 5 12.5 5V6.66667C13.163 6.66667 13.7989 6.93006 14.2678 7.3989C14.7366 7.86774 15 8.50362 15 9.16667H16.6667ZM12.5 13.3333C13.6051 13.3333 14.6649 12.8943 15.4463 12.1129C16.2277 11.3315 16.6667 10.2717 16.6667 9.16667H15C15 9.82971 14.7366 10.4656 14.2678 10.9344C13.7989 11.4033 13.163 11.6667 12.5 11.6667V13.3333ZM12.5 11.6667C11.837 11.6667 11.2011 11.4033 10.7322 10.9344C10.2634 10.4656 10 9.82971 10 9.16667H8.33333C8.33333 10.2717 8.77232 11.3315 9.55372 12.1129C10.3351 12.8943 11.3949 13.3333 12.5 13.3333V11.6667ZM12.5 23.3333C9.62682 23.3333 6.87132 22.192 4.83968 20.1603C2.80803 18.1287 1.66667 15.3732 1.66667 12.5H0C0 15.8152 1.31696 18.9946 3.66117 21.3388C6.00537 23.683 9.18479 25 12.5 25V23.3333ZM23.3333 12.5C23.3333 13.9227 23.0531 15.3314 22.5087 16.6457C21.9643 17.9601 21.1663 19.1544 20.1603 20.1603C19.1544 21.1663 17.9601 21.9643 16.6457 22.5087C15.3314 23.0531 13.9227 23.3333 12.5 23.3333V25C15.8152 25 18.9946 23.683 21.3388 21.3388C23.683 18.9946 25 15.8152 25 12.5H23.3333ZM12.5 1.66667C13.9227 1.66667 15.3314 1.94688 16.6457 2.49131C17.9601 3.03573 19.1544 3.83371 20.1603 4.83968C21.1663 5.84564 21.9643 7.0399 22.5087 8.35426C23.0531 9.66862 23.3333 11.0773 23.3333 12.5H25C25 9.18479 23.683 6.00537 21.3388 3.66117C18.9946 1.31696 15.8152 0 12.5 0V1.66667ZM12.5 0C9.18479 0 6.00537 1.31696 3.66117 3.66117C1.31696 6.00537 0 9.18479 0 12.5H1.66667C1.66667 9.62682 2.80803 6.87132 4.83968 4.83968C6.87132 2.80803 9.62682 1.66667 12.5 1.66667V0Z" fill="white"/>
</g>
<defs>
<clipPath id="clip0_1318_22">
<rect width="25" height="25" fill="white"/>
</clipPath>
</defs>
</svg>
