<svg width="25" height="25" viewBox="0 0 25 25" fill="none" xmlns="http://www.w3.org/2000/svg">
<g clip-path="url(#clip0_1318_698)">
<path d="M24.9884 2.63673C25.0122 2.49359 24.9982 2.34672 24.9478 2.21065C24.8974 2.07459 24.8124 1.95403 24.7011 1.86093C24.5898 1.76782 24.4561 1.70539 24.3133 1.6798C24.1705 1.65422 24.0235 1.66637 23.8868 1.71506L0.553435 10.0484C0.399631 10.1032 0.26533 10.2021 0.167213 10.3326C0.0690967 10.4631 0.0114891 10.6196 0.00154656 10.7826C-0.008396 10.9456 0.0297646 11.1079 0.111288 11.2494C0.192812 11.3908 0.314105 11.5053 0.460102 11.5784L7.12677 14.9117C7.25815 14.9775 7.40458 15.0073 7.55122 14.9983C7.69786 14.9892 7.8395 14.9415 7.96177 14.8601L13.4951 11.1701L10.1834 15.3134C10.1114 15.4036 10.0588 15.5077 10.0291 15.6193C9.99944 15.7309 9.99326 15.8474 10.011 15.9614C10.0287 16.0755 10.0699 16.1847 10.132 16.282C10.1941 16.3793 10.2758 16.4626 10.3718 16.5267L20.3718 23.1934C20.4876 23.2704 20.6208 23.3172 20.7593 23.3295C20.8978 23.3418 21.0372 23.3193 21.1648 23.264C21.2923 23.2086 21.404 23.1222 21.4897 23.0127C21.5753 22.9031 21.6322 22.7739 21.6551 22.6367L24.9884 2.63673Z" fill="#F7CA60"/>
</g>
<defs>
<clipPath id="clip0_1318_698">
<rect width="25" height="25" fill="white"/>
</clipPath>
</defs>
</svg>
