<svg width="25" height="25" viewBox="0 0 25 25" fill="none" xmlns="http://www.w3.org/2000/svg">
<g clip-path="url(#clip0_1318_703)">
<rect width="25" height="25" rx="5" fill="#F7CA60"/>
<path d="M16.8807 8.9295L16.8799 8.93049C16.5159 9.3728 16.1301 9.79796 15.6902 10.1853M16.8807 8.9295L15.624 10.1103M16.8807 8.9295L17.1491 8.59474L17.1493 8.59489L17.1532 8.58934C17.3215 8.34762 17.5842 8.17874 17.8841 8.12138C18.1841 8.06401 18.4953 8.12323 18.749 8.28528C19.0026 8.44725 19.1774 8.69818 19.2365 8.98197C19.2957 9.26541 19.235 9.56006 19.0671 9.80149M16.8807 8.9295L19.0671 9.80149M15.6902 10.1853C15.6902 10.1853 15.6901 10.1854 15.6901 10.1854L15.624 10.1103M15.6902 10.1853C15.6902 10.1853 15.6903 10.1852 15.6903 10.1852L15.624 10.1103M15.6902 10.1853C15.0561 10.7466 14.4109 11.1687 13.7781 11.4204L13.6417 11.4746L13.6412 11.3278L13.6325 9.0652M15.624 10.1103C15.0297 10.6364 14.4287 11.0362 13.841 11.2863L13.8412 11.327L13.7412 11.3274L13.7042 11.2345C13.7164 11.2297 13.7286 11.2248 13.7408 11.2198L13.7324 9.05585M13.6325 9.0652L13.6341 9.07402L13.7324 9.05585M13.6325 9.0652L13.6097 8.9419C13.5502 8.70366 13.4085 8.49061 13.2063 8.33757C13.004 8.1844 12.7531 8.10053 12.4941 8.10015C11.8585 8.13615 11.3428 8.58167 11.3428 9.19573V14.424V14.5576L11.2146 14.5199L10.9586 14.4446L10.9562 14.4439L10.9562 14.4438C8.63739 13.6972 7.39712 11.4696 7.39712 9.19573C7.39712 8.9066 7.27722 8.62838 7.06227 8.42256C6.84717 8.21659 6.55455 8.10015 6.24856 8.10015C5.94258 8.10015 5.64995 8.21659 5.43486 8.42256C5.21991 8.62838 5.1 8.9066 5.1 9.19573C5.1 13.4879 8.19402 16.867 12.4914 16.867C12.7974 16.867 13.09 16.7505 13.3051 16.5446C13.52 16.3387 13.6399 16.0605 13.6399 15.7714V13.9027V13.7917L13.7504 13.8032L14.0126 13.8307L14.016 13.8311L14.0159 13.8312C15.6132 14.054 17.1197 15.138 17.7066 16.2594L17.7081 16.2623L17.708 16.2624C17.7722 16.3953 17.8637 16.5149 17.9774 16.6138C18.0911 16.7127 18.2246 16.789 18.3702 16.8379C18.5157 16.8867 18.6702 16.9071 18.8243 16.8978C18.9784 16.8885 19.1288 16.8496 19.2666 16.7836C19.4044 16.7176 19.5267 16.6259 19.6263 16.5142C19.7259 16.4025 19.8009 16.273 19.8469 16.1336C19.893 15.9941 19.9093 15.8473 19.895 15.7019C19.8806 15.5564 19.8359 15.415 19.7633 15.286L19.7617 15.2833L19.7618 15.2832C19.1759 14.1612 18.0786 13.1038 16.7236 12.4137L16.5836 12.3424L16.7074 12.2457C16.8938 12.1002 17.0754 11.9492 17.2521 11.7929L17.2525 11.7925C17.9346 11.197 18.5433 10.529 19.0671 9.80149M13.6325 9.0652L13.6324 9.05623L13.7324 9.05585M13.7324 9.05585L19.0671 9.80149" fill="#1E1E20" stroke="#F7CA60" stroke-width="0.2"/>
</g>
<defs>
<clipPath id="clip0_1318_703">
<rect width="25" height="25" fill="white"/>
</clipPath>
</defs>
</svg>
