<svg width="25" height="25" viewBox="0 0 25 25" fill="none" xmlns="http://www.w3.org/2000/svg">
<g clip-path="url(#clip0_1318_700)">
<path d="M8.33301 7.94651C8.44917 7.87283 8.58177 7.82905 8.71897 7.81909C8.85616 7.80912 8.99369 7.83327 9.11929 7.88938C9.24488 7.94549 9.35463 8.03182 9.43875 8.14067C9.52286 8.24952 9.57872 8.37749 9.60134 8.51318L9.83468 9.90651C9.86131 10.0651 9.84149 10.228 9.77761 10.3756C9.71373 10.5231 9.60853 10.6491 9.47468 10.7382L8.63968 11.2948C8.43578 10.6038 8.33249 9.887 8.33301 9.16651V7.94651ZM15.833 16.6665C15.1125 16.667 14.3957 16.5638 13.7047 16.3598L14.2613 15.5265C14.3502 15.3924 14.4761 15.2868 14.6237 15.2226C14.7713 15.1585 14.9343 15.1384 15.093 15.1648L16.4863 15.3982C16.622 15.4208 16.75 15.4767 16.8589 15.5608C16.9677 15.6449 17.054 15.7546 17.1101 15.8802C17.1663 16.0058 17.1904 16.1434 17.1804 16.2806C17.1705 16.4178 17.1267 16.5503 17.053 16.6665H15.833Z" fill="#F7CA60"/>
<path fill-rule="evenodd" clip-rule="evenodd" d="M1.28558e-05 12.4998C0.000137369 9.70621 0.936064 6.99317 2.65842 4.79369C4.38077 2.59421 6.79027 1.03508 9.50235 0.365136C12.2144 -0.304806 15.0728 -0.0469419 17.6212 1.09757C20.1695 2.24209 22.2611 4.20728 23.562 6.6795C24.8629 9.15172 25.2981 11.9885 24.7983 14.737C24.2984 17.4855 22.8923 19.9874 20.8043 21.8433C18.7162 23.6992 16.0667 24.8021 13.2785 24.9761C10.4903 25.1501 7.72423 24.3851 5.42168 22.8032L1.20501 24.9115C1.04876 24.9889 0.872151 25.0153 0.700071 24.9871C0.527992 24.9589 0.369109 24.8773 0.245801 24.754C0.122494 24.6307 0.0409762 24.4718 0.0127291 24.2998C-0.0155179 24.1277 0.0109295 23.9511 0.0883462 23.7948L2.19668 19.5781C0.762588 17.4965 -0.00361957 15.0276 1.28558e-05 12.4998ZM7.05001 6.79982L7.39335 6.56982C7.74066 6.33848 8.14036 6.19776 8.55599 6.16049C8.97163 6.12323 9.38999 6.1906 9.77291 6.35646C10.1558 6.52232 10.4912 6.7814 10.7483 7.11007C11.0054 7.43875 11.1762 7.82656 11.245 8.23815L11.4783 9.63315C11.5576 10.1084 11.4978 10.5964 11.3062 11.0384C11.1146 11.4805 10.7993 11.8577 10.3983 12.1248L9.30168 12.8548C9.97377 14.043 10.956 15.0263 12.1433 15.6998L12.8767 14.6032C13.1437 14.2025 13.5206 13.8874 13.9624 13.6958C14.4041 13.5042 14.8917 13.4443 15.3667 13.5232L16.7617 13.7565C17.1733 13.8253 17.5611 13.9961 17.8898 14.2532C18.2184 14.5103 18.4775 14.8457 18.6434 15.2286C18.8092 15.6115 18.8766 16.0299 18.8393 16.4455C18.8021 16.8611 18.6614 17.2608 18.43 17.6082L18.2 17.9532C18.1245 18.0702 18.0209 18.1665 17.8986 18.2331C17.7763 18.2998 17.6393 18.3348 17.5 18.3348H15.8333C14.6294 18.3348 13.4373 18.0977 12.325 17.6369C11.2128 17.1761 10.2022 16.5008 9.35094 15.6494C8.49972 14.798 7.82454 13.7873 7.36397 12.6749C6.9034 11.5626 6.66646 10.3704 6.66668 9.16648V7.49982C6.66691 7.36038 6.70213 7.22324 6.7691 7.10094C6.83607 6.97865 6.93266 6.87511 7.05001 6.79982Z" fill="#F7CA60"/>
</g>
<defs>
<clipPath id="clip0_1318_700">
<rect width="25" height="25" fill="white"/>
</clipPath>
</defs>
</svg>
