<svg width="18" height="18" viewBox="0 0 18 18" fill="none" xmlns="http://www.w3.org/2000/svg">
<g opacity="0.5" clip-path="url(#clip0_1442_66)">
<path d="M0.6 11.3999L0.1752 10.9751L0 11.1515V11.3999H0.6ZM11.4 0.599882L11.8248 0.175082C11.7691 0.119206 11.7029 0.074875 11.63 0.0446273C11.5571 0.0143796 11.4789 -0.00119019 11.4 -0.00119019C11.3211 -0.00119019 11.2429 0.0143796 11.17 0.0446273C11.0971 0.074875 11.0309 0.119206 10.9752 0.175082L11.4 0.599882ZM17.4 6.59988L17.8248 7.02468C17.8807 6.96895 17.925 6.90274 17.9553 6.82984C17.9855 6.75695 18.0011 6.6788 18.0011 6.59988C18.0011 6.52096 17.9855 6.44282 17.9553 6.36992C17.925 6.29703 17.8807 6.23082 17.8248 6.17508L17.4 6.59988ZM6.6 17.3999V17.9999H6.8484L7.0248 17.8247L6.6 17.3999ZM0.6 17.3999H0C0 17.559 0.0632141 17.7116 0.175736 17.8241C0.288258 17.9367 0.44087 17.9999 0.6 17.9999V17.3999ZM1.0248 11.8247L11.8248 1.02468L10.9752 0.175082L0.1752 10.9751L1.0248 11.8247ZM10.9752 1.02468L16.9752 7.02468L17.8248 6.17508L11.8248 0.175082L10.9752 1.02468ZM16.9752 6.17508L6.1752 16.9751L7.0248 17.8247L17.8248 7.02468L16.9752 6.17508ZM6.6 16.7999H0.6V17.9999H6.6V16.7999ZM1.2 17.3999V11.3999H0V17.3999H1.2ZM7.3752 4.62468L13.3752 10.6247L14.2248 9.77508L8.2248 3.77508L7.3752 4.62468ZM9.6 17.9999H18V16.7999H9.6V17.9999Z" fill="white"/>
</g>
<defs>
<clipPath id="clip0_1442_66">
<rect width="18" height="18" fill="white"/>
</clipPath>
</defs>
</svg>
