<svg width="18" height="18" viewBox="0 0 18 18" fill="none" xmlns="http://www.w3.org/2000/svg">
<g opacity="0.5">
<path fill-rule="evenodd" clip-rule="evenodd" d="M2.99639 7.99919C4.27199 9.41759 6.22319 10.8 8.99999 10.8C11.7768 10.8 13.7268 9.41759 15.0036 7.99919C15.7012 7.21875 16.2865 6.34471 16.7424 5.40239C16.7758 5.33103 16.8078 5.25902 16.8384 5.18639L16.8432 5.17799V5.17679L17.4 5.39999L17.9568 5.62319V5.62559L17.9532 5.63039L17.9472 5.64719C17.9105 5.73742 17.8704 5.82628 17.8272 5.91359C17.3214 6.96159 16.671 7.93346 15.8952 8.80079C15.6674 9.05454 15.4279 9.2976 15.1776 9.52919L17.2248 11.5752L16.3752 12.4248L14.2464 10.2948C12.8914 11.2909 11.2785 11.8762 9.59999 11.9808V14.4H8.39999V11.9808C6.72164 11.8765 5.1087 11.2917 3.75359 10.296L1.62479 12.426L0.775192 11.5764L2.82239 9.53039C2.57171 9.29878 2.33185 9.05573 2.10359 8.80199C1.32773 7.93469 0.677386 6.96281 0.171592 5.91479C0.130216 5.82679 0.0906083 5.73797 0.0527922 5.64839L0.0479922 5.63039L0.0455922 5.62559V5.62439H0.0419922L0.599992 5.39999L1.15679 5.17679L1.16159 5.18639C1.19089 5.25956 1.22291 5.33161 1.25759 5.40239C1.71346 6.34472 2.29871 7.21877 2.99639 7.99919V7.99919Z" fill="white"/>
</g>
</svg>
