<svg width="18" height="18" viewBox="0 0 18 18" fill="none" xmlns="http://www.w3.org/2000/svg">
<path d="M0.59986 8.99999L0.0430604 8.77679C-0.0143535 8.92006 -0.0143535 9.07993 0.0430604 9.22319L0.59986 8.99999ZM17.3999 8.99999L17.9567 9.22319C18.0141 9.07993 18.0141 8.92006 17.9567 8.77679L17.3999 8.99999ZM8.99986 14.4C6.22306 14.4 4.27306 13.0176 2.99626 11.5992C2.29858 10.8188 1.71333 9.94473 1.25746 9.00239C1.22406 8.93102 1.19206 8.85901 1.16146 8.78639L1.15666 8.77799V8.77679L0.59986 8.99999L0.0430604 9.22319V9.22559L0.0466604 9.23039C0.0566521 9.25576 0.0670535 9.28096 0.0778604 9.30599L0.17146 9.51359C0.677268 10.5616 1.32761 11.5335 2.10346 12.4008C3.52786 13.9824 5.77666 15.6 8.99986 15.6V14.4ZM0.59986 8.99999L1.15666 9.22319L1.16146 9.21359C1.19074 9.14042 1.22276 9.06837 1.25746 8.99759C1.71333 8.05526 2.29858 7.18121 2.99626 6.40079C4.27186 4.98239 6.22306 3.59999 8.99986 3.59999V2.39999C5.77666 2.39999 3.52666 4.01759 2.10346 5.59919C1.32759 6.4665 0.677254 7.43837 0.17146 8.48639C0.127853 8.5799 0.0862434 8.67432 0.0466604 8.76959L0.0442604 8.77439V8.77559H0.0418604L0.59986 8.99999ZM8.99986 3.59999C11.7767 3.59999 13.7267 4.98239 15.0035 6.40079C15.7011 7.18123 16.2864 8.05527 16.7423 8.99759C16.7758 9.06892 16.8078 9.14093 16.8383 9.21359L16.8431 9.22199V9.22319L17.3999 8.99999L17.9567 8.77679V8.77439L17.9531 8.76959C17.944 8.74387 17.9336 8.71864 17.9219 8.69399C17.7807 8.37754 17.6245 8.06799 17.4539 7.76639C17.0139 6.99022 16.4917 6.26364 15.8963 5.59919C14.4719 4.01759 12.2231 2.39999 8.99986 2.39999V3.59999ZM17.3999 8.99999C17.214 8.92627 17.0284 8.85187 16.8431 8.77679L16.8395 8.78639L16.8215 8.82839L16.7423 9.00239C16.2864 9.94471 15.7011 10.8188 15.0035 11.5992C13.7279 13.0176 11.7767 14.4 8.99986 14.4V15.6C12.2231 15.6 14.4731 13.9824 15.8963 12.402C16.6722 11.5343 17.3226 10.562 17.8283 9.51359C17.8718 9.42007 17.9134 9.32565 17.9531 9.23039L17.9555 9.22559V9.22439H17.9567L17.3999 8.99999ZM8.99986 10.8C8.52247 10.8 8.06463 10.6104 7.72707 10.2728C7.3895 9.93522 7.19986 9.47738 7.19986 8.99999H5.99986C5.99986 9.79564 6.31593 10.5587 6.87854 11.1213C7.44115 11.6839 8.20421 12 8.99986 12V10.8ZM10.7999 8.99999C10.7999 9.47738 10.6102 9.93522 10.2727 10.2728C9.93509 10.6104 9.47725 10.8 8.99986 10.8V12C9.79551 12 10.5586 11.6839 11.1212 11.1213C11.6838 10.5587 11.9999 9.79564 11.9999 8.99999H10.7999ZM8.99986 7.19999C9.47725 7.19999 9.93509 7.38964 10.2727 7.7272C10.6102 8.06477 10.7999 8.5226 10.7999 8.99999H11.9999C11.9999 8.20434 11.6838 7.44128 11.1212 6.87867C10.5586 6.31606 9.79551 5.99999 8.99986 5.99999V7.19999ZM8.99986 5.99999C8.20421 5.99999 7.44115 6.31606 6.87854 6.87867C6.31593 7.44128 5.99986 8.20434 5.99986 8.99999H7.19986C7.19986 8.5226 7.3895 8.06477 7.72707 7.7272C8.06463 7.38964 8.52247 7.19999 8.99986 7.19999V5.99999Z" fill="white"/>
</svg>
