<svg width="23" height="17" viewBox="0 0 23 17" fill="none" xmlns="http://www.w3.org/2000/svg">
<path fill-rule="evenodd" clip-rule="evenodd" d="M0.884615 0C0.650001 0 0.424995 0.0995039 0.259098 0.276622C0.0932002 0.453739 0 0.693962 0 0.944444C0 1.19493 0.0932002 1.43515 0.259098 1.61227C0.424995 1.78938 0.650001 1.88889 0.884615 1.88889H22.1154C22.35 1.88889 22.575 1.78938 22.7409 1.61227C22.9068 1.43515 23 1.19493 23 0.944444C23 0.693962 22.9068 0.453739 22.7409 0.276622C22.575 0.0995039 22.35 0 22.1154 0H0.884615ZM0 8.5C0 8.24952 0.0932002 8.00929 0.259098 7.83218C0.424995 7.65506 0.650001 7.55556 0.884615 7.55556H22.1154C22.35 7.55556 22.575 7.65506 22.7409 7.83218C22.9068 8.00929 23 8.24952 23 8.5C23 8.75048 22.9068 8.9907 22.7409 9.16782C22.575 9.34494 22.35 9.44444 22.1154 9.44444H0.884615C0.650001 9.44444 0.424995 9.34494 0.259098 9.16782C0.0932002 8.9907 0 8.75048 0 8.5ZM0 16.0556C0 15.8051 0.0932002 15.5648 0.259098 15.3877C0.424995 15.2106 0.650001 15.1111 0.884615 15.1111H22.1154C22.35 15.1111 22.575 15.2106 22.7409 15.3877C22.9068 15.5648 23 15.8051 23 16.0556C23 16.306 22.9068 16.5463 22.7409 16.7234C22.575 16.9005 22.35 17 22.1154 17H0.884615C0.650001 17 0.424995 16.9005 0.259098 16.7234C0.0932002 16.5463 0 16.306 0 16.0556Z" fill="white"/>
</svg>
