<svg width="25" height="25" viewBox="0 0 25 25" fill="none" xmlns="http://www.w3.org/2000/svg">
<path d="M4.00168 10.65L3.17335 10.5567L4.00168 10.65ZM2.70502 22.3167L3.53335 22.4083L2.70502 22.3167ZM22.295 22.3167L21.4667 22.4083L22.295 22.3167ZM20.9984 10.65L21.8267 10.5567L20.9984 10.65ZM3.17335 10.5567L1.87668 22.2233L3.53335 22.4067L4.83002 10.74L3.17335 10.5567ZM4.36168 25H20.6384V23.3333H4.36168V25ZM23.1234 22.2233L21.8267 10.5567L20.17 10.74L21.4667 22.4067L23.1217 22.2233H23.1234ZM19.34 8.33333H5.66002V10H19.3434V8.33333H19.34ZM21.8267 10.5567C21.7586 9.94525 21.4675 9.3804 21.009 8.9702C20.5505 8.56 19.9569 8.33325 19.3417 8.33333V10C19.5468 9.99999 19.7448 10.0756 19.8976 10.2125C20.0505 10.3493 20.1475 10.5378 20.17 10.7417L21.8267 10.5583V10.5567ZM20.6384 25C20.9899 24.9998 21.3374 24.9255 21.6583 24.7819C21.9792 24.6383 22.2661 24.4286 22.5005 24.1666C22.7348 23.9046 22.9113 23.5961 23.0183 23.2612C23.1254 22.9264 23.1606 22.5727 23.1217 22.2233L21.4667 22.4067C21.4798 22.5233 21.4682 22.6413 21.4326 22.7531C21.3969 22.8649 21.3381 22.9679 21.2599 23.0554C21.1817 23.1428 21.0859 23.2128 20.9788 23.2607C20.8717 23.3086 20.7557 23.3334 20.6384 23.3333V25ZM1.87668 22.2233C1.83777 22.5728 1.87303 22.9266 1.98016 23.2616C2.0873 23.5966 2.2639 23.9052 2.49843 24.1672C2.73296 24.4293 3.02014 24.6389 3.34121 24.7824C3.66227 24.9259 4.01001 25 4.36168 25V23.3333C4.24451 23.3333 4.12865 23.3086 4.02167 23.2608C3.91469 23.213 3.81899 23.1432 3.74083 23.0559C3.66266 22.9686 3.60378 22.8658 3.56803 22.7543C3.53228 22.6427 3.52046 22.5248 3.53335 22.4083L1.87668 22.225V22.2233ZM4.83002 10.74C4.85297 10.5364 4.95012 10.3484 5.10292 10.2119C5.25572 10.0754 5.45346 9.99994 5.65835 10V8.33333C5.04344 8.33366 4.45022 8.56059 3.99209 8.97075C3.53396 9.38092 3.24307 9.94553 3.17502 10.5567L4.83002 10.74ZM8.33335 6.66667V5.83333H6.66668V6.66667H8.33335ZM16.6667 5.83333V6.66667H18.3334V5.83333H16.6667ZM12.5 1.66667C13.6051 1.66667 14.6649 2.10565 15.4463 2.88705C16.2277 3.66846 16.6667 4.72826 16.6667 5.83333H18.3334C18.3334 4.28624 17.7188 2.80251 16.6248 1.70854C15.5308 0.614581 14.0471 0 12.5 0V1.66667ZM8.33335 5.83333C8.33335 4.72826 8.77234 3.66846 9.55374 2.88705C10.3351 2.10565 11.3949 1.66667 12.5 1.66667V0C10.9529 0 9.46919 0.614581 8.37523 1.70854C7.28127 2.80251 6.66668 4.28624 6.66668 5.83333H8.33335Z" fill="white"/>
</svg>
