<svg width="25" height="25" viewBox="0 0 25 25" fill="none" xmlns="http://www.w3.org/2000/svg">
<path fill-rule="evenodd" clip-rule="evenodd" d="M1.66699 2.5C1.66699 1.83696 1.93038 1.20107 2.39923 0.732233C2.86807 0.263392 3.50395 0 4.16699 0L17.8453 0L23.3337 5.48833V22.5C23.3337 23.163 23.0703 23.7989 22.6014 24.2678C22.1326 24.7366 21.4967 25 20.8337 25H4.16699C3.50395 25 2.86807 24.7366 2.39923 24.2678C1.93038 23.7989 1.66699 23.163 1.66699 22.5V2.5ZM6.66699 6.66667H11.667V8.33333H6.66699V6.66667ZM18.3337 11.6667H6.66699V13.3333H18.3337V11.6667ZM18.3337 16.6667H13.3337V18.3333H18.3337V16.6667Z" fill="#F7CA60"/>
</svg>
