<svg width="25" height="25" viewBox="0 0 25 25" fill="none" xmlns="http://www.w3.org/2000/svg">
<path d="M20.6827 9.30002L18.4493 22.6334C18.4143 22.8246 18.3135 22.9977 18.1644 23.1225C18.0152 23.2473 17.8272 23.316 17.6327 23.3167H7.36602C7.17155 23.316 6.98345 23.2473 6.8343 23.1225C6.68516 22.9977 6.58435 22.8246 6.54935 22.6334L4.31602 9.30002C4.29678 9.18135 4.30344 9.05993 4.33555 8.94408C4.36766 8.82823 4.42446 8.7207 4.50204 8.62887C4.57962 8.53704 4.67615 8.46308 4.78501 8.41207C4.89387 8.36106 5.01247 8.33421 5.13268 8.33335H19.8493C19.971 8.33179 20.0914 8.35686 20.2023 8.40681C20.3132 8.45676 20.4119 8.53038 20.4913 8.6225C20.5707 8.71462 20.629 8.82301 20.662 8.94005C20.6951 9.0571 20.7022 9.17996 20.6827 9.30002ZM20.8327 6.66669H4.16602V5.00002H8.33268V2.50002C8.33268 2.27901 8.42048 2.06704 8.57676 1.91076C8.73304 1.75448 8.945 1.66669 9.16601 1.66669H15.8327C16.0537 1.66669 16.2657 1.75448 16.4219 1.91076C16.5782 2.06704 16.666 2.27901 16.666 2.50002V5.00002H20.8327V6.66669ZM14.9993 5.00002V3.33335H9.99935V5.00002H14.9993Z" fill="white"/>
<path d="M18.9915 10.7742L17.2199 21.4527C17.1921 21.6059 17.1121 21.7445 16.9938 21.8445C16.8755 21.9444 16.7263 21.9994 16.572 22H8.42795C8.27369 21.9994 8.12448 21.9444 8.00617 21.8445C7.88785 21.7445 7.80789 21.6059 7.78012 21.4527L6.00852 10.7742C5.99326 10.6792 5.99855 10.582 6.02402 10.4892C6.04949 10.3964 6.09454 10.3103 6.15608 10.2367C6.21762 10.1632 6.2942 10.104 6.38055 10.0631C6.4669 10.0222 6.56099 10.0007 6.65634 10.0001H18.3304C18.4269 9.9988 18.5225 10.0189 18.6104 10.0589C18.6984 10.0989 18.7766 10.1579 18.8396 10.2316C18.9026 10.3054 18.9489 10.3922 18.9751 10.486C19.0013 10.5797 19.0069 10.6781 18.9915 10.7742Z" fill="#1E1E20"/>
</svg>
