<svg width="140" height="175" viewBox="0 0 140 175" fill="none" xmlns="http://www.w3.org/2000/svg">
<path d="M20.242 77.6953C21.4772 75.5019 22.7123 73.3084 23.9688 71.1362C25.5447 68.4104 27.1418 65.6845 28.739 62.9587C31.2945 58.6143 33.8926 54.27 36.4481 49.9044C37.8323 47.5193 39.1742 45.1128 40.4093 42.6638C41.1334 41.2157 41.7933 39.7463 42.3044 38.213C42.9859 36.1686 43.4331 34.0817 43.6673 31.9308C43.8164 30.5253 43.9016 29.1197 43.8377 27.6929C43.7951 26.6707 43.7312 25.6485 43.5609 24.6263C43.5609 24.5838 43.5609 24.5625 43.5822 24.4986C43.7951 24.5412 43.8803 24.7115 43.9868 24.818C45.4136 26.33 46.7126 27.9485 47.8413 29.6947C48.97 31.441 49.9496 33.2724 50.6523 35.2316C51.1634 36.6371 51.5255 38.0852 51.781 39.5334C52.2921 42.3657 52.5051 45.2193 52.4625 48.0942C52.4625 48.3072 52.3775 48.5202 52.5479 48.7118C52.7608 48.6266 52.8245 48.435 52.931 48.2646C55.8059 44.3462 58.5744 40.3426 61.2363 36.2538C62.5141 34.2946 63.7494 32.3354 65.0059 30.3549C66.0494 28.6938 66.7947 26.905 67.3484 25.031C67.9234 23.1569 68.3065 21.219 68.5834 19.2811C68.775 17.9395 68.9028 16.5766 69.0093 15.2349C69.2222 12.5304 69.2435 9.8471 69.1796 7.14254C69.137 5.73702 69.0519 4.31021 68.9667 2.90469C68.9028 1.92508 68.7963 0.966769 68.6898 0.00845992C68.8389 -0.0341316 68.8815 0.0936431 68.9241 0.178827C69.9889 1.90378 71.075 3.60745 72.1184 5.3324C73.311 7.24902 74.4399 9.20823 75.5473 11.1674C76.7824 13.3183 77.8683 15.5544 78.7627 17.8543C79.4442 19.6218 79.9766 21.432 80.4238 23.2847C80.9562 25.5634 81.4675 27.8633 81.9786 30.1632C82.2341 31.2706 82.4471 32.378 82.6813 33.5067C82.9156 34.6779 83.0647 35.8492 83.2137 37.0418C83.3841 38.3621 83.4904 39.6611 83.5969 40.9815C83.6607 41.6629 83.682 42.3444 83.7246 43.0046C83.895 47.0295 83.895 51.0544 83.8098 55.0792C83.7459 57.8264 83.7248 60.5948 83.7887 63.342C83.8313 65.0669 83.9378 66.7919 84.2146 68.4956C84.4702 70.0714 84.9385 71.6047 85.5135 73.0954C86.7486 76.2259 88.4738 79.0795 90.7098 81.6137C92.307 83.4239 94.1169 84.9998 96.2678 86.171C97.8224 87.0016 99.4622 87.5765 101.23 87.7469C102.38 87.8534 103.53 87.8108 104.659 87.4701C106.171 87.0016 107.235 86.0433 107.917 84.6164C108.3 83.8285 108.534 82.998 108.662 82.1461C108.811 81.1452 108.896 80.1443 108.875 79.1221C108.833 77.9296 108.768 76.737 108.619 75.5445C108.449 74.3093 108.3 73.0741 108.151 71.839C108.066 71.0936 107.959 70.3483 107.874 69.6029C107.853 69.5178 107.853 69.4113 107.853 69.3261C107.725 67.5373 107.725 65.7697 107.768 63.9809C107.789 63.1716 107.81 62.3624 107.853 61.5532C107.938 60.0412 108.002 58.5505 108.13 57.0385C108.194 56.3144 108.236 55.569 108.321 54.845C108.364 55.1005 108.428 55.3561 108.449 55.6116C108.577 56.932 108.811 58.231 109.045 59.5301C109.386 61.2763 109.77 63.0226 110.195 64.7475C110.6 66.3873 111.154 67.9845 111.771 69.5604C112.772 72.0945 113.88 74.5648 115.051 77.0139C116.691 80.4638 118.352 83.8924 120.013 87.3423C121.418 90.2811 122.76 93.2199 123.931 96.2652C124.847 98.6716 125.656 101.099 126.274 103.612C126.508 104.592 126.721 105.571 126.891 106.572C126.998 107.211 126.998 107.211 127.487 107.616C129.468 109.298 131.363 111.044 133.237 112.833C134.451 113.983 135.622 115.176 136.687 116.475C137.773 117.774 138.646 119.222 139.307 120.798C139.562 121.437 139.754 122.076 139.839 122.757C139.881 123.119 139.882 123.481 139.797 123.843C139.647 124.589 139.243 125.121 138.583 125.44C137.965 125.76 137.284 125.845 136.602 125.866C135.537 125.888 134.472 125.717 133.429 125.504C131.15 125.014 128.978 124.269 126.827 123.417C124.123 122.352 121.482 121.181 118.863 119.946C115.668 118.434 112.559 116.794 109.471 115.091C104.573 112.386 99.7818 109.469 95.0755 106.423C91.008 103.783 87.0042 101.057 83.0858 98.1818C83.0432 98.1392 83.0006 98.1179 82.958 98.0966C82.745 97.9689 82.6601 97.7985 82.6813 97.5429C82.7026 97.0957 82.6811 96.6698 82.745 96.2226C82.7876 95.9671 82.7876 95.7115 82.7663 95.456C82.7024 93.8588 82.4256 92.3255 81.7867 90.8561C80.4238 87.7043 78.1667 85.447 75.0149 84.1266C73.7584 83.5942 72.4381 83.3174 71.0752 83.2109C65.4744 82.8489 60.64 86.1497 58.6382 90.8135C57.7225 92.9431 57.4244 95.1578 57.7012 97.4365C58.0633 100.375 59.3197 102.867 61.428 104.933C63.2381 106.7 65.3892 107.807 67.8808 108.297C69.0734 108.532 70.2872 108.574 71.5011 108.468C73.6307 108.255 75.5686 107.573 77.3574 106.359C78.0176 105.912 77.847 105.933 78.4859 106.338C80.8497 107.85 83.2135 109.383 85.5774 110.895C90.4541 113.983 95.3523 117.092 100.25 120.159C102.316 121.458 104.467 122.629 106.639 123.737C112.431 126.718 118.437 129.295 124.549 131.531C125.06 131.723 125.06 131.723 124.911 132.276C124.783 132.724 124.676 133.171 124.549 133.597C124.485 133.81 124.485 133.959 124.698 134.108C125.209 134.512 125.677 134.938 126.167 135.364C128.212 137.132 130.192 138.963 132.045 140.944C133.024 141.987 133.961 143.073 134.728 144.287C135.558 145.65 136.24 147.056 136.666 148.589C136.9 149.441 137.007 150.314 136.943 151.208C136.857 152.571 136.24 153.615 135.047 154.296C134.387 154.679 133.663 154.871 132.918 154.978C131.81 155.148 130.682 155.127 129.575 155.02C127.104 154.786 124.74 154.19 122.376 153.508C120.034 152.827 117.734 151.975 115.477 151.08C113.709 150.378 111.963 149.611 110.217 148.823C107.533 147.588 104.85 146.331 102.231 144.969C99.7816 143.712 97.3328 142.434 94.9264 141.093C93.7764 140.454 92.6052 139.836 91.4552 139.176C89.3895 138.005 87.3449 136.834 85.3005 135.641C82.9154 134.236 80.5303 132.809 78.1664 131.382C75.9091 130.019 73.652 128.613 71.3946 127.229C68.3706 125.376 65.3677 123.502 62.4076 121.543C56.9133 117.923 51.5042 114.196 46.2015 110.299C42.2831 107.445 38.4073 104.528 34.5741 101.568C31.8908 99.5022 29.2288 97.3726 26.5882 95.243C26.5243 95.1791 26.4391 95.1152 26.3752 95.0726C26.2261 94.9662 26.205 94.8384 26.2476 94.6467C26.4606 93.944 26.5884 93.2199 26.6736 92.4959C26.7587 91.6866 26.7798 90.8774 26.6946 90.0681C26.5456 88.6626 26.1409 87.2997 25.5447 86.0007C24.7567 84.3183 23.6706 82.8489 22.2438 81.635C21.3281 80.8471 20.3272 80.2082 19.2411 79.6971C18.3893 79.2925 17.4949 79.0157 16.5792 78.8453C15.7486 78.6962 14.9181 78.5897 14.0663 78.611C13.2996 78.6323 12.5332 78.7175 11.7665 78.8666C11.6814 78.8879 11.596 78.9092 11.4043 78.9305C11.745 78.611 12.0858 78.4833 12.4478 78.3555C12.5756 78.5259 12.7459 78.4833 12.895 78.4407C13.4487 78.2916 14.0024 78.2064 14.5774 78.1638C15.7486 78.0999 16.9199 78.1212 18.0912 78.3555C20.5402 78.8453 22.6274 79.974 24.4375 81.6776C25.0764 82.2739 25.6299 82.9767 26.1197 83.7007C27.2483 85.4044 27.9298 87.2571 28.1427 89.2802C28.2705 90.5154 28.2705 91.7718 27.9724 93.007C27.9085 93.2838 27.9724 93.4755 28.2279 93.6671C30.3788 95.243 32.5084 96.8402 34.638 98.4161C36.5972 99.8429 38.5564 101.27 40.4943 102.697C42.6239 104.251 44.7536 105.806 46.9045 107.36C48.6082 108.595 50.3329 109.831 52.0579 111.044C54.5708 112.833 57.0837 114.622 59.5966 116.39C60.2993 116.879 61.0023 117.391 61.705 117.88C63.9624 119.435 66.1984 121.011 68.4558 122.523C72.0761 124.951 75.6748 127.421 79.4016 129.7C80.296 130.253 81.1481 130.828 82.0425 131.361C83.81 132.404 85.5776 133.448 87.3664 134.47C88.9423 135.364 90.5393 136.259 92.1364 137.132C93.8188 138.047 95.5225 138.963 97.2474 139.858C100.165 141.348 103.061 142.839 106.021 144.223C107.469 144.905 108.918 145.586 110.366 146.268C110.834 146.481 111.303 146.694 111.771 146.906C112.793 147.354 113.816 147.801 114.859 148.227C115.54 148.525 116.222 148.781 116.882 149.079C117.031 149.143 117.159 149.164 117.308 149.1C117.329 149.27 117.478 149.27 117.585 149.313C119.8 150.186 122.078 150.931 124.378 151.549C125.166 151.762 125.954 151.911 126.764 151.954C126.998 151.975 127.232 151.954 127.466 151.911C127.892 151.826 128.041 151.549 127.935 151.144C127.85 150.867 127.701 150.591 127.551 150.356C127.019 149.59 126.486 148.802 125.89 148.099C124.399 146.353 122.781 144.713 121.184 143.073C121.12 143.009 121.077 142.924 120.971 142.924C120.971 142.733 121.078 142.583 121.163 142.413C121.418 141.881 121.695 141.37 121.929 140.816C122.568 139.389 123.165 137.941 123.676 136.472C123.931 135.748 124.144 135.002 124.378 134.278C124.399 134.236 124.378 134.15 124.357 134.129C124.336 134.108 124.251 134.108 124.208 134.129C123.91 134.278 123.633 134.47 123.335 134.598C122.057 135.173 120.694 135.471 119.289 135.598C118.415 135.684 117.542 135.769 116.648 135.726C115.86 135.684 115.072 135.684 114.284 135.598C113.432 135.535 112.58 135.407 111.729 135.3C110.685 135.151 109.663 135.002 108.641 134.81C107.427 134.576 106.192 134.321 104.978 134.044C102.423 133.448 99.8881 132.745 97.3965 131.957C95.778 131.446 94.181 130.935 92.5839 130.381C90.8802 129.785 89.1978 129.167 87.5155 128.528C84.1295 127.208 80.7645 125.824 77.485 124.29C75.3554 123.289 73.2686 122.225 71.2242 121.053C69.9252 120.308 68.6688 119.541 67.391 118.775C65.0272 117.369 62.7057 115.879 60.4058 114.388C56.9772 112.152 53.5701 109.873 50.2053 107.552C48.4165 106.295 46.6062 105.06 44.8173 103.804C43.0072 102.547 41.2183 101.27 39.4295 99.992C36.7462 98.054 34.0843 96.1161 31.401 94.1782C30.8473 93.7736 30.3151 93.369 29.7614 92.9644C29.6124 92.8579 29.5483 92.7301 29.5696 92.5385C29.5909 92.432 29.6122 92.3255 29.6122 92.219C29.676 91.8996 29.7614 91.5801 29.7614 91.2394C29.804 89.983 29.8464 88.7478 29.5909 87.5127C29.0159 84.7229 27.6742 82.3804 25.5234 80.5064C24.2243 79.3777 22.7764 78.5471 21.1367 78.0361C20.8172 77.9083 20.4976 77.8657 20.242 77.6953ZM93.3718 89.3228C93.3931 89.2376 93.3503 89.2163 93.2864 89.195C93.2012 89.046 93.0522 88.9608 92.9244 88.8756C91.6041 87.8747 90.305 86.8738 89.0486 85.7877C87.3875 84.3396 85.9822 82.6785 84.9174 80.7406C84.2359 79.5055 83.6394 78.2064 83.0645 76.9287C81.8932 74.3519 81.1481 71.6473 80.7008 68.8789C80.4879 67.6224 80.3388 66.366 80.2323 65.1095C80.0833 63.6188 79.9981 62.1494 79.9555 60.6587C79.8916 58.231 79.8916 55.8033 79.9129 53.3756C79.9555 49.159 80.0194 44.9212 79.849 40.7046C79.7851 39.3417 79.7212 38.0001 79.6361 36.6371C79.5509 35.1464 79.4229 33.677 79.2525 32.1863C79.2099 31.7391 79.1673 31.2706 79.0396 30.8234C79.0183 30.7169 78.9544 30.6104 79.0396 30.4827C79.0822 31.3771 79.146 32.2289 79.1886 33.0808C79.2312 33.6344 79.2527 34.1881 79.274 34.7205C79.3166 36.4029 79.3166 38.1065 79.274 39.7889C79.274 40.087 79.2525 40.3852 79.2312 40.662C79.1886 41.3435 79.125 42.025 79.0611 42.6851C79.0185 43.3879 78.9544 44.0694 78.9118 44.7721C78.784 46.4332 78.6562 48.0942 78.5498 49.7766C78.4433 51.4164 78.3794 53.0774 78.3368 54.7385C78.2516 57.6347 78.2942 60.531 78.4859 63.4485C78.6137 65.4077 78.8266 67.3669 79.1886 69.3048C79.6784 71.9881 80.4027 74.5861 81.5101 77.099C82.8304 80.123 84.6403 82.8276 87.1107 85.0636C88.8356 86.6395 90.7096 87.9599 92.7753 89.046C92.9457 89.1311 93.0948 89.2376 93.2864 89.2589C93.2651 89.3015 93.3292 89.3228 93.3718 89.3228C93.4144 89.3441 93.4142 89.3654 93.4568 89.3867C93.4994 89.408 93.5207 89.3867 93.5207 89.3441C93.5207 89.3441 93.4996 89.3228 93.4783 89.3228C93.457 89.3228 93.4144 89.3228 93.3718 89.3228ZM127.36 117.007C127.338 116.879 127.317 116.752 127.317 116.624C127.296 115.602 127.317 114.58 127.253 113.536C127.189 112.365 127.211 111.194 127.126 110.022C127.083 109.383 127.04 108.745 126.976 108.063C126.955 108.106 126.934 108.127 126.934 108.127C126.934 108.17 126.934 108.191 126.913 108.233C126.614 109.405 125.848 110.107 124.74 110.533C123.718 110.917 122.653 110.917 121.589 111.002C121.546 111.002 121.503 111.002 121.482 111.002C121.184 110.917 120.907 110.959 120.609 110.938C120.332 110.917 120.055 110.938 119.779 110.895C118.884 110.768 117.99 110.661 117.117 110.491C115.711 110.235 114.305 109.937 112.942 109.554C111.856 109.256 110.749 108.936 109.663 108.617C108.321 108.233 107.001 107.786 105.681 107.296C104.275 106.785 102.912 106.232 101.549 105.635C100.208 105.039 98.8661 104.421 97.5884 103.719C95.8847 102.803 94.2234 101.76 92.6049 100.695C91.093 99.6938 89.581 98.6716 88.0903 97.6494C87.4727 97.2235 86.8553 96.7763 86.2377 96.3504C86.0887 96.2439 85.982 96.1374 86.0033 95.9458C86.0459 95.2643 85.9181 94.5828 85.8968 93.9227C85.8542 92.9218 85.6202 91.9635 85.2368 91.0477C84.5554 89.4932 83.6181 88.0876 82.4895 86.8312C81.7228 85.9794 80.871 85.1701 79.934 84.4887C78.6562 83.5517 77.2933 82.7637 75.7387 82.3378C74.8656 82.0822 73.9925 81.9332 73.0768 81.9332C71.9481 81.9332 70.8407 82.1248 69.7759 82.4656C69.2222 82.6359 68.6472 82.8063 68.1574 83.1257C68.1149 83.1257 68.051 83.147 68.0084 83.147C67.9871 83.147 67.9658 83.147 67.9658 83.1683C67.9658 83.2109 68.0086 83.2322 68.0299 83.2109C68.0725 83.1896 68.1149 83.1683 68.1574 83.1257C68.3278 83.1257 68.4769 83.0831 68.6472 83.0406C69.3287 82.8489 70.0104 82.7211 70.6918 82.6785C71.8205 82.6146 72.949 82.6359 74.0777 82.8702C76.2924 83.2961 78.2516 84.2544 79.934 85.7238C81.7867 87.3423 83.0647 89.3441 83.7461 91.7292C84.0656 92.8366 84.2144 93.9866 84.2357 95.1365C84.2357 95.5199 84.257 95.9032 84.1505 96.2865C84.1079 96.4356 84.1718 96.5846 84.2996 96.6698C84.3848 96.7337 84.47 96.7976 84.5552 96.8828C86.2162 98.0966 87.8988 99.2679 89.6025 100.418C91.1571 101.461 92.7116 102.484 94.2875 103.506C95.4801 104.294 96.6939 105.06 97.9078 105.806C99.6328 106.87 101.379 107.914 103.146 108.957C104.871 109.958 106.618 110.959 108.364 111.918C109.62 112.62 110.898 113.323 112.197 113.983C114.007 114.942 115.839 115.879 117.67 116.837C118.394 117.22 119.161 117.561 119.906 117.923C120.545 118.221 121.163 118.519 121.802 118.817C123.335 119.541 124.889 120.18 126.465 120.798C126.636 120.862 126.806 120.947 126.998 120.926C127.125 121.117 127.339 121.139 127.509 121.224C128.276 121.522 129.063 121.799 129.83 122.076C130.575 122.331 131.321 122.565 132.087 122.757C132.215 122.8 132.343 122.842 132.471 122.8C132.747 122.672 133.003 122.48 133.131 122.161C133.216 121.905 133.067 121.714 132.918 121.501C132.896 121.479 132.875 121.437 132.854 121.415C132.109 120.478 131.3 119.605 130.384 118.839C129.596 118.179 128.765 117.582 127.828 117.135C127.658 117.092 127.53 116.986 127.36 117.007ZM43.0072 56.3144C43.284 56.0801 43.4544 55.782 43.6247 55.4839C43.9655 54.845 44.2423 54.2061 44.5192 53.5247C45.1367 51.9701 45.6478 50.3942 46.2228 48.8183C47.1173 46.3906 47.5006 43.899 47.6071 41.3222C47.6709 39.4695 47.5858 37.6167 47.2876 35.7853C47.0747 34.4863 46.7552 33.2085 46.3932 31.9308C46.3719 31.8243 46.3506 31.7178 46.2015 31.6539C46.308 32.4206 46.2867 33.2085 46.3506 33.9752C46.4571 35.2103 46.4786 36.4668 46.4786 37.7232C46.4786 39.0436 46.3932 40.3639 46.2228 41.6842C46.0312 43.2601 45.7969 44.836 45.4775 46.4119C44.9664 49.0313 44.3277 51.6293 43.6037 54.2061C43.412 54.9089 43.2201 55.6116 43.0072 56.3144Z" fill="#F8D025"/>
<path d="M1.88519 87.2358C1.90649 87.4488 1.8426 87.6405 1.77872 87.8321C1.26762 89.4719 1.16114 91.1543 1.3315 92.8366C1.50187 94.6255 2.07686 96.3078 2.99257 97.8624C4.05736 99.6726 5.46288 101.142 7.25172 102.249C8.72113 103.165 10.297 103.761 12.022 104.017C12.7247 104.123 13.4488 104.23 14.1515 104.187C15.9191 104.123 17.6227 103.804 19.2199 103.059C19.731 102.824 20.2634 102.611 20.7532 102.313C20.8384 102.249 20.9236 102.292 21.0088 102.356C21.3069 102.633 21.605 102.91 21.9032 103.165C23.0319 104.209 24.1605 105.273 25.3105 106.296C27.0781 107.871 28.8669 109.426 30.677 110.938C33.6158 113.387 36.5972 115.751 39.6851 118.029C42.1128 119.818 44.6044 121.501 47.1173 123.162C50.9293 125.675 54.7412 128.209 58.5532 130.722C61.3642 132.574 64.1752 134.406 66.9863 136.237C68.4557 137.196 69.9251 138.111 71.4158 139.048C71.4797 139.091 71.5436 139.134 71.6074 139.155C73.2259 139.964 74.7166 140.965 76.2925 141.859C78.4647 143.095 80.6368 144.33 82.8303 145.501C84.9812 146.63 87.132 147.737 89.3255 148.781C90.9227 149.547 92.5199 150.25 94.117 150.995C94.2874 151.08 94.4578 151.144 94.6281 151.23C96.2892 152.103 98.0568 152.742 99.7817 153.444C102.273 154.445 104.786 155.382 107.278 156.341C108.151 156.681 109.024 156.979 109.918 157.32C110.025 157.363 110.174 157.363 110.238 157.512C110.174 157.682 110.004 157.789 109.876 157.916C109.173 158.577 108.492 159.215 107.789 159.876C107.427 160.216 107.427 160.216 107.746 160.621C109.514 162.751 111.005 165.072 112.155 167.585C112.474 168.266 112.772 168.969 112.942 169.693C113.134 170.523 113.219 171.354 113.006 172.206C112.772 173.143 112.24 173.867 111.409 174.335C110.706 174.719 109.94 174.932 109.152 174.974C107.704 175.059 106.256 174.932 104.829 174.612C102.529 174.101 100.314 173.335 98.1419 172.44C94.6707 171.013 91.3273 169.352 88.0052 167.606C85.2793 166.158 82.596 164.646 79.9341 163.091C77.6554 161.75 75.3981 160.387 73.1407 158.981C69.7334 156.873 66.39 154.679 63.0466 152.486C60.3207 150.697 57.6161 148.93 54.8903 147.162C52.058 145.331 49.2043 143.499 46.372 141.689C46.159 141.54 45.9461 141.391 45.7331 141.263C45.6266 141.199 45.5841 141.093 45.6053 140.986C45.6266 140.752 45.6266 140.518 45.6266 140.262C45.7331 137.984 45.2433 135.854 44.1572 133.852C43.0924 131.872 41.623 130.317 39.7277 129.125C38.2796 128.209 36.7037 127.634 35.0001 127.4C31.3798 126.91 28.1215 127.804 25.2679 130.104C23.8411 131.254 22.7337 132.66 21.9458 134.299C21.2643 135.705 20.8597 137.174 20.7319 138.729C20.5403 141.157 21.0088 143.435 22.1587 145.586C23.2874 147.737 24.9485 149.398 27.0568 150.612C28.3345 151.336 29.6974 151.826 31.1455 152.039C34.2334 152.507 37.1296 151.954 39.8129 150.293C39.9833 150.186 40.1323 149.973 40.324 150.016C40.4944 150.058 40.6647 150.229 40.8138 150.356C43.0925 152.23 45.435 153.998 47.8201 155.702C49.5238 156.916 51.2487 158.108 52.995 159.258C54.4857 160.259 56.0403 161.175 57.5949 162.069C61.0874 164.113 64.6011 166.094 68.1149 168.074C70.7556 169.565 73.3963 171.035 76.0582 172.504C76.9314 172.994 77.7832 173.462 78.6563 173.952C78.7202 173.995 78.8054 173.995 78.7841 174.101C78.7628 174.144 78.6989 174.165 78.6563 174.165C77.7406 174.314 76.8036 174.442 75.8879 174.57C75.3981 174.634 74.9083 174.676 74.4185 174.719C73.7796 174.783 73.1407 174.847 72.5019 174.889C72.1824 174.91 71.8843 174.932 71.5649 174.932C69.8825 174.953 68.1788 174.974 66.4965 174.932C65.6446 174.91 64.7715 174.825 63.9197 174.74C63.2169 174.676 62.5355 174.612 61.8327 174.506C61.0022 174.378 60.1716 174.272 59.3411 174.144C57.6161 173.846 55.8912 173.462 54.1875 172.994C52.1218 172.44 50.12 171.78 48.1182 171.013C45.8822 170.161 43.71 169.203 41.5805 168.096C38.5352 166.541 35.6176 164.752 32.8492 162.772C31.5289 161.835 30.2511 160.855 28.9947 159.833C28.079 159.088 27.1632 158.3 26.2688 157.512C25.2466 156.617 24.2883 155.638 23.33 154.679C22.031 153.359 20.8384 151.932 19.7097 150.463C18.5385 148.951 17.4737 147.375 16.4941 145.735C15.3654 143.861 14.3645 141.923 13.4914 139.922C12.6608 138.047 11.9368 136.11 11.2979 134.172C10.6377 132.106 10.0841 130.019 9.67943 127.889C9.50907 126.974 9.31741 126.058 9.16834 125.121C9.06186 124.44 8.97667 123.737 8.91279 123.055C8.80631 122.118 8.72112 121.16 8.61465 120.223C8.61465 120.18 8.61465 120.159 8.61465 120.116C8.46558 117.817 8.44428 115.538 8.50817 113.238C8.55076 112.173 8.61465 111.108 8.72112 110.065C8.8276 109 8.91279 107.957 9.10445 106.892C9.12575 106.721 9.14704 106.572 9.14704 106.402C9.16834 106.146 9.12575 106.104 8.8702 105.997C8.29521 105.806 7.74152 105.571 7.18784 105.316C5.61195 104.592 4.14254 103.676 2.90739 102.441C1.88519 101.419 1.16114 100.226 0.756519 98.842C0.50097 97.9689 0.266715 97.1171 0.138941 96.2226C0.0111664 95.2217 -0.0527195 94.2208 0.0537592 93.1986C0.160238 92.1552 0.3519 91.133 0.650041 90.1321C0.926885 89.2163 1.31021 88.3432 1.71483 87.4701C1.69353 87.3423 1.73612 87.2358 1.88519 87.2358ZM102.721 171.972C102.827 171.972 102.933 171.972 103.04 171.95C103.572 171.865 103.785 171.524 103.679 170.992C103.615 170.694 103.508 170.438 103.359 170.183C103.104 169.714 102.784 169.288 102.401 168.905C101.571 168.074 100.697 167.265 99.8243 166.499C99.2919 166.03 99.4623 166.051 98.8021 166.413C97.5031 167.116 96.2466 167.925 94.905 168.564C94.7985 168.607 94.6281 168.649 94.6494 168.799C94.6707 168.948 94.8411 168.948 94.9476 169.011C95.9698 169.48 97.0133 169.97 98.0568 170.438C99.3132 171.013 100.612 171.46 101.933 171.844C102.167 171.929 102.444 171.993 102.721 171.972Z" fill="#86878B"/>
<path d="M117.287 149.1C117.138 149.164 117.01 149.142 116.861 149.079C116.18 148.78 115.498 148.504 114.838 148.227C113.816 147.78 112.772 147.354 111.75 146.906C111.282 146.693 110.813 146.481 110.345 146.268C108.896 145.586 107.448 144.905 106 144.223C103.04 142.839 100.123 141.348 97.2264 139.858C95.5014 138.984 93.8191 138.069 92.1154 137.132C90.5182 136.259 88.9211 135.385 87.3452 134.47C85.5563 133.448 83.7888 132.425 82.0212 131.361C81.1268 130.828 80.2537 130.253 79.3806 129.699C75.6538 127.421 72.0548 124.951 68.4346 122.523C66.1559 120.99 63.9199 119.435 61.6838 117.88C60.981 117.391 60.2783 116.901 59.5755 116.39C57.0626 114.601 54.5497 112.833 52.0368 111.044C50.3119 109.831 48.6082 108.595 46.8833 107.36C44.7537 105.806 42.6028 104.251 40.4732 102.696C38.514 101.27 36.5548 99.8429 34.6169 98.416C32.4661 96.8402 30.3365 95.243 28.2069 93.6671C27.9726 93.4967 27.8875 93.3051 27.9514 93.0069C28.2282 91.7718 28.2282 90.5153 28.1217 89.2802C27.9301 87.2571 27.2273 85.3831 26.0986 83.7007C25.6088 82.9766 25.0551 82.2739 24.4163 81.6776C22.6061 79.9739 20.5191 78.8453 18.0701 78.3555C16.8989 78.1212 15.7276 78.1212 14.5563 78.1638C14.0026 78.1851 13.4277 78.2916 12.874 78.4406C12.7249 78.4832 12.5545 78.5471 12.4268 78.3555H12.4694C12.5545 78.3555 12.6397 78.3555 12.6823 78.249C13.5554 77.8657 14.4711 77.6527 15.4082 77.4823C16.26 77.3333 17.1118 77.3333 17.9849 77.3546C18.7516 77.3759 19.5182 77.5249 20.2636 77.674C20.5404 77.8444 20.8386 77.887 21.1367 77.9934C22.7765 78.5045 24.2246 79.3351 25.5236 80.4637C27.6745 82.3378 29.0161 84.6803 29.5911 87.47C29.8467 88.7052 29.8254 89.9616 29.7615 91.1968C29.7402 91.5162 29.655 91.857 29.6124 92.1764C29.5911 92.2829 29.5698 92.3894 29.5698 92.4958C29.5485 92.6875 29.6124 92.8153 29.7615 92.9217C30.3152 93.3264 30.8476 93.731 31.4013 94.1356C34.0845 96.0735 36.7465 98.0327 39.4298 99.9493C41.2186 101.227 43.0287 102.505 44.8176 103.761C46.6064 105.018 48.3953 106.253 50.2054 107.509C53.5701 109.852 56.9774 112.109 60.4061 114.345C62.706 115.857 65.0272 117.327 67.3911 118.732C68.6688 119.499 69.9466 120.265 71.2243 121.011C73.2687 122.182 75.3557 123.268 77.4852 124.248C80.7861 125.781 84.1295 127.187 87.5155 128.486C89.1979 129.125 90.8803 129.742 92.5839 130.338C94.1811 130.892 95.7783 131.424 97.3968 131.914C99.9097 132.702 102.423 133.384 104.978 134.001C106.192 134.278 107.406 134.555 108.641 134.768C109.663 134.96 110.707 135.109 111.729 135.258C112.581 135.385 113.432 135.492 114.284 135.556C115.072 135.62 115.86 135.641 116.648 135.684C117.521 135.726 118.416 135.641 119.289 135.556C120.673 135.428 122.036 135.13 123.335 134.555C123.633 134.427 123.91 134.235 124.208 134.086C124.251 134.065 124.336 134.065 124.357 134.086C124.378 134.108 124.4 134.193 124.378 134.235C124.144 134.96 123.931 135.705 123.676 136.429C123.165 137.898 122.568 139.346 121.929 140.773C121.695 141.306 121.418 141.838 121.163 142.37C121.078 142.541 120.971 142.69 120.971 142.882C120.886 143.031 120.801 143.158 120.737 143.307C119.672 145.352 118.543 147.268 117.287 149.1Z" fill="#8B581F"/>
<path d="M38.6206 139.751C38.6632 142.733 36.1077 145.224 33.0837 145.203C30.4644 145.182 27.6533 143.158 27.6533 139.687C27.6533 136.386 30.3153 134.15 33.2115 134.193C36.342 134.236 38.7271 136.898 38.6206 139.751Z" fill="#86878B"/>
<path d="M19.1986 91.0052C19.2412 93.8802 16.8349 96.4995 13.6832 96.4782C10.8934 96.4782 8.20996 94.2635 8.20996 90.9413C8.20996 87.8747 10.6803 85.4896 13.7043 85.4896C17.1116 85.5109 19.2625 88.322 19.1986 91.0052Z" fill="#F8D025"/>
<path d="M64.7074 95.9458C64.6436 93.3051 66.7944 90.4515 70.223 90.4728C73.3322 90.4728 75.696 92.9644 75.696 95.9458C75.696 99.3318 72.9489 101.461 70.2017 101.461C67.1777 101.44 64.6648 98.9698 64.7074 95.9458Z" fill="#F8D025"/>
<path d="M12.6612 78.2703C12.6186 78.3554 12.5334 78.3767 12.4482 78.3767C12.5121 78.3554 12.5973 78.3129 12.6612 78.2703Z" fill="#F8D025"/>
<path d="M11.127 78.9944V79.0157H11.1695L11.127 78.9944Z" fill="#F8D025"/>
<path d="M1.86426 87.2146C1.86426 87.172 1.88555 87.1294 1.88555 87.0655C1.88555 87.0442 1.90685 87.0442 1.92815 87.0442C1.94944 87.0655 1.97074 87.1081 1.97074 87.1294C1.94944 87.1507 1.90685 87.1933 1.86426 87.2146C1.88555 87.2358 1.86426 87.2146 1.86426 87.2146Z" fill="#86878B"/>
<path d="M126.976 120.947C126.784 120.968 126.614 120.883 126.443 120.819C124.868 120.202 123.313 119.563 121.78 118.839C121.141 118.541 120.523 118.242 119.884 117.944C119.139 117.582 118.394 117.241 117.648 116.858C115.817 115.921 113.985 114.963 112.175 114.005C110.898 113.323 109.62 112.642 108.342 111.939C106.596 110.959 104.85 109.98 103.125 108.979C101.357 107.957 99.6321 106.892 97.8859 105.827C96.672 105.082 95.4582 104.315 94.2656 103.527C92.6897 102.505 91.1351 101.483 89.5805 100.439C87.8769 99.2892 86.1945 98.1179 84.5335 96.9041C84.4483 96.8402 84.3631 96.7763 84.2779 96.6911C84.1501 96.5846 84.0862 96.4569 84.1288 96.3078C84.2353 95.9245 84.214 95.5411 84.214 95.1578C84.1927 94.0079 84.0436 92.8579 83.7242 91.7505C83.0427 89.3867 81.765 87.3636 79.9123 85.7451C78.2299 84.2757 76.2707 83.3174 74.056 82.8915C72.9273 82.6785 71.7986 82.6359 70.6699 82.6998C69.9672 82.7424 69.2857 82.8702 68.6255 83.0618C68.4552 83.1044 68.3061 83.1257 68.1357 83.147C68.6255 82.8063 69.2005 82.6572 69.7542 82.4869C70.8403 82.1674 71.9264 81.9545 73.0551 81.9545C73.9708 81.9545 74.8439 82.1248 75.717 82.3591C77.2503 82.8063 78.6132 83.5729 79.9123 84.51C80.8493 85.1914 81.6798 86.0007 82.4678 86.8525C83.5964 88.1089 84.5547 89.5145 85.2149 91.069C85.6195 91.9848 85.8325 92.9431 85.8751 93.944C85.8964 94.6254 86.0242 95.2856 85.9816 95.9671C85.9816 96.1587 86.088 96.2652 86.2158 96.3717C86.8334 96.7976 87.4297 97.2448 88.0685 97.6707C89.5805 98.6929 91.0713 99.7151 92.5832 100.716C94.2017 101.781 95.8628 102.824 97.5664 103.74C98.8655 104.443 100.186 105.06 101.527 105.657C102.89 106.253 104.275 106.807 105.659 107.318C106.979 107.786 108.299 108.233 109.641 108.638C110.727 108.957 111.813 109.277 112.921 109.575C114.305 109.958 115.689 110.256 117.095 110.512C117.989 110.682 118.862 110.789 119.757 110.917C120.033 110.959 120.31 110.938 120.587 110.959C120.885 110.981 121.183 110.938 121.46 111.023C121.503 111.023 121.524 111.044 121.567 111.023C122.632 110.938 123.696 110.917 124.719 110.555C125.826 110.15 126.593 109.426 126.891 108.255C126.891 108.212 126.891 108.191 126.912 108.148C126.912 108.127 126.933 108.127 126.955 108.084C126.997 108.745 127.061 109.405 127.104 110.044C127.189 111.215 127.146 112.386 127.231 113.557C127.295 114.58 127.274 115.602 127.295 116.645C127.295 116.773 127.317 116.901 127.338 117.029C127.317 117.348 127.274 117.689 127.253 118.008C127.168 118.988 127.061 119.967 126.976 120.947Z" fill="#8B581F"/>
<path d="M93.2437 89.2377C93.052 89.2164 92.903 89.1099 92.7326 89.0247C90.6669 87.9386 88.7929 86.6183 87.0679 85.0424C84.6189 82.8064 82.8088 80.1018 81.4672 77.0778C80.3811 74.5862 79.6357 71.9668 79.1459 69.2836C78.8052 67.3457 78.5709 65.4077 78.4432 63.4272C78.2515 60.531 78.2302 57.6348 78.2941 54.7173C78.3367 53.0562 78.4219 51.4164 78.5071 49.7554C78.6135 48.0943 78.7413 46.4332 78.8691 44.7509C78.9117 44.0481 78.9755 43.3666 79.0181 42.6639C79.0607 41.9824 79.1246 41.301 79.1885 40.6408C79.2098 40.3426 79.2311 40.0445 79.2311 39.7677C79.2737 38.0853 79.2737 36.3816 79.2311 34.6993C79.2098 34.1456 79.1672 33.5919 79.1459 33.0595C79.1033 32.2077 79.0394 31.3346 78.9968 30.4614C78.9117 30.5892 78.9756 30.6957 78.9968 30.8022C79.1246 31.2494 79.1672 31.6966 79.2098 32.1651C79.3802 33.6345 79.5079 35.1252 79.5931 36.6159C79.6783 37.9788 79.7422 39.3205 79.8061 40.6834C79.9765 44.8999 79.9126 49.1378 79.87 53.3543C79.8487 55.7821 79.8487 58.2098 79.9126 60.6375C79.9552 62.1282 80.0403 63.5976 80.1894 65.0883C80.3172 66.3447 80.4663 67.6012 80.6579 68.8576C81.1264 71.6474 81.8718 74.3307 83.0218 76.9074C83.5967 78.2065 84.193 79.4842 84.8745 80.7194C85.918 82.6573 87.3235 84.3184 89.0058 85.7665C90.2623 86.8525 91.5613 87.8534 92.8817 88.8543C93.0094 88.9608 93.1585 89.0247 93.2437 89.1738C93.265 89.2164 93.2437 89.2377 93.2437 89.2377Z" fill="white"/>
<path d="M43.0068 56.3144C43.1985 55.6116 43.4115 54.9089 43.6031 54.2061C44.3272 51.6293 44.966 49.0313 45.4771 46.4119C45.7753 44.836 46.0308 43.2814 46.2225 41.6842C46.3716 40.3639 46.478 39.0436 46.478 37.7232C46.478 36.4881 46.4567 35.2316 46.3503 33.9752C46.2864 33.2085 46.3077 32.4419 46.2012 31.6539C46.3503 31.7178 46.3716 31.8243 46.3929 31.9308C46.7336 33.2085 47.0743 34.4863 47.2873 35.7853C47.5641 37.6167 47.6706 39.4695 47.6067 41.3222C47.5002 43.8777 47.1169 46.3906 46.2225 48.8183C45.6475 50.3942 45.1364 51.9701 44.5188 53.5247C44.2633 54.1848 43.9651 54.845 43.6244 55.4839C43.4753 55.782 43.305 56.0801 43.0068 56.3144Z" fill="white"/>
<path d="M68.1362 83.1471C68.0936 83.1684 68.0508 83.211 68.0082 83.2323C67.9656 83.2536 67.9443 83.2323 67.9443 83.1897C67.9443 83.1897 67.9658 83.1897 67.9871 83.1684C68.0297 83.1684 68.0936 83.1471 68.1362 83.1471Z" fill="#86878B"/>
<path d="M93.3721 89.3228C93.4147 89.3228 93.436 89.3228 93.4785 89.3228C93.4998 89.3228 93.5211 89.3441 93.5211 89.3441C93.5211 89.3866 93.4785 89.4079 93.4572 89.3866C93.4359 89.3653 93.4147 89.344 93.3721 89.3228Z" fill="white"/>
<path d="M93.2865 89.1951C93.3504 89.2164 93.4143 89.2377 93.3717 89.3228C93.3078 89.3228 93.244 89.3015 93.2227 89.259C93.244 89.2377 93.2652 89.2164 93.2865 89.1951Z" fill="white"/>
</svg>
