<svg width="17" height="15" viewBox="0 0 17 15" fill="none" xmlns="http://www.w3.org/2000/svg">
<path d="M8.5 14.4221L8.0988 14.8305C8.15144 14.8842 8.21397 14.9269 8.28281 14.9559C8.35166 14.985 8.42546 15 8.5 15C8.57454 15 8.64834 14.985 8.71719 14.9559C8.78603 14.9269 8.84856 14.8842 8.9012 14.8305L8.5 14.4221ZM1.7408 7.54102L1.3396 7.9483L1.7408 7.54102ZM7.40747 1.77219L7.00627 2.17947L7.40747 1.77219ZM8.5 2.88442L8.0988 3.29285C8.15144 3.34657 8.21397 3.3892 8.28281 3.41828C8.35166 3.44736 8.42546 3.46233 8.5 3.46233C8.57454 3.46233 8.64834 3.44736 8.71719 3.41828C8.78603 3.3892 8.84856 3.34657 8.9012 3.29285L8.5 2.88442ZM9.59253 1.77219L9.19247 1.36375L9.59253 1.77219ZM8.9012 14.0137L2.14087 7.13259L1.3396 7.9483L8.0988 14.8305L8.9012 14.0137ZM14.8591 7.13259L8.0988 14.0137L8.9012 14.8305L15.6604 7.9483L14.8591 7.13259ZM7.00627 2.17947L8.0988 3.29285L8.9012 2.47598L7.80753 1.36375L7.00627 2.17947ZM8.9012 3.29285L9.99373 2.17947L9.19247 1.36375L8.0988 2.47598L8.9012 3.29285ZM12.4259 0C11.2132 0 10.0504 0.490351 9.19247 1.36375L9.99373 2.17947C10.6389 1.52298 11.5137 1.15406 12.4259 1.15377V0ZM15.8667 4.6566C15.8667 5.58539 15.504 6.47609 14.858 7.13259L15.6604 7.9483C16.5179 7.07524 16.9998 5.89124 17 4.6566H15.8667ZM17 4.6566C17 3.42159 16.5181 2.23717 15.6603 1.36389C14.8025 0.490605 13.639 0 12.4259 0V1.15377C13.3384 1.15377 14.2136 1.52281 14.8589 2.17972C15.5042 2.83663 15.8667 3.72759 15.8667 4.6566H17ZM4.57413 1.15377C5.48647 1.15377 6.3614 1.52297 7.00627 2.18062L7.80753 1.36375C6.94994 0.490769 5.7869 0.000234326 4.57413 0V1.15377ZM1.13333 4.6566C1.13333 3.72759 1.49585 2.83663 2.14112 2.17972C2.7864 1.52281 3.66158 1.15377 4.57413 1.15377V0C3.361 0 2.19755 0.490605 1.33973 1.36389C0.481916 2.23717 0 3.42159 0 4.6566H1.13333ZM2.142 7.13259C1.82239 6.80754 1.56881 6.42157 1.39574 5.99674C1.22267 5.5719 1.1335 5.11652 1.13333 4.6566H0C0 5.89113 0.481667 7.0749 1.3396 7.9483L2.14087 7.13259H2.142Z" fill="#F7CA60"/>
</svg>
