<svg width="20" height="19" viewBox="0 0 20 19" fill="none" xmlns="http://www.w3.org/2000/svg">
<path d="M10.5973 0.36897C10.5422 0.258179 10.457 0.16493 10.3515 0.0997367C10.2459 0.0345438 10.1242 0 10 0C9.87579 0 9.75406 0.0345438 9.64852 0.0997367C9.54298 0.16493 9.45783 0.258179 9.40268 0.36897L6.6734 5.87353L0.570849 6.75623C0.447718 6.77403 0.332048 6.82578 0.236926 6.90562C0.141803 6.98547 0.0710232 7.09022 0.0325942 7.20803C-0.00583476 7.32585 -0.0103794 7.45201 0.0194744 7.57226C0.0493282 7.69251 0.112389 7.80204 0.201523 7.88846L4.61744 12.1732L3.57479 18.2246C3.55387 18.3466 3.56762 18.4719 3.61447 18.5865C3.66133 18.7011 3.73943 18.8004 3.83996 18.8732C3.94049 18.9459 4.05944 18.9892 4.1834 18.9982C4.30735 19.0072 4.43136 18.9816 4.54144 18.9241L10 16.0663L15.4586 18.9241C15.5686 18.9816 15.6926 19.0072 15.8166 18.9982C15.9406 18.9892 16.0595 18.9459 16.16 18.8732C16.2606 18.8004 16.3387 18.7011 16.3855 18.5865C16.4324 18.4719 16.4461 18.3466 16.4252 18.2246L15.3826 12.1719L19.7985 7.88846C19.8876 7.80204 19.9507 7.69251 19.9805 7.57226C20.0104 7.45201 20.0058 7.32585 19.9674 7.20803C19.929 7.09022 19.8582 6.98547 19.7631 6.90562C19.668 6.82578 19.5523 6.77403 19.4291 6.75623L13.3266 5.87353L10.5973 0.370298V0.36897Z" fill="#F7CA60"/>
</svg>
