<svg width="25" height="25" viewBox="0 0 25 25" fill="none" xmlns="http://www.w3.org/2000/svg">
<path d="M0.78125 4.1665C0.78125 3.50346 1.02818 2.86758 1.46772 2.39874C1.90726 1.9299 2.5034 1.6665 3.125 1.6665H21.875C22.4966 1.6665 23.0927 1.9299 23.5323 2.39874C23.9718 2.86758 24.2188 3.50346 24.2188 4.1665V6.17984L12.5 13.2098L0.78125 6.17984V4.1665Z" fill="#F7CA60"/>
<path d="M0.78125 8.09151V20.8332C0.78125 21.4962 1.02818 22.1321 1.46772 22.6009C1.90726 23.0698 2.5034 23.3332 3.125 23.3332H21.875C22.4966 23.3332 23.0927 23.0698 23.5323 22.6009C23.9718 22.1321 24.2188 21.4962 24.2188 20.8332V8.09151L12.5 15.1232L0.78125 8.08984V8.09151Z" fill="#F7CA60"/>
</svg>
