<svg width="25" height="25" viewBox="0 0 25 25" fill="none" xmlns="http://www.w3.org/2000/svg">
<g clip-path="url(#clip0_1333_1394)">
<path d="M7.86536 0.833496H4.16536C3.28131 0.833496 2.43346 1.18469 1.80834 1.80981C1.18322 2.43493 0.832031 3.28277 0.832031 4.16683V7.50016C0.832031 16.7052 8.2937 24.1668 17.4987 24.1668H20.832C21.7161 24.1668 22.5639 23.8156 23.1891 23.1905C23.8142 22.5654 24.1654 21.7176 24.1654 20.8335V18.5302C24.1652 18.2207 24.0789 17.9174 23.9161 17.6543C23.7533 17.3911 23.5205 17.1785 23.2437 17.0402L19.217 15.0268C19.0035 14.92 18.7694 14.8603 18.5308 14.8518C18.2922 14.8433 18.0545 14.8862 17.8339 14.9775C17.6132 15.0689 17.4148 15.2066 17.252 15.3813C17.0892 15.556 16.9659 15.7636 16.8904 15.9902L16.3954 17.4785C16.24 17.9448 15.9197 18.3383 15.4946 18.585C15.0695 18.8318 14.569 18.9148 14.087 18.8185C12.1361 18.428 10.3443 17.4689 8.93761 16.0618C7.53087 14.6548 6.57207 12.8629 6.18203 10.9118C6.08574 10.4299 6.16877 9.92933 6.41552 9.50426C6.66227 9.0792 7.05575 8.75888 7.52203 8.6035L9.3687 7.98683C9.76664 7.85409 10.0999 7.57616 10.3019 7.20853C10.504 6.84089 10.56 6.41059 10.4587 6.0035L9.48203 2.09516C9.39175 1.73475 9.18362 1.41484 8.89071 1.18626C8.5978 0.957666 8.23691 0.833506 7.86536 0.833496V0.833496Z" fill="#F7CA60" stroke="#F7CA60"/>
</g>
<defs>
<clipPath id="clip0_1333_1394">
<rect width="25" height="25" fill="white"/>
</clipPath>
</defs>
</svg>
